<?xml version="1.0" standalone="no"?>
<!DOCTYPE svg PUBLIC "-//W3C//DTD SVG 1.1//EN" "http://www.w3.org/Graphics/SVG/1.1/DTD/svg11.dtd" >
<svg xmlns="http://www.w3.org/2000/svg">
<metadata></metadata>
<defs>
<font id="dejavu_sans_obliqueregular" horiz-adv-x="1716" >
<font-face units-per-em="2048" ascent="1556" descent="-492" />
<missing-glyph horiz-adv-x="651" />
<glyph unicode="&#xfb00;" horiz-adv-x="1478" d="M139 0l190 977h-176l27 143h176l16 78q36 187 140 272q103 86 292 86h174l-30 -153h-176q-99 0 -145 -40t-66 -144l-20 -99h505l16 78q36 187 140 272q103 86 292 86h174l-30 -153h-176q-99 0 -145 -40t-66 -144l-20 -99h303l-27 -143h-303l-190 -977h-185l190 977h-505 l-190 -977h-185z" />
<glyph unicode="fi" horiz-adv-x="1323" d="M139 0l191 977h-176l26 143h176l15 78q38 198 133 278q96 80 301 80h174l-29 -153h-176q-100 0 -145.5 -39.5t-67.5 -144.5l-20 -99h688l-219 -1120h-185l195 978h-506l-190 -978h-185zM1083 1323l45 233h185l-45 -233h-185z" />
<glyph unicode="fl" horiz-adv-x="1323" d="M139 0l191 977h-176l26 143h176l15 78q38 199 133 278.5t301 79.5h508l-303 -1556h-185l279 1403h-330q-100 0 -145.5 -39.5t-67.5 -144.5l-20 -99h303l-27 -143h-303l-190 -977h-185z" />
<glyph unicode="&#xfb03;" horiz-adv-x="2047" d="M139 0l190 977h-176l27 143h176l16 78q36 187 140 272q103 86 292 86h174l-30 -153h-176q-99 0 -145 -40t-66 -144l-20 -99h505l16 78q36 187 140 272q33 28 76 47q86 39 216 39h174l-30 -153h-176q-99 0 -145 -40t-66 -144l-20 -99h690l-217 -1120h-185l190 977h-505 l-190 -977h-185l190 977h-505l-190 -977h-185zM1776 1321l45 233h185l-45 -233h-185z" />
<glyph unicode="&#xfb04;" horiz-adv-x="2047" d="M139 0l190 977h-176l27 143h176l16 78q36 187 140 272q103 86 292 86h174l-30 -153h-176q-99 0 -145 -40t-66 -144l-20 -99h505l16 78q36 187 140 272q103 86 292 86h512l-302 -1556h-185l272 1403h-329q-99 0 -145 -40t-66 -144l-20 -99h303l-27 -143h-303l-190 -977 h-185l190 977h-505l-190 -977h-185z" />
<glyph unicode="&#xd;" horiz-adv-x="682" />
<glyph unicode=" "  horiz-adv-x="651" />
<glyph unicode="&#x09;" horiz-adv-x="651" />
<glyph unicode="&#xa0;" horiz-adv-x="651" />
<glyph unicode="!" horiz-adv-x="821" d="M162 0l51 254h203l-49 -254h-205zM276 481l50 357l127 655h202l-127 -655l-90 -357h-162z" />
<glyph unicode="&#x22;" horiz-adv-x="942" d="M197 938v555h170v-555h-170zM575 938v555h170v-555h-170z" />
<glyph unicode="#" d="M143 414l37 153h330l84 334h-336l39 154h336l102 415h162l-104 -415h292l105 415h160l-103 -415h336l-39 -154h-336l-82 -334h340l-36 -153h-343l-104 -414h-160l103 414h-293l-103 -414h-161l104 414h-330zM672 567h293l82 334h-291z" />
<glyph unicode="$" horiz-adv-x="1303" d="M68 92l34 184q92 -62 192 -96t206 -38l88 456q-189 36 -275 110.5t-86 200.5q0 166 137.5 281t362.5 133l47 233h100l-44 -233q90 -3 175.5 -18.5t161.5 -42.5l-34 -181q-86 46 -169.5 71t-162.5 27l-84 -427q184 -29 280.5 -115t96.5 -221q0 -175 -143 -289.5 t-380 -126.5l-59 -301h-100l59 301q-116 3 -218 26.5t-185 65.5zM418 938q0 -70 47.5 -109.5t155.5 -58.5l79 410q-132 -14 -207 -78t-75 -164zM600 145q139 6 220 70.5t81 167.5q0 84 -51 130t-166 65z" />
<glyph unicode="%" horiz-adv-x="1946" d="M186 1036q0 216 116 350t302 134q136 0 215.5 -89.5t79.5 -242.5q0 -214 -116 -347.5t-302 -133.5q-136 0 -215.5 88.5t-79.5 240.5zM289 -29l1235 1549h159l-1234 -1549h-160zM346 1026q0 -92 40.5 -142t115.5 -50q107 0 172 95t65 253q0 105 -39 158t-116 53 q-112 0 -175 -97t-63 -270zM1049 301q0 216 115.5 349.5t301.5 133.5q136 0 214.5 -88t78.5 -241q0 -215 -115.5 -349.5t-300.5 -134.5q-136 0 -215 89t-79 241zM1208 291q0 -93 40.5 -143t115.5 -50q107 0 171 95t64 253q0 107 -38 160t-115 53q-111 0 -174.5 -97.5 t-63.5 -270.5z" />
<glyph unicode="&#x26;" horiz-adv-x="1597" d="M96 369q0 154 92.5 291t274.5 253q-31 46 -45.5 93.5t-14.5 101.5q0 68 23 129t66 111q69 82 173 127t224 45q78 0 157 -18t160 -54l-35 -182q-75 47 -149.5 71.5t-144.5 24.5q-124 0 -201.5 -64.5t-77.5 -164.5q0 -44 19 -87t88 -131l407 -520q75 79 128 181.5t81 224.5 h186q-45 -159 -118.5 -291t-176.5 -240l209 -270h-252l-106 139q-106 -83 -228 -125.5t-255 -42.5q-221 0 -352.5 109t-131.5 289zM295 414q0 -127 85.5 -204t227.5 -77q94 0 185.5 32.5t173.5 94.5l-426 543q-121 -88 -183.5 -187t-62.5 -202z" />
<glyph unicode="'" horiz-adv-x="563" d="M197 938v555h170v-555h-170z" />
<glyph unicode="(" horiz-adv-x="799" d="M158 383q0 297 137.5 588.5t415.5 582.5h163q-265 -331 -395.5 -628.5t-130.5 -573.5q0 -158 38 -313.5t114 -308.5h-160q-92 172 -137 334.5t-45 318.5z" />
<glyph unicode=")" horiz-adv-x="799" d="M-127 -270q266 331 396 628.5t130 573.5q0 158 -37.5 313.5t-113.5 308.5h160q92 -173 137 -334t45 -317q0 -298 -138.5 -591.5t-414.5 -581.5h-164z" />
<glyph unicode="*" horiz-adv-x="1024" d="M61 858l359 195l-359 194l58 99l336 -203v377h114v-377l336 203l58 -99l-359 -194l359 -195l-58 -98l-336 203v-377h-114v377l-336 -203z" />
<glyph unicode="+" d="M217 557v170h557v557h168v-557h557v-170h-557v-557h-168v557h-557z" />
<glyph unicode="," horiz-adv-x="651" d="M6 -238l144 320l34 172h211l-33 -172l-227 -320h-129z" />
<glyph unicode="-" horiz-adv-x="739" d="M92 479l33 164h539l-31 -164h-541z" />
<glyph unicode="." horiz-adv-x="651" d="M119 0l49 254h211l-49 -254h-211z" />
<glyph unicode="/" horiz-adv-x="690" d="M-150 -190l846 1683h178l-847 -1683h-177z" />
<glyph unicode="0" horiz-adv-x="1303" d="M102 494q0 190 51.5 380.5t143.5 339.5q92 150 215.5 228t269.5 78q203 0 310.5 -135t107.5 -388q0 -192 -50.5 -381.5t-141.5 -339.5q-93 -150 -218.5 -227.5t-277.5 -77.5q-196 0 -303 136t-107 387zM301 465q0 -165 58.5 -249.5t172.5 -84.5q80 0 148 40.5t123 119.5 q91 131 144.5 328.5t53.5 406.5q0 165 -58.5 249.5t-172.5 84.5q-76 0 -144.5 -40.5t-123.5 -119.5q-92 -132 -146.5 -329.5t-54.5 -405.5z" />
<glyph unicode="1" horiz-adv-x="1303" d="M100 0l33 170h330l223 1149l-373 -72l35 174l371 72h203l-258 -1323h329l-32 -170h-861z" />
<glyph unicode="2" horiz-adv-x="1303" d="M8 0l33 170l674 578q135 117 191.5 205.5t56.5 181.5q0 97 -68 158t-178 61q-95 0 -211 -34t-248 -99l37 200q124 49 237 74t209 25q196 0 315.5 -104t119.5 -273q0 -114 -57 -217.5t-175 -204.5l-645 -553h713l-35 -168h-969z" />
<glyph unicode="3" horiz-adv-x="1303" d="M4 45l37 191q94 -52 189.5 -77.5t195.5 -25.5q197 0 319.5 101.5t122.5 263.5q0 104 -78 160.5t-223 56.5h-174l31 164h184q166 0 261.5 76t95.5 206q0 94 -70 145.5t-197 51.5q-96 0 -196.5 -20.5t-208.5 -61.5l31 180q110 32 213.5 48t203.5 16q198 0 314 -88t116 -236 q0 -145 -91.5 -249t-252.5 -142q126 -36 185 -112t59 -201q0 -120 -57.5 -225t-165.5 -181q-82 -58 -196 -86.5t-263 -28.5q-94 0 -190 18.5t-195 55.5z" />
<glyph unicode="4" horiz-adv-x="1303" d="M37 352l39 195l805 946h254l-191 -973h213l-33 -168h-213l-67 -352h-201l68 352h-674zM233 520h510l156 797z" />
<glyph unicode="5" horiz-adv-x="1303" d="M41 35l37 188q92 -45 184.5 -67.5t186.5 -22.5q195 0 322.5 117t127.5 293q0 130 -83.5 202t-233.5 72q-79 0 -164.5 -18.5t-175.5 -55.5l145 750h803l-31 -168h-618l-72 -369q46 15 93.5 22t96.5 7q207 0 327 -111t120 -301q0 -133 -61.5 -255t-174.5 -214 q-80 -64 -195.5 -98.5t-252.5 -34.5q-90 0 -184 16t-197 48z" />
<glyph unicode="6" horiz-adv-x="1303" d="M129 461q0 212 54.5 408.5t152.5 340.5q103 152 249.5 231t323.5 79q78 0 154 -15.5t149 -46.5l-34 -184q-58 38 -133 58t-160 20q-207 0 -332.5 -130t-187.5 -407q73 85 169.5 128.5t208.5 43.5q183 0 291.5 -105.5t108.5 -283.5q0 -146 -53.5 -271.5t-155.5 -220.5 q-70 -65 -163 -100t-198 -35q-206 0 -325 131t-119 359zM332 412q0 -132 64.5 -206.5t178.5 -74.5q156 0 260.5 122.5t104.5 299.5q0 127 -65 200.5t-177 73.5q-155 0 -260.5 -119.5t-105.5 -295.5z" />
<glyph unicode="7" horiz-adv-x="1303" d="M190 0l807 1323h-768l33 170h1022l-18 -86l-854 -1407h-222z" />
<glyph unicode="8" horiz-adv-x="1303" d="M68 358q0 160 109 284.5t284 158.5q-105 36 -160 111.5t-55 183.5q0 181 150.5 302.5t381.5 121.5q193 0 314.5 -98.5t121.5 -250.5q0 -132 -90.5 -235.5t-246.5 -149.5q113 -43 173 -130t60 -210q0 -207 -160 -341t-413 -134q-215 0 -342 105.5t-127 281.5zM266 379 q0 -114 77.5 -181t209.5 -67q157 0 257.5 91t100.5 231q0 113 -79 184.5t-207 71.5q-156 0 -257.5 -93.5t-101.5 -236.5zM444 1090q0 -100 69.5 -161t184.5 -61q138 0 227 79.5t89 201.5q0 95 -70 153t-186 58q-137 0 -225.5 -77t-88.5 -193z" />
<glyph unicode="9" horiz-adv-x="1303" d="M90 33l37 184q58 -38 132 -58t159 -20q207 0 333.5 131t188.5 408q-74 -85 -171.5 -129.5t-209.5 -44.5q-182 0 -289.5 105.5t-107.5 283.5q0 146 53 271.5t156 219.5q70 66 162 101t196 35q207 0 327 -131.5t120 -358.5q0 -211 -55.5 -408t-153.5 -341 q-104 -152 -250 -231t-324 -79q-77 0 -153.5 15.5t-149.5 46.5zM362 940q0 -127 66 -201.5t178 -74.5q155 0 260 119t105 296q0 132 -65 206.5t-179 74.5q-155 0 -260 -121.5t-105 -298.5z" />
<glyph unicode=":" horiz-adv-x="690" d="M106 0l50 254h211l-50 -254h-211zM264 805l49 254h211l-49 -254h-211z" />
<glyph unicode=";" horiz-adv-x="690" d="M2 -238l143 320l35 172h211l-35 -172l-225 -320h-129zM287 805l49 254h211l-49 -254h-211z" />
<glyph unicode="&#x3c;" d="M217 559v166l1282 465v-182l-1032 -367l1032 -365v-182z" />
<glyph unicode="=" d="M217 352v170h1282v-170h-1282zM217 762v168h1282v-168h-1282z" />
<glyph unicode="&#x3e;" d="M217 94v182l1030 365l-1030 367v182l1282 -465v-166z" />
<glyph unicode="?" horiz-adv-x="1087" d="M252 1219l37 188q102 57 203.5 85t207.5 28q161 0 254 -75t93 -204q0 -103 -53.5 -193t-174.5 -188l-104 -84q-84 -66 -112 -113t-46 -139l-25 -123h-190l31 154q18 94 57 159.5t150 157.5l106 89q84 70 118 123t34 110q0 76 -54.5 119t-150.5 43q-80 0 -178.5 -35.5 t-202.5 -101.5zM258 0l49 254h203l-49 -254h-203z" />
<glyph unicode="@" horiz-adv-x="2048" d="M119 401q0 225 104.5 435.5t292.5 363.5q139 114 319 177t369 63q321 0 531.5 -189t210.5 -473q0 -295 -203.5 -491.5t-519.5 -202.5l30 154q-69 -74 -149.5 -112t-167.5 -38q-147 0 -243.5 99t-96.5 251q0 220 148.5 384.5t347.5 164.5q92 0 164.5 -40t111.5 -111 l27 131h143l-143 -738q177 28 291 180t114 361q0 233 -165 380.5t-427 147.5q-178 0 -344 -62.5t-293 -176.5q-145 -134 -226 -310t-81 -360q0 -261 174.5 -431.5t444.5 -170.5q129 0 254 43.5t262 136.5l82 -114q-135 -102 -291.5 -154.5t-321.5 -52.5q-322 0 -535.5 214 t-213.5 541zM756 467q0 -112 57 -175t158 -63q142 0 238 114t96 280q0 102 -57.5 162.5t-153.5 60.5q-141 0 -239.5 -111.5t-98.5 -267.5z" />
<glyph unicode="A" horiz-adv-x="1401" d="M-109 0l863 1493h229l277 -1493h-211l-62 383h-672l-211 -383h-213zM408 551h548l-129 743z" />
<glyph unicode="B" horiz-adv-x="1405" d="M55 0l291 1493h516q210 0 314 -78t104 -235q0 -144 -89.5 -248.5t-234.5 -126.5q124 -28 186 -107t62 -211q0 -225 -166.5 -356t-455.5 -131h-527zM289 166h325q183 0 282 84t99 237q0 118 -65.5 172t-210.5 54h-324zM426 877h301q161 0 251.5 70t90.5 194 q0 97 -61 141.5t-195 44.5h-299z" />
<glyph unicode="C" horiz-adv-x="1430" d="M86 561q0 178 61.5 350t176.5 314q122 151 278.5 223t364.5 72q128 0 242.5 -35.5t213.5 -106.5l-41 -213q-96 97 -203.5 144t-232.5 47q-171 0 -300.5 -82t-223.5 -250q-60 -108 -91.5 -228.5t-31.5 -242.5q0 -204 105.5 -311t306.5 -107q139 0 267 44.5t249 133.5 l-47 -239q-119 -51 -240.5 -77t-243.5 -26q-287 0 -448.5 156t-161.5 434z" />
<glyph unicode="D" horiz-adv-x="1577" d="M55 0l291 1493h434q346 0 522.5 -146.5t176.5 -435.5q0 -191 -67 -367.5t-185 -297.5q-119 -124 -302 -185t-433 -61h-437zM291 166h264q339 0 525 195t186 550q0 215 -120 315.5t-376 100.5h-254z" />
<glyph unicode="E" horiz-adv-x="1294" d="M55 0l291 1493h944l-33 -170h-743l-86 -442h713l-33 -170h-713l-104 -541h760l-33 -170h-963z" />
<glyph unicode="F" horiz-adv-x="1178" d="M55 0l291 1493h856l-33 -170h-655l-86 -440h592l-33 -170h-592l-139 -713h-201z" />
<glyph unicode="G" horiz-adv-x="1587" d="M92 561q0 231 96.5 439.5t266.5 347.5q107 87 234 129.5t282 42.5q140 0 268.5 -35.5t245.5 -106.5l-41 -215q-90 94 -211 143.5t-258 49.5q-159 0 -280 -60.5t-216 -187.5q-81 -108 -127.5 -254.5t-46.5 -298.5q0 -209 107 -314.5t319 -105.5q106 0 205 22.5t182 65.5 l78 391h-332l31 166h530l-129 -657q-133 -73 -290 -112.5t-316 -39.5q-281 0 -439.5 156t-158.5 434z" />
<glyph unicode="H" horiz-adv-x="1540" d="M55 0l291 1493h203l-119 -612h733l119 612h203l-291 -1493h-203l139 711h-733l-139 -711h-203z" />
<glyph unicode="I" horiz-adv-x="604" d="M55 0l291 1493h203l-291 -1493h-203z" />
<glyph unicode="J" horiz-adv-x="604" d="M-336 -410l33 170h63q135 0 205 77t107 267l270 1389h203l-271 -1389q-53 -271 -178.5 -392.5t-351.5 -121.5h-80z" />
<glyph unicode="K" horiz-adv-x="1343" d="M55 0l291 1493h203l-123 -629l784 629h269l-887 -713l649 -780h-246l-596 727l-141 -727h-203z" />
<glyph unicode="L" horiz-adv-x="1141" d="M55 0l289 1493h203l-256 -1325h727l-33 -168h-930z" />
<glyph unicode="M" horiz-adv-x="1767" d="M55 0l291 1493h303l174 -1006l578 1006h311l-291 -1493h-196l254 1309l-586 -1022h-197l-190 1026l-254 -1313h-197z" />
<glyph unicode="N" horiz-adv-x="1532" d="M55 0l291 1493h272l412 -1280l250 1280h197l-291 -1493h-273l-411 1288l-250 -1288h-197z" />
<glyph unicode="O" horiz-adv-x="1612" d="M82 580q0 162 61.5 331t169.5 301q127 155 283 231.5t344 76.5q274 0 432 -161.5t158 -440.5q0 -172 -60 -338t-172 -301q-128 -156 -282.5 -232t-343.5 -76q-275 0 -432.5 163t-157.5 446zM297 569q0 -208 99.5 -321t281.5 -113q164 0 292.5 81.5t219.5 242.5 q61 108 93 226.5t32 236.5q0 207 -100 320.5t-281 113.5q-166 0 -293 -80.5t-221 -245.5q-60 -105 -91.5 -223t-31.5 -238z" />
<glyph unicode="P" horiz-adv-x="1235" d="M55 0l291 1493h467q204 0 311 -95t107 -278q0 -246 -158 -383t-444 -137h-254l-117 -600h-203zM408 766h254q172 0 264 88t92 252q0 105 -62.5 163t-175.5 58h-264z" />
<glyph unicode="Q" horiz-adv-x="1612" d="M84 575q0 167 60.5 335t168.5 302q125 154 281.5 231t345.5 77q274 0 432 -161.5t158 -440.5q0 -301 -165 -551t-431 -353l203 -278h-226l-172 237q-11 -1 -23 -1.5t-36 -0.5q-280 0 -438 160.5t-158 443.5zM297 569q0 -208 99.5 -321t281.5 -113q164 0 292.5 81.5 t219.5 242.5q61 108 93 226.5t32 236.5q0 207 -100 320.5t-281 113.5q-166 0 -293 -80.5t-221 -245.5q-60 -105 -91.5 -223t-31.5 -238z" />
<glyph unicode="R" horiz-adv-x="1423" d="M55 0l291 1493h455q207 0 317.5 -93.5t110.5 -269.5q0 -156 -94 -270t-248 -143q64 -15 106.5 -74t98.5 -235l127 -408h-213l-117 383q-45 148 -104 198t-181 50h-223l-123 -631h-203zM414 797h260q153 0 247.5 84.5t94.5 220.5q0 109 -63.5 167t-182.5 58h-254z" />
<glyph unicode="S" horiz-adv-x="1300" d="M12 66l41 208q111 -69 222.5 -104t222.5 -35q189 0 303 84t114 219q0 90 -45.5 136.5t-195.5 84.5l-121 31q-207 54 -282.5 124.5t-75.5 197.5q0 223 171.5 365.5t446.5 142.5q107 0 212 -19t210 -57l-39 -197q-101 54 -200.5 81.5t-192.5 27.5q-181 0 -288 -79 t-107 -210q0 -72 39.5 -110.5t203.5 -82.5l121 -30q205 -53 285 -134.5t80 -228.5q0 -226 -177.5 -368t-467.5 -142q-119 0 -239 23.5t-241 71.5z" />
<glyph unicode="T" horiz-adv-x="1251" d="M88 1323l33 170h1263l-32 -170h-533l-256 -1323h-203l256 1323h-528z" />
<glyph unicode="U" horiz-adv-x="1499" d="M119 389q0 35 5 78.5t15 93.5l178 932h203l-176 -907q-11 -61 -15.5 -100.5t-4.5 -69.5q0 -138 77 -209.5t226 -71.5q193 0 300.5 106t153.5 345l176 907h203l-180 -932q-59 -302 -224 -446t-452 -144q-224 0 -354.5 112.5t-130.5 305.5z" />
<glyph unicode="V" horiz-adv-x="1401" d="M160 1493h198l217 -1284l725 1284h220l-863 -1493h-235z" />
<glyph unicode="W" horiz-adv-x="2025" d="M197 1493h196l72 -1270l563 1270h225l74 -1270l557 1270h205l-664 -1493h-254l-69 1245l-559 -1245h-254z" />
<glyph unicode="X" horiz-adv-x="1403" d="M-88 0l698 803l-329 690h204l256 -539l463 539h236l-615 -713l371 -780h-203l-301 629l-545 -629h-235z" />
<glyph unicode="Y" horiz-adv-x="1251" d="M129 1493h217l279 -614l532 614h227l-677 -782l-138 -711h-202l137 711z" />
<glyph unicode="Z" horiz-adv-x="1403" d="M-45 0l29 154l1157 1169h-905l32 170h1172l-29 -154l-1157 -1169h952l-32 -170h-1219z" />
<glyph unicode="[" horiz-adv-x="799" d="M82 -270l354 1826h424l-29 -143h-239l-299 -1540h239l-26 -143h-424z" />
<glyph unicode="\" horiz-adv-x="690" d="M174 1493h170l193 -1683h-168z" />
<glyph unicode="]" horiz-adv-x="799" d="M-78 -270l27 143h239l299 1540h-237l26 143h424l-354 -1826h-424z" />
<glyph unicode="^" d="M217 936l543 557h196l543 -557h-201l-440 395l-440 -395h-201z" />
<glyph unicode="_" horiz-adv-x="1024" d="M-20 -340h1064v-143h-1064v143z" />
<glyph unicode="`" horiz-adv-x="1024" d="M389 1638h197l209 -374h-154z" />
<glyph unicode="a" horiz-adv-x="1255" d="M84 283q0 196 156.5 310t431.5 114h256l10 49q2 8 3 17.5t1 29.5q0 89 -72.5 138.5t-203.5 49.5q-90 0 -184.5 -23t-194.5 -69l32 170q104 39 203.5 58.5t192.5 19.5q198 0 301.5 -86t103.5 -250q0 -33 -5 -77.5t-15 -94.5l-125 -639h-184l34 170q-81 -100 -184.5 -149.5 t-230.5 -49.5q-143 0 -234.5 87.5t-91.5 224.5zM274 315q0 -88 55.5 -138t153.5 -50q150 0 262 107.5t148 287.5l8 41h-184q-226 0 -334.5 -60.5t-108.5 -187.5z" />
<glyph unicode="b" horiz-adv-x="1300" d="M74 0l303 1556h184l-119 -606q68 92 170.5 144.5t214.5 52.5q172 0 273.5 -116t101.5 -314q0 -162 -59.5 -314t-169.5 -270q-72 -78 -166 -120t-197 -42q-109 0 -189 50t-130 149l-33 -170h-184zM350 420q0 -138 65.5 -216.5t180.5 -78.5q87 0 161 40.5t130 119.5 q57 82 92 191t35 208q0 145 -66.5 227t-183.5 82q-85 0 -159.5 -41.5t-129.5 -120.5q-58 -83 -91.5 -192.5t-33.5 -218.5z" />
<glyph unicode="c" horiz-adv-x="1126" d="M94 401q0 174 62.5 320.5t185.5 263.5q84 80 197 121t247 41q78 0 155 -17.5t157 -52.5l-37 -182q-66 48 -140.5 72t-154.5 24q-88 0 -167.5 -31t-133.5 -88q-86 -87 -133 -204t-47 -242q0 -151 75.5 -225t229.5 -74q76 0 161.5 23t178.5 69l-35 -182 q-80 -33 -164.5 -49.5t-173.5 -16.5q-223 0 -343 111.5t-120 318.5z" />
<glyph unicode="d" horiz-adv-x="1300" d="M94 399q0 166 59 316.5t171 269.5q74 79 167 120.5t195 41.5q108 0 190.5 -52t127.5 -149l120 610h185l-303 -1556h-185l35 168q-74 -97 -175 -147t-224 -50q-168 0 -265.5 114.5t-97.5 313.5zM285 432q0 -145 65.5 -226t181.5 -81q86 0 159.5 41.5t129.5 122.5 q59 84 93 194t34 217q0 139 -65.5 217t-180.5 78q-87 0 -162 -41t-128 -118q-58 -83 -92.5 -193t-34.5 -211z" />
<glyph unicode="e" horiz-adv-x="1260" d="M94 399q0 175 62.5 325.5t183.5 268.5q78 74 185.5 114t228.5 40q190 0 302.5 -114t112.5 -306q0 -46 -6 -98.5t-18 -112.5h-856q-6 -38 -8 -60t-2 -38q0 -139 85.5 -215t241.5 -76q120 0 227 27t199 79l-35 -182q-99 -40 -204.5 -60t-214.5 -20q-233 0 -358.5 111.5 t-125.5 316.5zM324 659l661 1q3 16 4.5 33t1.5 34q0 122 -71.5 193t-194.5 71q-137 0 -242 -86.5t-159 -245.5z" />
<glyph unicode="f" horiz-adv-x="721" d="M139 0l191 977h-176l26 143h176l15 78q38 198 133.5 278t300.5 80h174l-29 -153h-176q-100 0 -145.5 -39.5t-67.5 -144.5l-20 -99h303l-27 -143h-303l-190 -977h-185z" />
<glyph unicode="g" horiz-adv-x="1300" d="M66 -367l34 179q68 -44 144 -65t162 -21q175 0 287.5 95.5t148.5 274.5l16 84q-77 -88 -179 -134t-220 -46q-170 0 -267.5 112.5t-97.5 309.5q0 155 59 303.5t166 263.5q71 76 165.5 117t197.5 41q113 0 197 -52.5t125 -148.5l32 174h185l-191 -981q-55 -285 -210.5 -425 t-418.5 -140q-97 0 -180 14.5t-155 44.5zM285 440q0 -138 64.5 -212t185.5 -74q175 0 292 158.5t117 396.5q0 136 -64 210t-182 74q-73 0 -139 -29t-113 -81q-76 -86 -118.5 -202.5t-42.5 -240.5z" />
<glyph unicode="h" horiz-adv-x="1298" d="M72 0l303 1556h184l-119 -612q70 94 179 148.5t229 54.5q148 0 229.5 -80t81.5 -225q0 -36 -4.5 -77t-13.5 -89l-131 -676h-185l131 669q9 47 14 83t5 57q0 84 -53 131t-148 47q-148 0 -256.5 -100t-140.5 -266l-121 -621h-184z" />
<glyph unicode="i" horiz-adv-x="569" d="M72 0l219 1120h184l-219 -1120h-184zM330 1323l45 233h184l-45 -233h-184z" />
<glyph unicode="j" horiz-adv-x="569" d="M-231 -426l30 156h47q108 0 153.5 45t76.5 205l221 1140h184l-221 -1140l-1 -5q-37 -191 -85 -262q-45 -67 -131.5 -103t-204.5 -36h-69zM338 1323l45 233h184l-45 -233h-184z" />
<glyph unicode="k" horiz-adv-x="1186" d="M72 0l303 1556h184l-176 -907l631 471h239l-704 -536l514 -584h-223l-478 547l-106 -547h-184z" />
<glyph unicode="l" horiz-adv-x="569" d="M72 0l303 1556h184l-303 -1556h-184z" />
<glyph unicode="m" horiz-adv-x="1995" d="M72 0l219 1120h184l-35 -174q75 98 175.5 149.5t215.5 51.5q122 0 200.5 -64t94.5 -178q84 118 194.5 180t233.5 62q144 0 222.5 -83t78.5 -235q0 -33 -4 -72.5t-12 -80.5l-131 -676h-184l129 670q8 43 12 74t4 53q0 90 -50 140t-140 50q-134 0 -239 -100.5t-136 -261.5 l-123 -625h-184l131 670q8 37 12 68.5t4 56.5q0 91 -50 141.5t-138 50.5q-136 0 -241 -100.5t-136 -261.5l-123 -625h-184z" />
<glyph unicode="n" horiz-adv-x="1298" d="M72 0l217 1120h184l-37 -176q77 97 185 150t227 53q148 0 229.5 -80t81.5 -225q0 -36 -4.5 -77t-13.5 -89l-131 -676h-185l131 669q9 47 14 83t5 57q0 84 -53 131t-148 47q-148 0 -255 -98.5t-140 -267.5l-123 -621h-184z" />
<glyph unicode="o" horiz-adv-x="1253" d="M94 424q0 122 39.5 248.5t102.5 212.5q99 134 221 198t276 64q191 0 308.5 -119t117.5 -311q0 -133 -39 -265t-102 -219q-98 -134 -220 -198t-278 -64q-197 0 -311.5 121.5t-114.5 331.5zM285 430q0 -152 63.5 -227.5t192.5 -75.5q185 0 306.5 161.5t121.5 409.5 q0 145 -65 219t-191 74q-104 0 -185 -48.5t-145 -147.5q-47 -74 -72.5 -169t-25.5 -196z" />
<glyph unicode="p" horiz-adv-x="1300" d="M-6 -426l301 1546h184l-33 -170q74 97 174.5 147t223.5 50q172 0 267 -112.5t95 -315.5q0 -166 -59 -316.5t-170 -269.5q-74 -79 -167 -120.5t-196 -41.5q-119 0 -200 49.5t-121 147.5l-115 -594h-184zM354 416q0 -140 64 -215.5t182 -75.5q87 0 161.5 41t127.5 119 q57 82 92 193t35 212q0 147 -64 225t-184 78q-82 0 -156.5 -42t-132.5 -122q-57 -79 -91 -191t-34 -222z" />
<glyph unicode="q" horiz-adv-x="1300" d="M94 401q0 162 59.5 313t170.5 271q72 78 165.5 120t196.5 42q124 0 204 -49t116 -148l32 168h185l-299 -1540h-185l115 590q-74 -97 -174.5 -147t-222.5 -50q-170 0 -266.5 114.5t-96.5 315.5zM285 428q0 -148 62 -225.5t179 -77.5q174 0 297 166.5t123 404.5 q0 144 -63.5 220.5t-182.5 76.5q-87 0 -161 -40.5t-129 -118.5q-58 -82 -91.5 -192t-33.5 -214z" />
<glyph unicode="r" horiz-adv-x="842" d="M72 0l219 1120h184l-35 -174q73 97 174.5 149t216.5 52q30 0 59 -3.5t58 -11.5l-35 -182q-28 15 -64 23t-77 8q-147 0 -257 -111.5t-146 -298.5l-113 -571h-184z" />
<glyph unicode="s" horiz-adv-x="1067" d="M23 41l36 190q101 -52 199 -79t188 -27q135 0 219.5 58t84.5 147q0 96 -222 155l-19 5l-63 16q-140 37 -205 97.5t-65 154.5q0 179 134.5 284t365.5 105q91 0 177.5 -15t170.5 -45l-35 -174q-73 40 -154 60t-167 20q-145 0 -228.5 -49.5t-83.5 -134.5q0 -99 194 -152 q15 -4 22 -6l59 -18q184 -51 245.5 -107t61.5 -153q0 -178 -141.5 -290t-370.5 -112q-89 0 -187 17t-216 53z" />
<glyph unicode="t" horiz-adv-x="803" d="M131 977l29 143h153l62 318h184l-61 -318h368l-28 -143h-367l-119 -608q-6 -34 -9 -57t-3 -36q0 -64 38.5 -93t123.5 -29h186l-31 -154h-176q-164 0 -244.5 64t-80.5 194q0 23 3 50.5t9 60.5l119 608h-156z" />
<glyph unicode="u" horiz-adv-x="1298" d="M117 276q0 30 5 75t15 93l131 676h185l-131 -669q-10 -49 -14.5 -84t-4.5 -58q0 -85 52 -131.5t147 -46.5q148 0 256 100t141 269l123 620h184l-217 -1120h-184l37 176q-78 -98 -185.5 -151.5t-228.5 -53.5q-147 0 -229 80.5t-82 224.5z" />
<glyph unicode="v" horiz-adv-x="1212" d="M147 1120h195l164 -952l536 952h195l-637 -1120h-248z" />
<glyph unicode="w" horiz-adv-x="1675" d="M174 1120h182l47 -901l418 901h213l62 -901l397 901h184l-512 -1120h-215l-55 928l-428 -928h-217z" />
<glyph unicode="x" horiz-adv-x="1212" d="M-53 0l551 590l-293 530h211l215 -405l375 405h223l-514 -549l315 -571h-211l-237 444l-412 -444h-223z" />
<glyph unicode="y" horiz-adv-x="1212" d="M-51 -426l31 154h106q77 0 131 42t121 164l57 107l-248 1079h195l186 -858l514 858h193l-727 -1224q-128 -215 -208.5 -268.5t-205.5 -53.5h-145z" />
<glyph unicode="z" horiz-adv-x="1075" d="M-6 0l33 168l843 805h-661l29 147h874l-33 -168l-843 -805h696l-29 -147h-909z" />
<glyph unicode="{" horiz-adv-x="1303" d="M248 537l28 147h62q144 0 207.5 54.5t95.5 205.5l47 244q26 123 61.5 194.5t90.5 110.5q46 34 115 48.5t202 14.5h82l-29 -143h-77q-136 0 -183 -39.5t-78 -189.5l-51 -252q-32 -160 -92.5 -232.5t-171.5 -93.5q73 -18 113.5 -69.5t40.5 -126.5q0 -24 -4 -57t-11 -71 l-47 -244q-5 -31 -7.5 -57.5t-2.5 -50.5q0 -63 42.5 -91.5t139.5 -28.5h78l-29 -144h-71q-188 0 -269 54.5t-81 177.5q0 32 3.5 66t10.5 71l45 235q0 3 2 12q10 50 10 95q0 85 -49 122.5t-162 37.5h-61z" />
<glyph unicode="|" horiz-adv-x="690" d="M260 -483v2048h170v-2048h-170z" />
<glyph unicode="}" horiz-adv-x="1303" d="M14 -334l29 144h78q136 0 183 39.5t77 189.5l51 252q33 160 93 232.5t171 92.5q-73 19 -113 70t-40 127q0 25 3.5 57t10.5 70l47 243q6 34 8 59t2 50q0 64 -42.5 92.5t-139.5 28.5h-78l27 143h74q187 0 268.5 -54t81.5 -177q0 -31 -3.5 -65t-11.5 -73l-45 -235 q0 -3 -2 -12q-10 -49 -10 -94q0 -86 49 -123t162 -37h62l-29 -147h-62q-144 0 -207 -55t-92 -205l-53 -244q-26 -126 -61 -196.5t-88 -108.5q-47 -34 -116 -49t-202 -15h-82z" />
<glyph unicode="~" d="M217 467v178q105 79 194.5 113.5t186.5 34.5q110 0 257 -60l15 -6q8 -3 22 -8q155 -62 249 -62q86 0 170.5 38t187.5 122v-178q-105 -79 -194.5 -113t-186.5 -34q-110 0 -256 59q-11 4 -16 6q-7 3 -22 8q-155 62 -249 62q-88 0 -174 -38.5t-184 -121.5z" />
<glyph unicode="&#xa1;" horiz-adv-x="821" d="M174 0l127 655l90 357h162l-49 -357l-127 -655h-203zM414 1239l49 254h205l-52 -254h-202z" />
<glyph unicode="&#xa2;" horiz-adv-x="1303" d="M152 401q0 306 177 513.5t459 230.5l56 285h100l-55 -285q73 -7 137.5 -23.5t126.5 -44.5l-35 -182q-47 37 -109 59.5t-151 34.5l-168 -862q66 5 140 27.5t157 64.5l-35 -182q-65 -28 -138 -44.5t-150 -21.5l-60 -284h-100l59 284q-197 13 -304 124.5t-107 305.5z M340 426q0 -134 61 -207.5t189 -93.5l168 860q-178 -23 -298 -183.5t-120 -375.5z" />
<glyph unicode="&#xa3;" horiz-adv-x="1303" d="M49 0l33 170h235l91 465h-199l29 143h198l45 238q52 262 182.5 383t362.5 121q70 0 140 -15t139 -45l-35 -182q-61 40 -126.5 61t-129.5 21q-147 0 -221 -79.5t-115 -287.5l-41 -215h391l-29 -143h-391l-90 -465h537l-33 -170h-973z" />
<glyph unicode="&#xa4;" horiz-adv-x="1303" d="M94 197l207 206q-37 62 -55.5 121t-18.5 117q0 64 19 122t57 114l-207 206l115 115l207 -207q55 39 113 57.5t122 18.5q60 0 118.5 -18t119.5 -56l207 209l114 -115l-206 -206q37 -59 55 -118.5t18 -121.5q0 -63 -19 -120.5t-59 -114.5l209 -207l-114 -113l-207 207 q-59 -40 -117 -59t-119 -19q-58 0 -118 18.5t-121 55.5l-207 -207zM383 643q0 -114 78.5 -192t191.5 -78t191 78.5t78 191.5q0 112 -77.5 189t-191.5 77q-112 0 -191 -77t-79 -189z" />
<glyph unicode="&#xa5;" horiz-adv-x="1303" d="M92 455l23 123h417l11 51l-54 155h-333l24 123h266l-204 586h190l240 -700l512 700h194l-430 -586h262l-24 -123h-328l-113 -155l-10 -51h410l-23 -123h-411l-88 -455h-203l88 455h-416z" />
<glyph unicode="&#xa6;" horiz-adv-x="690" d="M260 -350v758h170v-758h-170zM260 674v758h170v-758h-170z" />
<glyph unicode="&#xa7;" horiz-adv-x="1024" d="M25 -137l32 164q76 -38 148 -58t131 -20q112 0 179 47.5t67 126.5q0 98 -180 219l-15 10l-76 51q-123 84 -164 140.5t-41 130.5q0 96 64 182.5t182 149.5q-43 38 -62.5 78.5t-19.5 91.5q0 147 121.5 245.5t308.5 98.5q71 0 143.5 -14.5t149.5 -43.5l-32 -164 q-72 39 -140.5 58.5t-126.5 19.5q-103 0 -169 -48.5t-66 -121.5q0 -79 135 -169q30 -20 47 -31l88 -60q122 -85 164.5 -143.5t42.5 -128.5q0 -101 -66 -191t-180 -143q41 -35 61.5 -80t20.5 -100q0 -157 -121.5 -256t-320.5 -99q-69 0 -146 14.5t-159 43.5zM274 717 q0 -50 42.5 -98.5t168.5 -131.5l117 -77q82 49 125 104.5t43 112.5q0 54 -53.5 110.5t-196.5 147.5l-80 51q-81 -51 -123.5 -107t-42.5 -112z" />
<glyph unicode="&#xa8;" horiz-adv-x="1024" d="M377 1350l39 202h205l-41 -202h-203zM768 1350l39 202h203l-39 -202h-203z" />
<glyph unicode="&#xa9;" horiz-adv-x="2048" d="M283 741q0 154 54 285t163 240t240.5 164t283.5 55t283.5 -55t240.5 -164t163 -240t54 -285q0 -152 -54 -282.5t-163 -239.5t-240.5 -164t-283.5 -55t-283.5 55t-240.5 164t-163 239.5t-54 282.5zM383 741q0 -129 48 -242.5t142 -207.5t207 -141.5t244 -47.5 q132 0 245.5 47.5t207.5 141.5q93 93 139.5 206t46.5 244q0 133 -47 246.5t-139 206.5q-94 94 -207.5 141t-245.5 47q-131 0 -244 -47t-207 -141t-142 -208.5t-48 -244.5zM582 741q0 209 125.5 330t341.5 121q73 0 141 -14t133 -41v-129q-66 33 -131 49t-131 16 q-149 0 -232.5 -87.5t-83.5 -244.5q0 -159 85.5 -246t240.5 -87q64 0 125 15.5t127 49.5v-127q-67 -29 -135.5 -43t-138.5 -14q-216 0 -341.5 122t-125.5 330z" />
<glyph unicode="&#xaa;" horiz-adv-x="965" d="M82 469l22 123h689l-23 -123h-688zM143 920q0 140 115.5 219.5t323.5 79.5h182v4q2 19 3 29.5t1 17.5q0 70 -46.5 102.5t-146.5 32.5q-70 0 -142.5 -17t-145.5 -51l24 127q79 28 155 42t144 14q150 0 226.5 -62t76.5 -182q0 -27 -2.5 -54.5t-7.5 -56.5l-88 -448h-149 l22 112q-58 -65 -134.5 -98t-172.5 -33q-107 0 -172.5 61t-65.5 161zM295 946q0 -59 38 -94t103 -35q115 0 193.5 67.5t105.5 190.5l6 29h-147q-157 0 -228 -37.5t-71 -120.5z" />
<glyph unicode="&#xab;" horiz-adv-x="1264" d="M127 559l16 82l549 418l-39 -201l-354 -270l252 -266l-37 -181zM571 559l17 82l549 418l-39 -201l-355 -270l252 -266l-37 -181z" />
<glyph unicode="&#xac;" d="M217 692v170h1282v-575h-168v405h-1114z" />
<glyph unicode="&#xad;" horiz-adv-x="739" d="M92 479l33 164h539l-31 -164h-541z" />
<glyph unicode="&#xae;" horiz-adv-x="2048" d="M283 741q0 154 54 285t163 240t240.5 164t283.5 55t283.5 -55t240.5 -164t163 -240t54 -285q0 -152 -54 -282.5t-163 -239.5t-240.5 -164t-283.5 -55t-283.5 55t-240.5 164t-163 239.5t-54 282.5zM383 741q0 -129 48 -242.5t142 -207.5t207 -141.5t244 -47.5 q132 0 245.5 47.5t207.5 141.5q93 93 139.5 206t46.5 244q0 133 -47 246.5t-139 206.5q-94 94 -207.5 141t-245.5 47q-131 0 -244 -47t-207 -141t-142 -208.5t-48 -244.5zM719 338v836h285q176 0 263 -59.5t87 -180.5q0 -86 -52.5 -142t-148.5 -73q24 -8 57.5 -46.5 t79.5 -111.5l137 -223h-172l-129 209q-59 96 -95.5 121.5t-90.5 25.5h-66v-356h-155zM874 795h123q110 0 153.5 31t43.5 106q0 76 -44 107.5t-153 31.5h-123v-276z" />
<glyph unicode="&#xaf;" horiz-adv-x="1024" d="M381 1378l29 148h598l-29 -148h-598z" />
<glyph unicode="&#xb0;" horiz-adv-x="1024" d="M195 1200q0 134 92 227t225 93q64 0 123 -24.5t102 -70.5q46 -45 69 -102t23 -123q0 -132 -92.5 -223.5t-226.5 -91.5q-135 0 -225 90t-90 225zM322 1200q0 -79 55 -133.5t135 -54.5t135 54.5t55 133.5t-55.5 135t-134.5 56q-80 0 -135 -55.5t-55 -135.5z" />
<glyph unicode="&#xb1;" d="M217 0v170h1282v-170h-1282zM217 727v170h557v387h168v-387h557v-170h-557v-387h-168v387h-557z" />
<glyph unicode="&#xb2;" horiz-adv-x="821" d="M74 668l22 110l422 340q59 46 88 89t29 83q0 54 -42 87.5t-112 33.5q-55 0 -121 -17t-149 -53l25 123q76 28 144 42t132 14q123 0 199.5 -57t76.5 -146q0 -62 -32 -118.5t-97 -108.5l-385 -308h441l-23 -114h-618z" />
<glyph unicode="&#xb3;" horiz-adv-x="821" d="M33 694l24 121q53 -27 109 -40t119 -13q123 0 192.5 46t69.5 128q0 62 -48.5 93.5t-146.5 31.5h-86l23 108h92q102 0 159.5 36t57.5 100q0 53 -41 79.5t-123 26.5q-56 0 -118 -10.5t-123 -30.5l22 115q83 18 146 26.5t118 8.5q125 0 200 -52.5t75 -138.5q0 -77 -57 -134 t-154 -75q75 -16 115 -63t40 -119q0 -127 -111.5 -206t-295.5 -79q-64 0 -129 10.5t-129 30.5z" />
<glyph unicode="&#xb4;" horiz-adv-x="1024" d="M516 1262l354 376h199l-399 -376h-154z" />
<glyph unicode="&#xb5;" horiz-adv-x="1303" d="M-27 -426l301 1546h185l-136 -697q-4 -21 -7 -47t-3 -52q0 -93 58.5 -143t167.5 -50q148 0 239 84t123 252l127 653h184l-167 -861q-4 -19 -5.5 -33t-1.5 -25q0 -31 12.5 -45.5t39.5 -14.5q10 0 27.5 5t49.5 18l-28 -148q-44 -22 -84 -33.5t-78 -11.5q-66 0 -103.5 42 t-37.5 116q-56 -80 -133.5 -119t-182.5 -39q-93 0 -162.5 43t-91.5 113l-108 -553h-185z" />
<glyph unicode="&#xb6;" horiz-adv-x="1303" d="M160 1001q0 211 172 351.5t436 140.5h406l-328 -1690h-139l305 1567h-191l-305 -1567h-141l164 846q-178 6 -278.5 100t-100.5 252z" />
<glyph unicode="&#xb7;" horiz-adv-x="651" d="M233 584l50 254h211l-50 -254h-211z" />
<glyph unicode="&#xb8;" horiz-adv-x="1024" d="M100 -371l23 131q39 -16 78.5 -24t81.5 -8q60 0 95.5 30.5t35.5 83.5q0 29 -12.5 65t-43.5 93h119q36 -51 53 -94.5t17 -85.5q0 -100 -73.5 -157.5t-201.5 -57.5q-43 0 -86 6t-86 18z" />
<glyph unicode="&#xb9;" horiz-adv-x="821" d="M135 668l21 110h204l119 611l-229 -41l22 116l230 39h145l-141 -725h205l-23 -110h-553z" />
<glyph unicode="&#xba;" horiz-adv-x="965" d="M82 469l22 123h689l-23 -123h-688zM152 1032q0 68 19 134.5t56 129.5q62 106 166 165t228 59q148 0 236.5 -86t88.5 -230q0 -220 -133 -363t-336 -143q-150 0 -237.5 90t-87.5 244zM307 1040q0 -109 49.5 -168t141.5 -59q122 0 206 105.5t84 261.5q0 110 -49.5 167.5 t-146.5 57.5q-116 0 -200.5 -107t-84.5 -258z" />
<glyph unicode="&#xbb;" horiz-adv-x="1264" d="M127 141l39 201l352 270l-250 267l37 180l385 -418l-14 -82zM569 141l39 201l355 270l-252 267l39 180l385 -418l-15 -82z" />
<glyph unicode="&#xbc;" horiz-adv-x="1985" d="M135 668l21 110h204l119 611l-229 -41l22 116l230 39h145l-141 -725h205l-23 -110h-553zM284 -29l1235 1549h179l-1233 -1549h-181zM1247 186l25 131l493 518h166l-106 -540h137l-21 -109h-137l-37 -186h-141l37 186h-416zM1372 295h311l82 415z" />
<glyph unicode="&#xbd;" horiz-adv-x="1985" d="M135 668l21 110h204l119 611l-229 -41l22 116l230 39h145l-141 -725h205l-23 -110h-553zM284 -29l1235 1549h179l-1233 -1549h-181zM1237 0l22 110l422 340q59 46 88 89t29 83q0 54 -42 87.5t-112 33.5q-55 0 -121 -17t-149 -53l25 123q76 28 144 42t132 14 q123 0 199.5 -57t76.5 -146q0 -62 -32 -118.5t-97 -108.5l-385 -308h441l-23 -114h-618z" />
<glyph unicode="&#xbe;" horiz-adv-x="1985" d="M33 694l24 121q53 -27 109 -40t119 -13q123 0 192.5 46t69.5 128q0 62 -48.5 93.5t-146.5 31.5h-86l23 108h92q102 0 159.5 36t57.5 100q0 53 -41 79.5t-123 26.5q-56 0 -118 -10.5t-123 -30.5l22 115q83 18 146 26.5t118 8.5q125 0 200 -52.5t75 -138.5q0 -77 -57 -134 t-154 -75q75 -16 115 -63t40 -119q0 -127 -111.5 -206t-295.5 -79q-64 0 -129 10.5t-129 30.5zM284 -29l1235 1549h179l-1233 -1549h-181zM1247 186l25 131l493 518h166l-106 -540h137l-21 -109h-137l-37 -186h-141l37 186h-416zM1372 295h311l82 415z" />
<glyph unicode="&#xbf;" horiz-adv-x="1087" d="M76 252q0 103 53.5 193t173.5 188l103 84q85 68 113.5 115t45.5 137l25 123h190l-30 -154q-19 -94 -58 -159.5t-149 -157.5l-107 -89q-84 -70 -117.5 -123t-33.5 -110q0 -76 54.5 -119t149.5 -43q81 0 179 35.5t202 101.5l-36 -188q-103 -57 -204 -85t-208 -28 q-161 0 -253.5 75t-92.5 204zM612 1239l50 254h202l-49 -254h-203z" />
<glyph unicode="&#xc0;" horiz-adv-x="1401" d="M-109 0l863 1493h229l277 -1493h-211l-62 383h-672l-211 -383h-213zM408 551h548l-129 743zM682 1899h182l148 -264h-140z" />
<glyph unicode="&#xc1;" horiz-adv-x="1401" d="M-109 0l863 1493h229l277 -1493h-211l-62 383h-672l-211 -383h-213zM408 551h548l-129 743zM733 1635l258 264h207l-307 -264h-158z" />
<glyph unicode="&#xc2;" horiz-adv-x="1401" d="M-109 0l863 1493h229l277 -1493h-211l-62 383h-672l-211 -383h-213zM408 551h548l-129 743zM555 1635l262 266h215l158 -266h-135l-140 178l-209 -178h-151z" />
<glyph unicode="&#xc3;" horiz-adv-x="1401" d="M-109 0l863 1493h229l277 -1493h-211l-62 383h-672l-211 -383h-213zM408 551h548l-129 743zM549 1667q35 109 96.5 164t146.5 55q35 0 65.5 -11t66.5 -36l32 -26q18 -14 37 -20.5t39 -6.5q39 0 67.5 27t39.5 73h125q-33 -109 -95.5 -164t-154.5 -55q-31 0 -58.5 10.5 t-58.5 32.5l-35 25l-1 1q-43 32 -81 32q-34 0 -61 -25.5t-45 -75.5h-125z" />
<glyph unicode="&#xc4;" horiz-adv-x="1401" d="M-109 0l863 1493h229l277 -1493h-211l-62 383h-672l-211 -383h-213zM408 551h548l-129 743zM584 1667l39 203h204l-41 -203h-202zM975 1667l39 203h202l-38 -203h-203z" />
<glyph unicode="&#xc5;" horiz-adv-x="1401" d="M-109 0l814 1407q-54 37 -82.5 93.5t-28.5 125.5q0 114 80 194.5t194 80.5t194.5 -80.5t80.5 -194.5q0 -79 -36.5 -140t-105.5 -97l259 -1389h-211l-62 383h-672l-211 -383h-213zM408 551h548l-129 743zM717 1626q0 -63 43.5 -107t107.5 -44q63 0 107.5 44t44.5 107 t-44.5 107.5t-107.5 44.5q-64 0 -107.5 -43.5t-43.5 -108.5z" />
<glyph unicode="&#xc6;" horiz-adv-x="1995" d="M-92 0l915 1493h1213l-33 -170h-741l-88 -442h712l-33 -170h-712l-105 -541h760l-33 -170h-962l73 383h-526l-235 -383h-205zM449 551h458l154 784h-129z" />
<glyph unicode="&#xc7;" horiz-adv-x="1430" d="M86 561q0 178 61.5 350t176.5 314q122 151 278.5 223t364.5 72q128 0 242.5 -35.5t213.5 -106.5l-41 -213q-96 97 -203.5 144t-232.5 47q-171 0 -300.5 -82t-223.5 -250q-60 -108 -91.5 -228.5t-31.5 -242.5q0 -204 105.5 -311t306.5 -107q139 0 267 44.5t249 133.5 l-47 -239q-119 -51 -240.5 -77t-243.5 -26q-287 0 -448.5 156t-161.5 434zM370 -371l23 131q39 -16 78.5 -24t81.5 -8q60 0 95.5 30.5t35.5 83.5q0 29 -12.5 65t-43.5 93h119q36 -51 53 -94.5t17 -85.5q0 -100 -73.5 -157.5t-201.5 -57.5q-43 0 -86 6t-86 18z" />
<glyph unicode="&#xc8;" horiz-adv-x="1294" d="M55 0l291 1493h944l-33 -170h-743l-86 -442h713l-33 -170h-713l-104 -541h760l-33 -170h-963zM625 1899h182l148 -264h-140z" />
<glyph unicode="&#xc9;" horiz-adv-x="1294" d="M55 0l291 1493h944l-33 -170h-743l-86 -442h713l-33 -170h-713l-104 -541h760l-33 -170h-963zM676 1635l258 264h207l-307 -264h-158z" />
<glyph unicode="&#xca;" horiz-adv-x="1294" d="M55 0l291 1493h944l-33 -170h-743l-86 -442h713l-33 -170h-713l-104 -541h760l-33 -170h-963zM498 1635l262 266h215l158 -266h-135l-140 178l-209 -178h-151z" />
<glyph unicode="&#xcb;" horiz-adv-x="1294" d="M55 0l291 1493h944l-33 -170h-743l-86 -442h713l-33 -170h-713l-104 -541h760l-33 -170h-963zM527 1667l39 203h204l-41 -203h-202zM918 1667l39 203h202l-38 -203h-203z" />
<glyph unicode="&#xcc;" horiz-adv-x="604" d="M55 0l291 1493h203l-291 -1493h-203zM268 1899h182l148 -264h-140z" />
<glyph unicode="&#xcd;" horiz-adv-x="604" d="M55 0l291 1493h203l-291 -1493h-203zM319 1635l258 264h207l-307 -264h-158z" />
<glyph unicode="&#xce;" horiz-adv-x="604" d="M55 0l291 1493h203l-291 -1493h-203zM141 1635l262 266h215l158 -266h-135l-140 178l-209 -178h-151z" />
<glyph unicode="&#xcf;" horiz-adv-x="604" d="M55 0l291 1493h203l-291 -1493h-203zM170 1667l39 203h204l-41 -203h-202zM561 1667l39 203h202l-38 -203h-203z" />
<glyph unicode="&#xd0;" horiz-adv-x="1587" d="M0 700l29 144h200l127 649h435q345 0 521.5 -146.5t176.5 -435.5q0 -190 -67.5 -366.5t-186.5 -298.5q-119 -124 -301 -185t-432 -61h-436l135 700h-201zM301 166h264q340 0 525.5 195t185.5 550q0 215 -120 315.5t-376 100.5h-254l-94 -483h336l-29 -144h-336z" />
<glyph unicode="&#xd1;" horiz-adv-x="1532" d="M55 0l291 1493h272l412 -1280l250 1280h197l-291 -1493h-273l-411 1288l-250 -1288h-197zM586 1667q35 109 96.5 164t146.5 55q35 0 65.5 -11t66.5 -36l32 -26q18 -14 37 -20.5t39 -6.5q39 0 67.5 27t39.5 73h125q-33 -109 -95.5 -164t-154.5 -55q-31 0 -58.5 10.5 t-58.5 32.5l-35 25l-1 1q-43 32 -81 32q-34 0 -61 -25.5t-45 -75.5h-125z" />
<glyph unicode="&#xd2;" horiz-adv-x="1612" d="M82 580q0 162 61.5 331t169.5 301q127 155 283 231.5t344 76.5q274 0 432 -161.5t158 -440.5q0 -172 -60 -338t-172 -301q-128 -156 -282.5 -232t-343.5 -76q-275 0 -432.5 163t-157.5 446zM297 569q0 -208 99.5 -321t281.5 -113q164 0 292.5 81.5t219.5 242.5 q61 108 93 226.5t32 236.5q0 207 -100 320.5t-281 113.5q-166 0 -293 -80.5t-221 -245.5q-60 -105 -91.5 -223t-31.5 -238zM805 1899h182l148 -264h-140z" />
<glyph unicode="&#xd3;" horiz-adv-x="1612" d="M82 580q0 162 61.5 331t169.5 301q127 155 283 231.5t344 76.5q274 0 432 -161.5t158 -440.5q0 -172 -60 -338t-172 -301q-128 -156 -282.5 -232t-343.5 -76q-275 0 -432.5 163t-157.5 446zM297 569q0 -208 99.5 -321t281.5 -113q164 0 292.5 81.5t219.5 242.5 q61 108 93 226.5t32 236.5q0 207 -100 320.5t-281 113.5q-166 0 -293 -80.5t-221 -245.5q-60 -105 -91.5 -223t-31.5 -238zM856 1635l258 264h207l-307 -264h-158z" />
<glyph unicode="&#xd4;" horiz-adv-x="1612" d="M82 580q0 162 61.5 331t169.5 301q127 155 283 231.5t344 76.5q274 0 432 -161.5t158 -440.5q0 -172 -60 -338t-172 -301q-128 -156 -282.5 -232t-343.5 -76q-275 0 -432.5 163t-157.5 446zM297 569q0 -208 99.5 -321t281.5 -113q164 0 292.5 81.5t219.5 242.5 q61 108 93 226.5t32 236.5q0 207 -100 320.5t-281 113.5q-166 0 -293 -80.5t-221 -245.5q-60 -105 -91.5 -223t-31.5 -238zM678 1635l262 266h215l158 -266h-135l-140 178l-209 -178h-151z" />
<glyph unicode="&#xd5;" horiz-adv-x="1612" d="M82 580q0 162 61.5 331t169.5 301q127 155 283 231.5t344 76.5q274 0 432 -161.5t158 -440.5q0 -172 -60 -338t-172 -301q-128 -156 -282.5 -232t-343.5 -76q-275 0 -432.5 163t-157.5 446zM297 569q0 -208 99.5 -321t281.5 -113q164 0 292.5 81.5t219.5 242.5 q61 108 93 226.5t32 236.5q0 207 -100 320.5t-281 113.5q-166 0 -293 -80.5t-221 -245.5q-60 -105 -91.5 -223t-31.5 -238zM672 1667q35 109 96.5 164t146.5 55q35 0 65.5 -11t66.5 -36l32 -26q18 -14 37 -20.5t39 -6.5q39 0 67.5 27t39.5 73h125q-33 -109 -95.5 -164 t-154.5 -55q-31 0 -58.5 10.5t-58.5 32.5l-35 25l-1 1q-43 32 -81 32q-34 0 -61 -25.5t-45 -75.5h-125z" />
<glyph unicode="&#xd6;" horiz-adv-x="1612" d="M82 580q0 162 61.5 331t169.5 301q127 155 283 231.5t344 76.5q274 0 432 -161.5t158 -440.5q0 -172 -60 -338t-172 -301q-128 -156 -282.5 -232t-343.5 -76q-275 0 -432.5 163t-157.5 446zM297 569q0 -208 99.5 -321t281.5 -113q164 0 292.5 81.5t219.5 242.5 q61 108 93 226.5t32 236.5q0 207 -100 320.5t-281 113.5q-166 0 -293 -80.5t-221 -245.5q-60 -105 -91.5 -223t-31.5 -238zM707 1667l39 203h204l-41 -203h-202zM1098 1667l39 203h202l-38 -203h-203z" />
<glyph unicode="&#xd7;" d="M281 184l456 457l-456 459l118 121l459 -459l459 459l119 -121l-457 -459l457 -457l-119 -121l-459 459l-459 -459z" />
<glyph unicode="&#xd8;" horiz-adv-x="1612" d="M-70 33l230 213q-39 80 -58.5 162t-19.5 167q0 166 61 334t170 303q125 154 281.5 231t345.5 77q130 0 235 -38.5t189 -115.5l203 193l90 -99l-209 -198q40 -73 60 -157.5t20 -182.5q0 -177 -59 -342.5t-171 -300.5q-128 -156 -282.5 -232t-343.5 -76q-139 0 -247.5 42 t-184.5 124l-220 -203zM295 571q0 -45 6 -88.5t18 -87.5l904 840q-45 60 -118 90.5t-171 30.5q-165 0 -292.5 -81t-219.5 -243q-62 -109 -94.5 -228t-32.5 -233zM381 270q51 -68 124.5 -101.5t172.5 -33.5q164 0 292.5 81.5t219.5 242.5q62 112 93.5 229.5t31.5 239.5 q0 56 -6.5 102.5t-20.5 85.5z" />
<glyph unicode="&#xd9;" horiz-adv-x="1499" d="M119 389q0 35 5 78.5t15 93.5l178 932h203l-176 -907q-11 -61 -15.5 -100.5t-4.5 -69.5q0 -138 77 -209.5t226 -71.5q193 0 300.5 106t153.5 345l176 907h203l-180 -932q-59 -302 -224 -446t-452 -144q-224 0 -354.5 112.5t-130.5 305.5zM715 1899h182l148 -264h-140z " />
<glyph unicode="&#xda;" horiz-adv-x="1499" d="M119 389q0 35 5 78.5t15 93.5l178 932h203l-176 -907q-11 -61 -15.5 -100.5t-4.5 -69.5q0 -138 77 -209.5t226 -71.5q193 0 300.5 106t153.5 345l176 907h203l-180 -932q-59 -302 -224 -446t-452 -144q-224 0 -354.5 112.5t-130.5 305.5zM766 1635l258 264h207l-307 -264 h-158z" />
<glyph unicode="&#xdb;" horiz-adv-x="1499" d="M119 389q0 35 5 78.5t15 93.5l178 932h203l-176 -907q-11 -61 -15.5 -100.5t-4.5 -69.5q0 -138 77 -209.5t226 -71.5q193 0 300.5 106t153.5 345l176 907h203l-180 -932q-59 -302 -224 -446t-452 -144q-224 0 -354.5 112.5t-130.5 305.5zM588 1635l262 266h215l158 -266 h-135l-140 178l-209 -178h-151z" />
<glyph unicode="&#xdc;" horiz-adv-x="1499" d="M119 389q0 35 5 78.5t15 93.5l178 932h203l-176 -907q-11 -61 -15.5 -100.5t-4.5 -69.5q0 -138 77 -209.5t226 -71.5q193 0 300.5 106t153.5 345l176 907h203l-180 -932q-59 -302 -224 -446t-452 -144q-224 0 -354.5 112.5t-130.5 305.5zM617 1667l39 203h204l-41 -203 h-202zM1008 1667l39 203h202l-38 -203h-203z" />
<glyph unicode="&#xdd;" horiz-adv-x="1251" d="M129 1493h217l279 -614l532 614h227l-677 -782l-138 -711h-202l137 711zM643 1635l258 264h207l-307 -264h-158z" />
<glyph unicode="&#xde;" horiz-adv-x="1245" d="M55 0l291 1493h203l-51 -264h266q204 0 311 -95t107 -278q0 -246 -158 -382t-444 -136h-256l-66 -338h-203zM358 504h254q172 0 264.5 87.5t92.5 252.5q0 104 -62 161.5t-176 57.5h-264z" />
<glyph unicode="&#xdf;" horiz-adv-x="1290" d="M96 0l221 1137q38 197 170.5 308t329.5 111q174 0 282.5 -93t108.5 -240q0 -25 -3 -55.5t-9 -67.5q-162 -8 -262 -75.5t-100 -164.5q0 -40 21 -76t69 -73l49 -39q119 -94 160 -159.5t41 -145.5q0 -172 -139 -284t-357 -112q-76 0 -146 12.5t-133 36.5l31 164 q65 -29 134.5 -44t140.5 -15q124 0 201 57t77 148q0 45 -23.5 84t-101.5 106l-51 43q-97 82 -130.5 137.5t-33.5 122.5q0 126 106 227t279 138q2 8 3 18t1 29q0 78 -56.5 123t-156.5 45q-133 0 -213 -68t-106 -202l-219 -1133h-185z" />
<glyph unicode="&#xe0;" horiz-adv-x="1255" d="M84 283q0 196 156.5 310t431.5 114h256l10 49q2 8 3 17.5t1 29.5q0 89 -72.5 138.5t-203.5 49.5q-90 0 -184.5 -23t-194.5 -69l32 170q104 39 203.5 58.5t192.5 19.5q198 0 301.5 -86t103.5 -250q0 -33 -5 -77.5t-15 -94.5l-125 -639h-184l34 170q-81 -100 -184.5 -149.5 t-230.5 -49.5q-143 0 -234.5 87.5t-91.5 224.5zM274 315q0 -88 55.5 -138t153.5 -50q150 0 262 107.5t148 287.5l8 41h-184q-226 0 -334.5 -60.5t-108.5 -187.5zM489 1638h197l209 -374h-154z" />
<glyph unicode="&#xe1;" horiz-adv-x="1255" d="M84 283q0 196 156.5 310t431.5 114h256l10 49q2 8 3 17.5t1 29.5q0 89 -72.5 138.5t-203.5 49.5q-90 0 -184.5 -23t-194.5 -69l32 170q104 39 203.5 58.5t192.5 19.5q198 0 301.5 -86t103.5 -250q0 -33 -5 -77.5t-15 -94.5l-125 -639h-184l34 170q-81 -100 -184.5 -149.5 t-230.5 -49.5q-143 0 -234.5 87.5t-91.5 224.5zM274 315q0 -88 55.5 -138t153.5 -50q150 0 262 107.5t148 287.5l8 41h-184q-226 0 -334.5 -60.5t-108.5 -187.5zM616 1262l354 376h199l-399 -376h-154z" />
<glyph unicode="&#xe2;" horiz-adv-x="1255" d="M84 283q0 196 156.5 310t431.5 114h256l10 49q2 8 3 17.5t1 29.5q0 89 -72.5 138.5t-203.5 49.5q-90 0 -184.5 -23t-194.5 -69l32 170q104 39 203.5 58.5t192.5 19.5q198 0 301.5 -86t103.5 -250q0 -33 -5 -77.5t-15 -94.5l-125 -639h-184l34 170q-81 -100 -184.5 -149.5 t-230.5 -49.5q-143 0 -234.5 87.5t-91.5 224.5zM274 315q0 -88 55.5 -138t153.5 -50q150 0 262 107.5t148 287.5l8 41h-184q-226 0 -334.5 -60.5t-108.5 -187.5zM438 1262l319 376h148l172 -376h-139l-127 237l-234 -237h-139z" />
<glyph unicode="&#xe3;" horiz-adv-x="1255" d="M84 283q0 196 156.5 310t431.5 114h256l10 49q2 8 3 17.5t1 29.5q0 89 -72.5 138.5t-203.5 49.5q-90 0 -184.5 -23t-194.5 -69l32 170q104 39 203.5 58.5t192.5 19.5q198 0 301.5 -86t103.5 -250q0 -33 -5 -77.5t-15 -94.5l-125 -639h-184l34 170q-81 -100 -184.5 -149.5 t-230.5 -49.5q-143 0 -234.5 87.5t-91.5 224.5zM274 315q0 -88 55.5 -138t153.5 -50q150 0 262 107.5t148 287.5l8 41h-184q-226 0 -334.5 -60.5t-108.5 -187.5zM436 1309q30 137 94.5 209.5t155.5 72.5q37 0 69 -15.5t58 -45.5l47 -55q12 -16 26 -25t33 -14q38 0 62.5 35.5 t44.5 119.5h125q-29 -137 -93.5 -209.5t-156.5 -72.5q-38 0 -71 15.5t-56 45.5l-45 55q-13 16 -29 26t-32 13q-39 0 -64.5 -36.5t-42.5 -118.5h-125z" />
<glyph unicode="&#xe4;" horiz-adv-x="1255" d="M84 283q0 196 156.5 310t431.5 114h256l10 49q2 8 3 17.5t1 29.5q0 89 -72.5 138.5t-203.5 49.5q-90 0 -184.5 -23t-194.5 -69l32 170q104 39 203.5 58.5t192.5 19.5q198 0 301.5 -86t103.5 -250q0 -33 -5 -77.5t-15 -94.5l-125 -639h-184l34 170q-81 -100 -184.5 -149.5 t-230.5 -49.5q-143 0 -234.5 87.5t-91.5 224.5zM274 315q0 -88 55.5 -138t153.5 -50q150 0 262 107.5t148 287.5l8 41h-184q-226 0 -334.5 -60.5t-108.5 -187.5zM477 1350l39 202h205l-41 -202h-203zM868 1350l39 202h203l-39 -202h-203z" />
<glyph unicode="&#xe5;" horiz-adv-x="1255" d="M84 283q0 196 156.5 310t431.5 114h256l10 49q2 8 3 17.5t1 29.5q0 89 -72.5 138.5t-203.5 49.5q-90 0 -184.5 -23t-194.5 -69l32 170q104 39 203.5 58.5t192.5 19.5q198 0 301.5 -86t103.5 -250q0 -33 -5 -77.5t-15 -94.5l-125 -639h-184l34 170q-81 -100 -184.5 -149.5 t-230.5 -49.5q-143 0 -234.5 87.5t-91.5 224.5zM274 315q0 -88 55.5 -138t153.5 -50q150 0 262 107.5t148 287.5l8 41h-184q-226 0 -334.5 -60.5t-108.5 -187.5zM528 1524q0 116 79.5 195t194.5 79q116 0 195.5 -79t79.5 -195q0 -115 -79.5 -195t-195.5 -80 q-115 0 -194.5 80t-79.5 195zM651 1524q0 -66 42.5 -109t108.5 -43q67 0 109.5 43t42.5 109q0 64 -43.5 107.5t-108.5 43.5q-66 0 -108.5 -42.5t-42.5 -108.5z" />
<glyph unicode="&#xe6;" horiz-adv-x="2038" d="M84 283q0 196 156.5 310t431.5 114h256l10 49q2 8 3 17.5t1 29.5q0 89 -72.5 138.5t-203.5 49.5q-90 0 -184.5 -23t-194.5 -69l32 170q104 39 203.5 58.5t192.5 19.5q144 0 237 -45t138 -137q86 90 198 136t244 46q190 0 303 -114t113 -306q0 -46 -6.5 -98.5 t-18.5 -112.5h-856q-6 -38 -8 -60t-2 -38q0 -139 85.5 -215t241.5 -76q120 0 227.5 27t198.5 79l-34 -182q-100 -40 -205.5 -60t-214.5 -20q-168 0 -281.5 57.5t-169.5 170.5q-102 -118 -212 -173t-242 -55q-174 0 -270.5 82t-96.5 230zM274 315q0 -88 55.5 -138t153.5 -50 q150 0 262 107.5t148 287.5l8 41h-184q-226 0 -334.5 -60.5t-108.5 -187.5zM1102 659l661 1q3 16 4.5 33t1.5 34q0 122 -71 193t-195 71q-137 0 -242 -86.5t-159 -245.5z" />
<glyph unicode="&#xe7;" horiz-adv-x="1126" d="M94 401q0 174 62.5 320.5t185.5 263.5q84 80 197 121t247 41q78 0 155 -17.5t157 -52.5l-37 -182q-66 48 -140.5 72t-154.5 24q-88 0 -167.5 -31t-133.5 -88q-86 -87 -133 -204t-47 -242q0 -151 75.5 -225t229.5 -74q76 0 161.5 23t178.5 69l-35 -182 q-80 -33 -164.5 -49.5t-173.5 -16.5q-223 0 -343 111.5t-120 318.5zM219 -371l23 131q39 -16 78.5 -24t81.5 -8q60 0 95.5 30.5t35.5 83.5q0 29 -12.5 65t-43.5 93h119q36 -51 53 -94.5t17 -85.5q0 -100 -73.5 -157.5t-201.5 -57.5q-43 0 -86 6t-86 18z" />
<glyph unicode="&#xe8;" horiz-adv-x="1260" d="M94 399q0 175 62.5 325.5t183.5 268.5q78 74 185.5 114t228.5 40q190 0 302.5 -114t112.5 -306q0 -46 -6 -98.5t-18 -112.5h-856q-6 -38 -8 -60t-2 -38q0 -139 85.5 -215t241.5 -76q120 0 227 27t199 79l-35 -182q-99 -40 -204.5 -60t-214.5 -20q-233 0 -358.5 111.5 t-125.5 316.5zM324 659l661 1q3 16 4.5 33t1.5 34q0 122 -71.5 193t-194.5 71q-137 0 -242 -86.5t-159 -245.5zM500 1638h197l209 -374h-154z" />
<glyph unicode="&#xe9;" horiz-adv-x="1260" d="M94 399q0 175 62.5 325.5t183.5 268.5q78 74 185.5 114t228.5 40q190 0 302.5 -114t112.5 -306q0 -46 -6 -98.5t-18 -112.5h-856q-6 -38 -8 -60t-2 -38q0 -139 85.5 -215t241.5 -76q120 0 227 27t199 79l-35 -182q-99 -40 -204.5 -60t-214.5 -20q-233 0 -358.5 111.5 t-125.5 316.5zM324 659l661 1q3 16 4.5 33t1.5 34q0 122 -71.5 193t-194.5 71q-137 0 -242 -86.5t-159 -245.5zM627 1262l354 376h199l-399 -376h-154z" />
<glyph unicode="&#xea;" horiz-adv-x="1260" d="M94 399q0 175 62.5 325.5t183.5 268.5q78 74 185.5 114t228.5 40q190 0 302.5 -114t112.5 -306q0 -46 -6 -98.5t-18 -112.5h-856q-6 -38 -8 -60t-2 -38q0 -139 85.5 -215t241.5 -76q120 0 227 27t199 79l-35 -182q-99 -40 -204.5 -60t-214.5 -20q-233 0 -358.5 111.5 t-125.5 316.5zM324 659l661 1q3 16 4.5 33t1.5 34q0 122 -71.5 193t-194.5 71q-137 0 -242 -86.5t-159 -245.5zM449 1262l319 376h148l172 -376h-139l-127 237l-234 -237h-139z" />
<glyph unicode="&#xeb;" horiz-adv-x="1260" d="M94 399q0 175 62.5 325.5t183.5 268.5q78 74 185.5 114t228.5 40q190 0 302.5 -114t112.5 -306q0 -46 -6 -98.5t-18 -112.5h-856q-6 -38 -8 -60t-2 -38q0 -139 85.5 -215t241.5 -76q120 0 227 27t199 79l-35 -182q-99 -40 -204.5 -60t-214.5 -20q-233 0 -358.5 111.5 t-125.5 316.5zM324 659l661 1q3 16 4.5 33t1.5 34q0 122 -71.5 193t-194.5 71q-137 0 -242 -86.5t-159 -245.5zM488 1350l39 202h205l-41 -202h-203zM879 1350l39 202h203l-39 -202h-203z" />
<glyph unicode="&#xec;" horiz-adv-x="569" d="M72 0l219 1120h184l-219 -1120h-184zM131 1638h197l209 -374h-154z" />
<glyph unicode="&#xed;" horiz-adv-x="569" d="M72 0l219 1120h184l-219 -1120h-184zM258 1262l354 376h199l-399 -376h-154z" />
<glyph unicode="&#xee;" horiz-adv-x="569" d="M72 0l219 1120h184l-219 -1120h-184zM80 1262l319 376h148l172 -376h-139l-127 237l-234 -237h-139z" />
<glyph unicode="&#xef;" horiz-adv-x="569" d="M72 0l219 1120h184l-219 -1120h-184zM119 1350l39 202h205l-41 -202h-203zM510 1350l39 202h203l-39 -202h-203z" />
<glyph unicode="&#xf0;" horiz-adv-x="1253" d="M92 401q0 120 41 238t117 219q88 116 209 178t260 62q20 0 49 -2.5t69 -7.5l-124 180l-351 -107l-32 94l327 97l-139 204h217l96 -145l336 109l35 -95l-313 -98l127 -186q68 -102 102.5 -212.5t34.5 -228.5q0 -136 -39.5 -262.5t-114.5 -226.5q-84 -116 -206.5 -178 t-266.5 -62q-198 0 -316 117.5t-118 312.5zM283 408q0 -138 65.5 -209.5t192.5 -71.5q182 0 304 161.5t122 405.5q0 68 -13 122t-41 99q-43 17 -86.5 25t-87.5 8q-202 0 -329 -150.5t-127 -389.5z" />
<glyph unicode="&#xf1;" horiz-adv-x="1298" d="M72 0l217 1120h184l-37 -176q77 97 185 150t227 53q148 0 229.5 -80t81.5 -225q0 -36 -4.5 -77t-13.5 -89l-131 -676h-185l131 669q9 47 14 83t5 57q0 84 -53 131t-148 47q-148 0 -255 -98.5t-140 -267.5l-123 -621h-184zM473 1309q30 137 94.5 209.5t155.5 72.5 q37 0 69 -15.5t58 -45.5l47 -55q12 -16 26 -25t33 -14q38 0 62.5 35.5t44.5 119.5h125q-29 -137 -93.5 -209.5t-156.5 -72.5q-38 0 -71 15.5t-56 45.5l-45 55q-13 16 -29 26t-32 13q-39 0 -64.5 -36.5t-42.5 -118.5h-125z" />
<glyph unicode="&#xf2;" horiz-adv-x="1253" d="M94 424q0 122 39.5 248.5t102.5 212.5q99 134 221 198t276 64q191 0 308.5 -119t117.5 -311q0 -133 -39 -265t-102 -219q-98 -134 -220 -198t-278 -64q-197 0 -311.5 121.5t-114.5 331.5zM285 430q0 -152 63.5 -227.5t192.5 -75.5q185 0 306.5 161.5t121.5 409.5 q0 145 -65 219t-191 74q-104 0 -185 -48.5t-145 -147.5q-47 -74 -72.5 -169t-25.5 -196zM504 1638h197l209 -374h-154z" />
<glyph unicode="&#xf3;" horiz-adv-x="1253" d="M94 424q0 122 39.5 248.5t102.5 212.5q99 134 221 198t276 64q191 0 308.5 -119t117.5 -311q0 -133 -39 -265t-102 -219q-98 -134 -220 -198t-278 -64q-197 0 -311.5 121.5t-114.5 331.5zM285 430q0 -152 63.5 -227.5t192.5 -75.5q185 0 306.5 161.5t121.5 409.5 q0 145 -65 219t-191 74q-104 0 -185 -48.5t-145 -147.5q-47 -74 -72.5 -169t-25.5 -196zM631 1262l354 376h199l-399 -376h-154z" />
<glyph unicode="&#xf4;" horiz-adv-x="1253" d="M94 424q0 122 39.5 248.5t102.5 212.5q99 134 221 198t276 64q191 0 308.5 -119t117.5 -311q0 -133 -39 -265t-102 -219q-98 -134 -220 -198t-278 -64q-197 0 -311.5 121.5t-114.5 331.5zM285 430q0 -152 63.5 -227.5t192.5 -75.5q185 0 306.5 161.5t121.5 409.5 q0 145 -65 219t-191 74q-104 0 -185 -48.5t-145 -147.5q-47 -74 -72.5 -169t-25.5 -196zM453 1262l319 376h148l172 -376h-139l-127 237l-234 -237h-139z" />
<glyph unicode="&#xf5;" horiz-adv-x="1253" d="M94 424q0 122 39.5 248.5t102.5 212.5q99 134 221 198t276 64q191 0 308.5 -119t117.5 -311q0 -133 -39 -265t-102 -219q-98 -134 -220 -198t-278 -64q-197 0 -311.5 121.5t-114.5 331.5zM285 430q0 -152 63.5 -227.5t192.5 -75.5q185 0 306.5 161.5t121.5 409.5 q0 145 -65 219t-191 74q-104 0 -185 -48.5t-145 -147.5q-47 -74 -72.5 -169t-25.5 -196zM451 1309q30 137 94.5 209.5t155.5 72.5q37 0 69 -15.5t58 -45.5l47 -55q12 -16 26 -25t33 -14q38 0 62.5 35.5t44.5 119.5h125q-29 -137 -93.5 -209.5t-156.5 -72.5q-38 0 -71 15.5 t-56 45.5l-45 55q-13 16 -29 26t-32 13q-39 0 -64.5 -36.5t-42.5 -118.5h-125z" />
<glyph unicode="&#xf6;" horiz-adv-x="1253" d="M94 424q0 122 39.5 248.5t102.5 212.5q99 134 221 198t276 64q191 0 308.5 -119t117.5 -311q0 -133 -39 -265t-102 -219q-98 -134 -220 -198t-278 -64q-197 0 -311.5 121.5t-114.5 331.5zM285 430q0 -152 63.5 -227.5t192.5 -75.5q185 0 306.5 161.5t121.5 409.5 q0 145 -65 219t-191 74q-104 0 -185 -48.5t-145 -147.5q-47 -74 -72.5 -169t-25.5 -196zM492 1350l39 202h205l-41 -202h-203zM883 1350l39 202h203l-39 -202h-203z" />
<glyph unicode="&#xf7;" d="M217 557v170h1282v-170h-1282zM735 150v245h246v-245h-246zM735 889v246h246v-246h-246z" />
<glyph unicode="&#xf8;" horiz-adv-x="1253" d="M-29 -10l183 182q-30 49 -45 112t-15 138q0 122 39.5 249.5t102.5 213.5q98 134 219.5 198t277.5 64q87 0 161 -26t132 -77l162 164l86 -86l-172 -172q28 -55 42.5 -117.5t14.5 -130.5q0 -124 -39.5 -253.5t-101.5 -215.5q-97 -134 -218.5 -198t-279.5 -64 q-87 0 -160.5 26.5t-130.5 78.5l-172 -170zM287 420q0 -47 1.5 -67.5t6.5 -37.5l606 607q-37 35 -83.5 52t-104.5 17q-186 0 -306 -160.5t-120 -410.5zM352 199q39 -37 84.5 -54.5t104.5 -17.5q189 0 308.5 163.5t119.5 426.5q0 39 -2 58t-6 34z" />
<glyph unicode="&#xf9;" horiz-adv-x="1298" d="M117 276q0 30 5 75t15 93l131 676h185l-131 -669q-10 -49 -14.5 -84t-4.5 -58q0 -85 52 -131.5t147 -46.5q148 0 256 100t141 269l123 620h184l-217 -1120h-184l37 176q-78 -98 -185.5 -151.5t-228.5 -53.5q-147 0 -229 80.5t-82 224.5zM495 1638h197l209 -374h-154z" />
<glyph unicode="&#xfa;" horiz-adv-x="1298" d="M117 276q0 30 5 75t15 93l131 676h185l-131 -669q-10 -49 -14.5 -84t-4.5 -58q0 -85 52 -131.5t147 -46.5q148 0 256 100t141 269l123 620h184l-217 -1120h-184l37 176q-78 -98 -185.5 -151.5t-228.5 -53.5q-147 0 -229 80.5t-82 224.5zM622 1262l354 376h199l-399 -376 h-154z" />
<glyph unicode="&#xfb;" horiz-adv-x="1298" d="M117 276q0 30 5 75t15 93l131 676h185l-131 -669q-10 -49 -14.5 -84t-4.5 -58q0 -85 52 -131.5t147 -46.5q148 0 256 100t141 269l123 620h184l-217 -1120h-184l37 176q-78 -98 -185.5 -151.5t-228.5 -53.5q-147 0 -229 80.5t-82 224.5zM444 1262l319 376h148l172 -376 h-139l-127 237l-234 -237h-139z" />
<glyph unicode="&#xfc;" horiz-adv-x="1298" d="M117 276q0 30 5 75t15 93l131 676h185l-131 -669q-10 -49 -14.5 -84t-4.5 -58q0 -85 52 -131.5t147 -46.5q148 0 256 100t141 269l123 620h184l-217 -1120h-184l37 176q-78 -98 -185.5 -151.5t-228.5 -53.5q-147 0 -229 80.5t-82 224.5zM483 1350l39 202h205l-41 -202 h-203zM874 1350l39 202h203l-39 -202h-203z" />
<glyph unicode="&#xfd;" horiz-adv-x="1212" d="M-51 -426l31 154h106q77 0 131 42t121 164l57 107l-248 1079h195l186 -858l514 858h193l-727 -1224q-128 -215 -208.5 -268.5t-205.5 -53.5h-145zM610 1262l354 376h199l-399 -376h-154z" />
<glyph unicode="&#xfe;" horiz-adv-x="1300" d="M-6 -426l381 1982h184l-113 -606q74 97 174.5 147t223.5 50q172 0 267 -112.5t95 -315.5q0 -166 -59 -316.5t-170 -269.5q-74 -79 -167 -120.5t-196 -41.5q-119 0 -200 49.5t-121 147.5l-115 -594h-184zM354 416q0 -140 64 -215.5t182 -75.5q87 0 161.5 41t127.5 119 q57 82 92 193t35 212q0 147 -64 225t-184 78q-82 0 -156.5 -42t-132.5 -122q-57 -79 -91 -191t-34 -222z" />
<glyph unicode="&#xff;" horiz-adv-x="1212" d="M-51 -426l31 154h106q77 0 131 42t121 164l57 107l-248 1079h195l186 -858l514 858h193l-727 -1224q-128 -215 -208.5 -268.5t-205.5 -53.5h-145zM471 1350l39 202h205l-41 -202h-203zM862 1350l39 202h203l-39 -202h-203z" />
<glyph unicode="&#x100;" horiz-adv-x="1401" d="M-109 0l863 1493h229l277 -1493h-211l-62 383h-672l-211 -383h-213zM408 551h548l-129 743zM569 1693l29 148h598l-29 -148h-598z" />
<glyph unicode="&#x101;" horiz-adv-x="1255" d="M84 283q0 196 156.5 310t431.5 114h256l10 49q2 8 3 17.5t1 29.5q0 89 -72.5 138.5t-203.5 49.5q-90 0 -184.5 -23t-194.5 -69l32 170q104 39 203.5 58.5t192.5 19.5q198 0 301.5 -86t103.5 -250q0 -33 -5 -77.5t-15 -94.5l-125 -639h-184l34 170q-81 -100 -184.5 -149.5 t-230.5 -49.5q-143 0 -234.5 87.5t-91.5 224.5zM274 315q0 -88 55.5 -138t153.5 -50q150 0 262 107.5t148 287.5l8 41h-184q-226 0 -334.5 -60.5t-108.5 -187.5zM455 1378l29 148h598l-29 -148h-598z" />
<glyph unicode="&#x102;" horiz-adv-x="1401" d="M-109 0l863 1493h229l277 -1493h-211l-62 383h-672l-211 -383h-213zM408 551h548l-129 743zM650 1864q0 6 1 17t1 16h114v-15q0 -68 42 -101.5t128 -33.5q85 0 140 36.5t86 113.5h116q-32 -139 -127 -213t-241 -74q-128 0 -194 64.5t-66 189.5z" />
<glyph unicode="&#x103;" horiz-adv-x="1255" d="M84 283q0 196 156.5 310t431.5 114h256l10 49q2 8 3 17.5t1 29.5q0 89 -72.5 138.5t-203.5 49.5q-90 0 -184.5 -23t-194.5 -69l32 170q104 39 203.5 58.5t192.5 19.5q198 0 301.5 -86t103.5 -250q0 -33 -5 -77.5t-15 -94.5l-125 -639h-184l34 170q-81 -100 -184.5 -149.5 t-230.5 -49.5q-143 0 -234.5 87.5t-91.5 224.5zM274 315q0 -88 55.5 -138t153.5 -50q150 0 262 107.5t148 287.5l8 41h-184q-226 0 -334.5 -60.5t-108.5 -187.5zM523 1525q0 6 1 17t1 16h114v-15q0 -68 42 -101.5t128 -33.5q85 0 140 36.5t86 113.5h116q-32 -139 -127 -213 t-241 -74q-128 0 -194 64.5t-66 189.5z" />
<glyph unicode="&#x104;" horiz-adv-x="1401" d="M-109 0l863 1493h229l277 -1493h-211l-62 383h-672l-211 -383h-213zM408 551h548l-129 743zM896 -246q0 52 38.5 113.5t114.5 132.5h119q-64 -67 -95.5 -117.5t-31.5 -85.5t22.5 -52t67.5 -17q29 0 63.5 7.5t71.5 22.5l-24 -132q-37 -12 -72.5 -17.5t-66.5 -5.5 q-103 0 -155 38t-52 113z" />
<glyph unicode="&#x105;" horiz-adv-x="1255" d="M84 283q0 196 156.5 310t431.5 114h256l10 49q2 8 3 17.5t1 29.5q0 89 -72.5 138.5t-203.5 49.5q-90 0 -184.5 -23t-194.5 -69l32 170q104 39 203.5 58.5t192.5 19.5q198 0 301.5 -86t103.5 -250q0 -33 -5 -77.5t-15 -94.5l-125 -639h-184l34 170q-81 -100 -184.5 -149.5 t-230.5 -49.5q-143 0 -234.5 87.5t-91.5 224.5zM274 315q0 -88 55.5 -138t153.5 -50q150 0 262 107.5t148 287.5l8 41h-184q-226 0 -334.5 -60.5t-108.5 -187.5zM639 -246q0 52 38.5 113.5t114.5 132.5h119q-64 -67 -95.5 -117.5t-31.5 -85.5t22.5 -52t67.5 -17 q29 0 63.5 7.5t71.5 22.5l-24 -132q-37 -12 -72.5 -17.5t-66.5 -5.5q-103 0 -155 38t-52 113z" />
<glyph unicode="&#x106;" horiz-adv-x="1430" d="M86 561q0 178 61.5 350t176.5 314q122 151 278.5 223t364.5 72q128 0 242.5 -35.5t213.5 -106.5l-41 -213q-96 97 -203.5 144t-232.5 47q-171 0 -300.5 -82t-223.5 -250q-60 -108 -91.5 -228.5t-31.5 -242.5q0 -204 105.5 -311t306.5 -107q139 0 267 44.5t249 133.5 l-47 -239q-119 -51 -240.5 -77t-243.5 -26q-287 0 -448.5 156t-161.5 434zM817 1635l258 264h207l-307 -264h-158z" />
<glyph unicode="&#x107;" horiz-adv-x="1126" d="M94 401q0 174 62.5 320.5t185.5 263.5q84 80 197 121t247 41q78 0 155 -17.5t157 -52.5l-37 -182q-66 48 -140.5 72t-154.5 24q-88 0 -167.5 -31t-133.5 -88q-86 -87 -133 -204t-47 -242q0 -151 75.5 -225t229.5 -74q76 0 161.5 23t178.5 69l-35 -182 q-80 -33 -164.5 -49.5t-173.5 -16.5q-223 0 -343 111.5t-120 318.5zM635 1262l354 376h199l-399 -376h-154z" />
<glyph unicode="&#x108;" horiz-adv-x="1430" d="M86 561q0 178 61.5 350t176.5 314q122 151 278.5 223t364.5 72q128 0 242.5 -35.5t213.5 -106.5l-41 -213q-96 97 -203.5 144t-232.5 47q-171 0 -300.5 -82t-223.5 -250q-60 -108 -91.5 -228.5t-31.5 -242.5q0 -204 105.5 -311t306.5 -107q139 0 267 44.5t249 133.5 l-47 -239q-119 -51 -240.5 -77t-243.5 -26q-287 0 -448.5 156t-161.5 434zM673 1635l262 266h215l158 -266h-135l-140 178l-209 -178h-151z" />
<glyph unicode="&#x109;" horiz-adv-x="1126" d="M94 401q0 174 62.5 320.5t185.5 263.5q84 80 197 121t247 41q78 0 155 -17.5t157 -52.5l-37 -182q-66 48 -140.5 72t-154.5 24q-88 0 -167.5 -31t-133.5 -88q-86 -87 -133 -204t-47 -242q0 -151 75.5 -225t229.5 -74q76 0 161.5 23t178.5 69l-35 -182 q-80 -33 -164.5 -49.5t-173.5 -16.5q-223 0 -343 111.5t-120 318.5zM490 1262l319 376h148l172 -376h-139l-127 237l-234 -237h-139z" />
<glyph unicode="&#x10a;" horiz-adv-x="1430" d="M86 561q0 178 61.5 350t176.5 314q122 151 278.5 223t364.5 72q128 0 242.5 -35.5t213.5 -106.5l-41 -213q-96 97 -203.5 144t-232.5 47q-171 0 -300.5 -82t-223.5 -250q-60 -108 -91.5 -228.5t-31.5 -242.5q0 -204 105.5 -311t306.5 -107q139 0 267 44.5t249 133.5 l-47 -239q-119 -51 -240.5 -77t-243.5 -26q-287 0 -448.5 156t-161.5 434zM888 1667l41 205h203l-39 -205h-205z" />
<glyph unicode="&#x10b;" horiz-adv-x="1126" d="M94 401q0 174 62.5 320.5t185.5 263.5q84 80 197 121t247 41q78 0 155 -17.5t157 -52.5l-37 -182q-66 48 -140.5 72t-154.5 24q-88 0 -167.5 -31t-133.5 -88q-86 -87 -133 -204t-47 -242q0 -151 75.5 -225t229.5 -74q76 0 161.5 23t178.5 69l-35 -182 q-80 -33 -164.5 -49.5t-173.5 -16.5q-223 0 -343 111.5t-120 318.5zM712 1323l45 233h184l-45 -233h-184z" />
<glyph unicode="&#x10c;" horiz-adv-x="1430" d="M86 561q0 178 61.5 350t176.5 314q122 151 278.5 223t364.5 72q128 0 242.5 -35.5t213.5 -106.5l-41 -213q-96 97 -203.5 144t-232.5 47q-171 0 -300.5 -82t-223.5 -250q-60 -108 -91.5 -228.5t-31.5 -242.5q0 -204 105.5 -311t306.5 -107q139 0 267 44.5t249 133.5 l-47 -239q-119 -51 -240.5 -77t-243.5 -26q-287 0 -448.5 156t-161.5 434zM702 1901h134l139 -178l209 178h151l-262 -266h-213z" />
<glyph unicode="&#x10d;" horiz-adv-x="1126" d="M94 401q0 174 62.5 320.5t185.5 263.5q84 80 197 121t247 41q78 0 155 -17.5t157 -52.5l-37 -182q-66 48 -140.5 72t-154.5 24q-88 0 -167.5 -31t-133.5 -88q-86 -87 -133 -204t-47 -242q0 -151 75.5 -225t229.5 -74q76 0 161.5 23t178.5 69l-35 -182 q-80 -33 -164.5 -49.5t-173.5 -16.5q-223 0 -343 111.5t-120 318.5zM529 1638h141l127 -237l231 237h140l-320 -376h-147z" />
<glyph unicode="&#x10e;" horiz-adv-x="1577" d="M55 0l291 1493h434q346 0 522.5 -146.5t176.5 -435.5q0 -191 -67 -367.5t-185 -297.5q-119 -124 -302 -185t-433 -61h-437zM291 166h264q339 0 525 195t186 550q0 215 -120 315.5t-376 100.5h-254zM624 1901h134l139 -178l209 178h151l-262 -266h-213z" />
<glyph unicode="&#x10f;" horiz-adv-x="1300" d="M94 399q0 166 59 316.5t171 269.5q74 79 167 120.5t195 41.5q108 0 190.5 -52t127.5 -149l120 610h185l-303 -1556h-185l35 168q-74 -97 -175 -147t-224 -50q-168 0 -265.5 114.5t-97.5 313.5zM285 432q0 -145 65.5 -226t181.5 -81q86 0 159.5 41.5t129.5 122.5 q59 84 93 194t34 217q0 139 -65.5 217t-180.5 78q-87 0 -162 -41t-128 -118q-58 -83 -92.5 -193t-34.5 -211zM1350 1178l129 376h199l-174 -376h-154z" />
<glyph unicode="&#x110;" horiz-adv-x="1587" d="M0 700l29 144h200l127 649h435q345 0 521.5 -146.5t176.5 -435.5q0 -190 -67.5 -366.5t-186.5 -298.5q-119 -124 -301 -185t-432 -61h-436l135 700h-201zM301 166h264q340 0 525.5 195t185.5 550q0 215 -120 315.5t-376 100.5h-254l-94 -483h336l-29 -144h-336z" />
<glyph unicode="&#x111;" horiz-adv-x="1300" d="M94 399q0 166 59 316.5t171 269.5q74 79 167 120.5t195 41.5q108 0 190.5 -52t127.5 -149l67 338h-326l27 123h326l26 149h185l-27 -149h154l-27 -123h-154l-249 -1284h-185l35 168q-74 -97 -175 -147t-224 -50q-168 0 -265.5 114.5t-97.5 313.5zM285 432 q0 -145 65.5 -226t181.5 -81q86 0 159.5 41.5t129.5 122.5q59 84 93 194t34 217q0 139 -65.5 217t-180.5 78q-87 0 -162 -41t-128 -118q-58 -83 -92.5 -193t-34.5 -211z" />
<glyph unicode="&#x112;" horiz-adv-x="1294" d="M55 0l291 1493h944l-33 -170h-743l-86 -442h713l-33 -170h-713l-104 -541h760l-33 -170h-963zM542 1695l29 148h598l-29 -148h-598z" />
<glyph unicode="&#x113;" horiz-adv-x="1260" d="M94 399q0 175 62.5 325.5t183.5 268.5q78 74 185.5 114t228.5 40q190 0 302.5 -114t112.5 -306q0 -46 -6 -98.5t-18 -112.5h-856q-6 -38 -8 -60t-2 -38q0 -139 85.5 -215t241.5 -76q120 0 227 27t199 79l-35 -182q-99 -40 -204.5 -60t-214.5 -20q-233 0 -358.5 111.5 t-125.5 316.5zM324 659l661 1q3 16 4.5 33t1.5 34q0 122 -71.5 193t-194.5 71q-137 0 -242 -86.5t-159 -245.5zM531 1378l29 148h598l-29 -148h-598z" />
<glyph unicode="&#x114;" horiz-adv-x="1294" d="M55 0l291 1493h944l-33 -170h-743l-86 -442h713l-33 -170h-713l-104 -541h760l-33 -170h-963zM549 1901h119q12 -61 51 -88t115 -27q86 0 140 27.5t83 87.5h119q-34 -113 -126 -177.5t-220 -64.5q-121 0 -191 60.5t-90 181.5z" />
<glyph unicode="&#x115;" horiz-adv-x="1260" d="M94 399q0 175 62.5 325.5t183.5 268.5q78 74 185.5 114t228.5 40q190 0 302.5 -114t112.5 -306q0 -46 -6 -98.5t-18 -112.5h-856q-6 -38 -8 -60t-2 -38q0 -139 85.5 -215t241.5 -76q120 0 227 27t199 79l-35 -182q-99 -40 -204.5 -60t-214.5 -20q-233 0 -358.5 111.5 t-125.5 316.5zM324 659l661 1q3 16 4.5 33t1.5 34q0 122 -71.5 193t-194.5 71q-137 0 -242 -86.5t-159 -245.5zM521 1575q0 6 1 17t1 16h114v-15q0 -68 42 -101.5t128 -33.5q85 0 140 36.5t86 113.5h116q-32 -139 -127 -213t-241 -74q-128 0 -194 64.5t-66 189.5z" />
<glyph unicode="&#x116;" horiz-adv-x="1294" d="M55 0l291 1493h944l-33 -170h-743l-86 -442h713l-33 -170h-713l-104 -541h760l-33 -170h-963zM721 1667l41 205h203l-39 -205h-205z" />
<glyph unicode="&#x117;" horiz-adv-x="1260" d="M94 399q0 175 62.5 325.5t183.5 268.5q78 74 185.5 114t228.5 40q190 0 302.5 -114t112.5 -306q0 -46 -6 -98.5t-18 -112.5h-856q-6 -38 -8 -60t-2 -38q0 -139 85.5 -215t241.5 -76q120 0 227 27t199 79l-35 -182q-99 -40 -204.5 -60t-214.5 -20q-233 0 -358.5 111.5 t-125.5 316.5zM324 659l661 1q3 16 4.5 33t1.5 34q0 122 -71.5 193t-194.5 71q-137 0 -242 -86.5t-159 -245.5zM671 1323l45 233h184l-45 -233h-184z" />
<glyph unicode="&#x118;" horiz-adv-x="1294" d="M55 0l291 1493h944l-33 -170h-743l-86 -442h713l-33 -170h-713l-104 -541h760l-33 -170h-963zM651 -246q0 52 38.5 113.5t114.5 132.5h119q-64 -67 -95.5 -117.5t-31.5 -85.5t22.5 -52t67.5 -17q29 0 63.5 7.5t71.5 22.5l-24 -132q-37 -12 -72.5 -17.5t-66.5 -5.5 q-103 0 -155 38t-52 113z" />
<glyph unicode="&#x119;" horiz-adv-x="1260" d="M94 399q0 175 62.5 325.5t183.5 268.5q78 74 185.5 114t228.5 40q190 0 302.5 -114t112.5 -306q0 -46 -6 -98.5t-18 -112.5h-856q-6 -38 -8 -60t-2 -38q0 -139 85.5 -215t241.5 -76q120 0 227 27t199 79l-35 -182q-99 -40 -204.5 -60t-214.5 -20q-233 0 -358.5 111.5 t-125.5 316.5zM324 659l661 1q3 16 4.5 33t1.5 34q0 122 -71.5 193t-194.5 71q-137 0 -242 -86.5t-159 -245.5zM558 -246q0 52 38.5 113.5t114.5 132.5h119q-64 -67 -95.5 -117.5t-31.5 -85.5t22.5 -52t67.5 -17q29 0 63.5 7.5t71.5 22.5l-24 -132q-37 -12 -72.5 -17.5 t-66.5 -5.5q-103 0 -155 38t-52 113z" />
<glyph unicode="&#x11a;" horiz-adv-x="1294" d="M55 0l291 1493h944l-33 -170h-743l-86 -442h713l-33 -170h-713l-104 -541h760l-33 -170h-963zM588 1901h134l139 -178l209 178h151l-262 -266h-213z" />
<glyph unicode="&#x11b;" horiz-adv-x="1260" d="M94 399q0 175 62.5 325.5t183.5 268.5q78 74 185.5 114t228.5 40q190 0 302.5 -114t112.5 -306q0 -46 -6 -98.5t-18 -112.5h-856q-6 -38 -8 -60t-2 -38q0 -139 85.5 -215t241.5 -76q120 0 227 27t199 79l-35 -182q-99 -40 -204.5 -60t-214.5 -20q-233 0 -358.5 111.5 t-125.5 316.5zM324 659l661 1q3 16 4.5 33t1.5 34q0 122 -71.5 193t-194.5 71q-137 0 -242 -86.5t-159 -245.5zM529 1638h141l127 -237l231 237h140l-320 -376h-147z" />
<glyph unicode="&#x11c;" horiz-adv-x="1587" d="M92 561q0 231 96.5 439.5t266.5 347.5q107 87 234 129.5t282 42.5q140 0 268.5 -35.5t245.5 -106.5l-41 -215q-90 94 -211 143.5t-258 49.5q-159 0 -280 -60.5t-216 -187.5q-81 -108 -127.5 -254.5t-46.5 -298.5q0 -209 107 -314.5t319 -105.5q106 0 205 22.5t182 65.5 l78 391h-332l31 166h530l-129 -657q-133 -73 -290 -112.5t-316 -39.5q-281 0 -439.5 156t-158.5 434zM677 1635l262 266h215l158 -266h-135l-140 178l-209 -178h-151z" />
<glyph unicode="&#x11d;" horiz-adv-x="1300" d="M66 -367l34 179q68 -44 144 -65t162 -21q175 0 287.5 95.5t148.5 274.5l16 84q-77 -88 -179 -134t-220 -46q-170 0 -267.5 112.5t-97.5 309.5q0 155 59 303.5t166 263.5q71 76 165.5 117t197.5 41q113 0 197 -52.5t125 -148.5l32 174h185l-191 -981q-55 -285 -210.5 -425 t-418.5 -140q-97 0 -180 14.5t-155 44.5zM285 440q0 -138 64.5 -212t185.5 -74q175 0 292 158.5t117 396.5q0 136 -64 210t-182 74q-73 0 -139 -29t-113 -81q-76 -86 -118.5 -202.5t-42.5 -240.5zM477 1262l319 376h148l172 -376h-139l-127 237l-234 -237h-139z" />
<glyph unicode="&#x11e;" horiz-adv-x="1587" d="M92 561q0 231 96.5 439.5t266.5 347.5q107 87 234 129.5t282 42.5q140 0 268.5 -35.5t245.5 -106.5l-41 -215q-90 94 -211 143.5t-258 49.5q-159 0 -280 -60.5t-216 -187.5q-81 -108 -127.5 -254.5t-46.5 -298.5q0 -209 107 -314.5t319 -105.5q106 0 205 22.5t182 65.5 l78 391h-332l31 166h530l-129 -657q-133 -73 -290 -112.5t-316 -39.5q-281 0 -439.5 156t-158.5 434zM684 1901h119q12 -61 51 -88t115 -27q86 0 140 27.5t83 87.5h119q-34 -113 -126 -177.5t-220 -64.5q-121 0 -191 60.5t-90 181.5z" />
<glyph unicode="&#x11f;" horiz-adv-x="1300" d="M66 -367l34 179q68 -44 144 -65t162 -21q175 0 287.5 95.5t148.5 274.5l16 84q-77 -88 -179 -134t-220 -46q-170 0 -267.5 112.5t-97.5 309.5q0 155 59 303.5t166 263.5q71 76 165.5 117t197.5 41q113 0 197 -52.5t125 -148.5l32 174h185l-191 -981q-55 -285 -210.5 -425 t-418.5 -140q-97 0 -180 14.5t-155 44.5zM285 440q0 -138 64.5 -212t185.5 -74q175 0 292 158.5t117 396.5q0 136 -64 210t-182 74q-73 0 -139 -29t-113 -81q-76 -86 -118.5 -202.5t-42.5 -240.5zM549 1575q0 6 1 17t1 16h114v-15q0 -68 42 -101.5t128 -33.5q85 0 140 36.5 t86 113.5h116q-32 -139 -127 -213t-241 -74q-128 0 -194 64.5t-66 189.5z" />
<glyph unicode="&#x120;" horiz-adv-x="1587" d="M92 561q0 231 96.5 439.5t266.5 347.5q107 87 234 129.5t282 42.5q140 0 268.5 -35.5t245.5 -106.5l-41 -215q-90 94 -211 143.5t-258 49.5q-159 0 -280 -60.5t-216 -187.5q-81 -108 -127.5 -254.5t-46.5 -298.5q0 -209 107 -314.5t319 -105.5q106 0 205 22.5t182 65.5 l78 391h-332l31 166h530l-129 -657q-133 -73 -290 -112.5t-316 -39.5q-281 0 -439.5 156t-158.5 434zM892 1667l41 205h203l-39 -205h-205z" />
<glyph unicode="&#x121;" horiz-adv-x="1300" d="M66 -367l34 179q68 -44 144 -65t162 -21q175 0 287.5 95.5t148.5 274.5l16 84q-77 -88 -179 -134t-220 -46q-170 0 -267.5 112.5t-97.5 309.5q0 155 59 303.5t166 263.5q71 76 165.5 117t197.5 41q113 0 197 -52.5t125 -148.5l32 174h185l-191 -981q-55 -285 -210.5 -425 t-418.5 -140q-97 0 -180 14.5t-155 44.5zM285 440q0 -138 64.5 -212t185.5 -74q175 0 292 158.5t117 396.5q0 136 -64 210t-182 74q-73 0 -139 -29t-113 -81q-76 -86 -118.5 -202.5t-42.5 -240.5zM699 1323l45 233h184l-45 -233h-184z" />
<glyph unicode="&#x122;" horiz-adv-x="1587" d="M92 561q0 231 96.5 439.5t266.5 347.5q107 87 234 129.5t282 42.5q140 0 268.5 -35.5t245.5 -106.5l-41 -215q-90 94 -211 143.5t-258 49.5q-159 0 -280 -60.5t-216 -187.5q-81 -108 -127.5 -254.5t-46.5 -298.5q0 -209 107 -314.5t319 -105.5q106 0 205 22.5t182 65.5 l78 391h-332l31 166h530l-129 -657q-133 -73 -290 -112.5t-316 -39.5q-281 0 -439.5 156t-158.5 434zM566 -511l144 320h211l-226 -320h-129z" />
<glyph unicode="&#x123;" horiz-adv-x="1300" d="M66 -367l34 179q68 -44 144 -65t162 -21q175 0 287.5 95.5t148.5 274.5l16 84q-77 -88 -179 -134t-220 -46q-170 0 -267.5 112.5t-97.5 309.5q0 155 59 303.5t166 263.5q71 76 165.5 117t197.5 41q113 0 197 -52.5t125 -148.5l32 174h185l-191 -981q-55 -285 -210.5 -425 t-418.5 -140q-97 0 -180 14.5t-155 44.5zM285 440q0 -138 64.5 -212t185.5 -74q175 0 292 158.5t117 396.5q0 136 -64 210t-182 74q-73 0 -139 -29t-113 -81q-76 -86 -118.5 -202.5t-42.5 -240.5zM657 1269l225 319h129l-143 -319h-211z" />
<glyph unicode="&#x124;" horiz-adv-x="1540" d="M55 0l291 1493h203l-119 -612h733l119 612h203l-291 -1493h-203l139 711h-733l-139 -711h-203zM627 1635l262 266h215l158 -266h-135l-140 178l-209 -178h-151z" />
<glyph unicode="&#x125;" horiz-adv-x="1298" d="M72 0l303 1556h184l-119 -612q70 94 179 148.5t229 54.5q148 0 229.5 -80t81.5 -225q0 -36 -4.5 -77t-13.5 -89l-131 -676h-185l131 669q9 47 14 83t5 57q0 84 -53 131t-148 47q-148 0 -256.5 -100t-140.5 -266l-121 -621h-184zM148 1635l262 266h215l158 -266h-135 l-140 178l-209 -178h-151z" />
<glyph unicode="&#x126;" horiz-adv-x="1876" d="M224 0l215 1105h-168l32 164h168l43 224h202l-43 -224h734l43 224h202l-43 -224h168l-32 -164h-168l-215 -1105h-202l138 711h-734l-138 -711h-202zM597 881h734l44 224h-734z" />
<glyph unicode="&#x127;" horiz-adv-x="1423" d="M94 0l247 1270h-125l32 164h125l23 122h185l-23 -122h352l-32 -164h-352l-63 -324q85 101 185 151q98 50 216 50q192 0 268 -119q48 -76 48 -194q0 -72 -17 -158l-131 -676h-184l130 670q12 63 12 114q0 76 -28 124q-46 79 -170 79q-149 0 -254 -95q-104 -95 -136 -259 l-123 -633h-185z" />
<glyph unicode="&#x128;" horiz-adv-x="604" d="M55 0l291 1493h203l-291 -1493h-203zM135 1667q35 109 96.5 164t146.5 55q35 0 65.5 -11t66.5 -36l32 -26q18 -14 37 -20.5t39 -6.5q39 0 67.5 27t39.5 73h125q-33 -109 -95.5 -164t-154.5 -55q-31 0 -58.5 10.5t-58.5 32.5l-35 25l-1 1q-43 32 -81 32q-34 0 -61 -25.5 t-45 -75.5h-125z" />
<glyph unicode="&#x129;" horiz-adv-x="569" d="M72 0l219 1120h184l-219 -1120h-184zM78 1309q30 137 94.5 209.5t155.5 72.5q37 0 69 -15.5t58 -45.5l47 -55q12 -16 26 -25t33 -14q38 0 62.5 35.5t44.5 119.5h125q-29 -137 -93.5 -209.5t-156.5 -72.5q-38 0 -71 15.5t-56 45.5l-45 55q-13 16 -29 26t-32 13 q-39 0 -64.5 -36.5t-42.5 -118.5h-125z" />
<glyph unicode="&#x12a;" horiz-adv-x="604" d="M55 0l291 1493h203l-291 -1493h-203zM171 1693l29 148h598l-29 -148h-598z" />
<glyph unicode="&#x12b;" horiz-adv-x="569" d="M72 0l219 1120h184l-219 -1120h-184zM154 1377l29 148h598l-29 -148h-598z" />
<glyph unicode="&#x12c;" horiz-adv-x="604" d="M55 0l291 1493h203l-291 -1493h-203zM192 1901h119q12 -61 51 -88t115 -27q86 0 140 27.5t83 87.5h119q-34 -113 -126 -177.5t-220 -64.5q-121 0 -191 60.5t-90 181.5z" />
<glyph unicode="&#x12d;" horiz-adv-x="569" d="M72 0l219 1120h184l-219 -1120h-184zM152 1575q0 6 1 17t1 16h114v-15q0 -68 42 -101.5t128 -33.5q85 0 140 36.5t86 113.5h116q-32 -139 -127 -213t-241 -74q-128 0 -194 64.5t-66 189.5z" />
<glyph unicode="&#x12e;" horiz-adv-x="604" d="M-14 -246q0 52 38.5 113.5t114.5 132.5h119q-64 -67 -95.5 -117.5t-31.5 -85.5t22.5 -52t67.5 -17q29 0 63.5 7.5t71.5 22.5l-24 -132q-37 -12 -72.5 -17.5t-66.5 -5.5q-103 0 -155 38t-52 113zM55 0l291 1493h203l-291 -1493h-203z" />
<glyph unicode="&#x12f;" horiz-adv-x="569" d="M-16 -246q0 52 38.5 113.5t114.5 132.5h119q-64 -67 -95.5 -117.5t-31.5 -85.5t22.5 -52t67.5 -17q29 0 63.5 7.5t71.5 22.5l-24 -132q-37 -12 -72.5 -17.5t-66.5 -5.5q-103 0 -155 38t-52 113zM72 0l219 1120h184l-219 -1120h-184zM330 1323l45 233h184l-45 -233h-184z " />
<glyph unicode="&#x130;" horiz-adv-x="604" d="M55 0l291 1493h203l-291 -1493h-203zM379 1667l41 205h203l-39 -205h-205z" />
<glyph unicode="&#x131;" horiz-adv-x="569" d="M72 0l219 1120h184l-219 -1120h-184z" />
<glyph unicode="&#x132;" horiz-adv-x="1208" d="M55 0l291 1493h203l-291 -1493h-203zM268 -410l33 170h63q135 0 205 77t107 267l270 1389h203l-271 -1389q-53 -271 -178.5 -392.5t-351.5 -121.5h-80z" />
<glyph unicode="&#x133;" horiz-adv-x="1138" d="M72 0l219 1120h184l-219 -1120h-184zM330 1323l45 233h184l-45 -233h-184zM337 -426l30 156h47q108 0 153.5 45t76.5 205l221 1140h184l-221 -1140l-1 -5q-37 -191 -85 -262q-45 -67 -131.5 -103t-204.5 -36h-69zM906 1323l45 233h184l-45 -233h-184z" />
<glyph unicode="&#x134;" horiz-adv-x="604" d="M-336 -410l33 170h63q135 0 205 77t107 267l270 1389h203l-271 -1389q-53 -271 -178.5 -392.5t-351.5 -121.5h-80zM155 1635l262 266h215l158 -266h-135l-140 178l-209 -178h-151z" />
<glyph unicode="&#x135;" horiz-adv-x="569" d="M-231 -426l30 156h47q108 0 153.5 45t76.5 205l221 1140h184l-221 -1140l-1 -5q-37 -191 -85 -262q-45 -67 -131.5 -103t-204.5 -36h-69zM99 1262l319 376h148l172 -376h-139l-127 237l-234 -237h-139z" />
<glyph unicode="&#x136;" horiz-adv-x="1343" d="M55 0l291 1493h203l-123 -629l784 629h269l-887 -713l649 -780h-246l-596 727l-141 -727h-203zM524 -482l144 320h211l-226 -320h-129z" />
<glyph unicode="&#x137;" horiz-adv-x="1186" d="M72 0l303 1556h184l-176 -907l631 471h239l-704 -536l514 -584h-223l-478 547l-106 -547h-184zM444 -482l144 320h211l-226 -320h-129z" />
<glyph unicode="&#x138;" horiz-adv-x="1186" d="M77 0l218 1120h185l-94 -485l643 485h235l-696 -526l503 -594h-240l-463 545l-106 -545h-185z" />
<glyph unicode="&#x139;" horiz-adv-x="1141" d="M55 0l289 1493h203l-256 -1325h727l-33 -168h-930zM400 1636l258 264h207l-307 -264h-158z" />
<glyph unicode="&#x13a;" horiz-adv-x="569" d="M72 0l303 1556h184l-303 -1556h-184zM400 1636l258 264h207l-307 -264h-158z" />
<glyph unicode="&#x13b;" horiz-adv-x="1141" d="M55 0l289 1493h203l-256 -1325h727l-33 -168h-930zM396 -482l144 320h211l-226 -320h-129z" />
<glyph unicode="&#x13c;" horiz-adv-x="569" d="M40 -482l144 320h211l-226 -320h-129zM72 0l303 1556h184l-303 -1556h-184z" />
<glyph unicode="&#x13d;" horiz-adv-x="1141" d="M55 0l289 1493h203l-256 -1325h727l-33 -168h-930zM638 1116l129 376h199l-174 -376h-154z" />
<glyph unicode="&#x13e;" horiz-adv-x="569" d="M72 0l303 1556h184l-303 -1556h-184zM642 1180l129 376h199l-174 -376h-154z" />
<glyph unicode="&#x13f;" horiz-adv-x="1141" d="M55 0l289 1493h203l-256 -1325h727l-33 -168h-930zM648 621l50 254h211l-50 -254h-211z" />
<glyph unicode="&#x140;" horiz-adv-x="569" d="M72 0l303 1556h184l-303 -1556h-184zM646 554l50 254h211l-50 -254h-211z" />
<glyph unicode="&#x141;" horiz-adv-x="1151" d="M-41 647l252 113l143 733h203l-125 -633l352 156l56 -125l-439 -193l-100 -530h727l-33 -168h-929l114 600l-164 -76z" />
<glyph unicode="&#x142;" horiz-adv-x="588" d="M35 758l219 98l135 700h184l-116 -606l141 64l53 -119l-223 -102l-158 -793h-184l137 700l-135 -61z" />
<glyph unicode="&#x143;" horiz-adv-x="1532" d="M55 0l291 1493h272l412 -1280l250 1280h197l-291 -1493h-273l-411 1288l-250 -1288h-197zM780 1636l258 264h207l-307 -264h-158z" />
<glyph unicode="&#x144;" horiz-adv-x="1298" d="M72 0l217 1120h184l-37 -176q77 97 185 150t227 53q148 0 229.5 -80t81.5 -225q0 -36 -4.5 -77t-13.5 -89l-131 -676h-185l131 669q9 47 14 83t5 57q0 84 -53 131t-148 47q-148 0 -255 -98.5t-140 -267.5l-123 -621h-184zM570 1269l354 376h199l-399 -376h-154z" />
<glyph unicode="&#x145;" horiz-adv-x="1532" d="M55 0l291 1493h272l412 -1280l250 1280h197l-291 -1493h-273l-411 1288l-250 -1288h-197zM497 -482l144 320h211l-226 -320h-129z" />
<glyph unicode="&#x146;" horiz-adv-x="1298" d="M72 0l217 1120h184l-37 -176q77 97 185 150t227 53q148 0 229.5 -80t81.5 -225q0 -36 -4.5 -77t-13.5 -89l-131 -676h-185l131 669q9 47 14 83t5 57q0 84 -53 131t-148 47q-148 0 -255 -98.5t-140 -267.5l-123 -621h-184zM417 -482l144 320h211l-226 -320h-129z" />
<glyph unicode="&#x147;" horiz-adv-x="1532" d="M55 0l291 1493h272l412 -1280l250 1280h197l-291 -1493h-273l-411 1288l-250 -1288h-197zM702 1901h134l139 -178l209 178h151l-262 -266h-213z" />
<glyph unicode="&#x148;" horiz-adv-x="1298" d="M72 0l217 1120h184l-37 -176q77 97 185 150t227 53q148 0 229.5 -80t81.5 -225q0 -36 -4.5 -77t-13.5 -89l-131 -676h-185l131 669q9 47 14 83t5 57q0 84 -53 131t-148 47q-148 0 -255 -98.5t-140 -267.5l-123 -621h-184zM529 1638h141l127 -237l231 237h140l-320 -376 h-147z" />
<glyph unicode="&#x149;" horiz-adv-x="1666" d="M153 1001l144 319l34 173h211l-34 -173l-226 -319h-129zM413 0l217 1120h184l-37 -176q77 97 185 150t227 53q148 0 229.5 -80t81.5 -225q0 -36 -4.5 -77t-13.5 -89l-131 -676h-185l131 669q9 47 14 83t5 57q0 84 -53 131t-148 47q-148 0 -255 -98.5t-140 -267.5 l-123 -621h-184z" />
<glyph unicode="&#x14a;" horiz-adv-x="1532" d="M95 0l290 1493h202l-47 -241q104 134 222.5 201t271.5 67q363 0 363 -398q0 -102 -25 -229l-177 -913q-42 -213 -142 -309.5t-281 -96.5h-87l30 156h49q103 0 151 45t79 205l178 915q17 91 17 163q0 265 -241 265q-179 0 -311.5 -127.5t-175.5 -349.5l-164 -846h-202z " />
<glyph unicode="&#x14b;" horiz-adv-x="1298" d="M72 0l217 1120h184l-37 -176q77 97 185 150t227 53q148 0 229.5 -80t81.5 -225q0 -36 -4.5 -77t-13.5 -89l-135 -701q-37 -191 -85 -262q-45 -67 -131.5 -103t-204.5 -36h-259l30 156h237q108 0 153.5 45t76.5 205l133 689q9 47 14 83t5 57q0 84 -53 131t-148 47 q-148 0 -255 -98.5t-140 -267.5l-123 -621h-184z" />
<glyph unicode="&#x14c;" horiz-adv-x="1612" d="M82 580q0 162 61.5 331t169.5 301q127 155 283 231.5t344 76.5q274 0 432 -161.5t158 -440.5q0 -172 -60 -338t-172 -301q-128 -156 -282.5 -232t-343.5 -76q-275 0 -432.5 163t-157.5 446zM297 569q0 -208 99.5 -321t281.5 -113q164 0 292.5 81.5t219.5 242.5 q61 108 93 226.5t32 236.5q0 207 -100 320.5t-281 113.5q-166 0 -293 -80.5t-221 -245.5q-60 -105 -91.5 -223t-31.5 -238zM676 1693l29 148h598l-29 -148h-598z" />
<glyph unicode="&#x14d;" horiz-adv-x="1253" d="M94 424q0 122 39.5 248.5t102.5 212.5q99 134 221 198t276 64q191 0 308.5 -119t117.5 -311q0 -133 -39 -265t-102 -219q-98 -134 -220 -198t-278 -64q-197 0 -311.5 121.5t-114.5 331.5zM285 430q0 -152 63.5 -227.5t192.5 -75.5q185 0 306.5 161.5t121.5 409.5 q0 145 -65 219t-191 74q-104 0 -185 -48.5t-145 -147.5q-47 -74 -72.5 -169t-25.5 -196zM496 1377l29 148h598l-29 -148h-598z" />
<glyph unicode="&#x14e;" horiz-adv-x="1612" d="M82 580q0 162 61.5 331t169.5 301q127 155 283 231.5t344 76.5q274 0 432 -161.5t158 -440.5q0 -172 -60 -338t-172 -301q-128 -156 -282.5 -232t-343.5 -76q-275 0 -432.5 163t-157.5 446zM297 569q0 -208 99.5 -321t281.5 -113q164 0 292.5 81.5t219.5 242.5 q61 108 93 226.5t32 236.5q0 207 -100 320.5t-281 113.5q-166 0 -293 -80.5t-221 -245.5q-60 -105 -91.5 -223t-31.5 -238zM729 1901h119q12 -61 51 -88t115 -27q86 0 140 27.5t83 87.5h119q-34 -113 -126 -177.5t-220 -64.5q-121 0 -191 60.5t-90 181.5z" />
<glyph unicode="&#x14f;" horiz-adv-x="1253" d="M94 424q0 122 39.5 248.5t102.5 212.5q99 134 221 198t276 64q191 0 308.5 -119t117.5 -311q0 -133 -39 -265t-102 -219q-98 -134 -220 -198t-278 -64q-197 0 -311.5 121.5t-114.5 331.5zM285 430q0 -152 63.5 -227.5t192.5 -75.5q185 0 306.5 161.5t121.5 409.5 q0 145 -65 219t-191 74q-104 0 -185 -48.5t-145 -147.5q-47 -74 -72.5 -169t-25.5 -196zM525 1575q0 6 1 17t1 16h114v-15q0 -68 42 -101.5t128 -33.5q85 0 140 36.5t86 113.5h116q-32 -139 -127 -213t-241 -74q-128 0 -194 64.5t-66 189.5z" />
<glyph unicode="&#x150;" horiz-adv-x="1612" d="M82 580q0 162 61.5 331t169.5 301q127 155 283 231.5t344 76.5q274 0 432 -161.5t158 -440.5q0 -172 -60 -338t-172 -301q-128 -156 -282.5 -232t-343.5 -76q-275 0 -432.5 163t-157.5 446zM297 569q0 -208 99.5 -321t281.5 -113q164 0 292.5 81.5t219.5 242.5 q61 108 93 226.5t32 236.5q0 207 -100 320.5t-281 113.5q-166 0 -293 -80.5t-221 -245.5q-60 -105 -91.5 -223t-31.5 -238zM803 1635l258 264h207l-307 -264h-158zM1119 1635l258 264h207l-307 -264h-158z" />
<glyph unicode="&#x151;" horiz-adv-x="1253" d="M94 424q0 122 39.5 248.5t102.5 212.5q99 134 221 198t276 64q191 0 308.5 -119t117.5 -311q0 -133 -39 -265t-102 -219q-98 -134 -220 -198t-278 -64q-197 0 -311.5 121.5t-114.5 331.5zM285 430q0 -152 63.5 -227.5t192.5 -75.5q185 0 306.5 161.5t121.5 409.5 q0 145 -65 219t-191 74q-104 0 -185 -48.5t-145 -147.5q-47 -74 -72.5 -169t-25.5 -196zM500 1262l264 376h170l-297 -376h-137zM820 1262l278 376h178l-321 -376h-135z" />
<glyph unicode="&#x152;" horiz-adv-x="2191" d="M94 582q0 209 92.5 395t264.5 321q123 98 298 146.5t400 48.5h1036l-33 -170h-739l-88 -442h711l-33 -170h-711l-104 -541h760l-33 -170h-1090q-162 0 -250.5 15.5t-166.5 50.5q-157 70 -235.5 199t-78.5 317zM307 582q0 -203 126.5 -307.5t373.5 -104.5h49h129l225 1153 h-120q-166 0 -295.5 -38t-216.5 -111q-133 -110 -202 -260.5t-69 -331.5z" />
<glyph unicode="&#x153;" horiz-adv-x="2105" d="M94 401q0 137 38 266.5t104 217.5q99 134 221 198t276 64q130 0 229.5 -58.5t153.5 -166.5q99 112 220 168.5t263 56.5q191 0 303.5 -114t112.5 -306q0 -46 -6 -98.5t-18 -112.5h-856q-4 -27 -6.5 -52t-2.5 -46q0 -139 85 -215t241 -76q120 0 228.5 27t199.5 79l-37 -182 q-99 -39 -204 -59.5t-214 -20.5q-161 0 -276 55t-162 154q-101 -105 -216.5 -157t-250.5 -52q-191 0 -308.5 119t-117.5 311zM285 430q0 -152 63.5 -227.5t192.5 -75.5q185 0 306.5 160t121.5 409q0 147 -64.5 221t-191.5 74q-104 0 -185 -48.5t-145 -147.5 q-47 -74 -72.5 -169t-25.5 -196zM1169 659l662 1q3 16 4.5 33t1.5 34q0 122 -71.5 193t-194.5 71q-138 0 -242.5 -86.5t-159.5 -245.5z" />
<glyph unicode="&#x154;" horiz-adv-x="1423" d="M55 0l291 1493h455q207 0 317.5 -93.5t110.5 -269.5q0 -156 -94 -270t-248 -143q64 -15 106.5 -74t98.5 -235l127 -408h-213l-117 383q-45 148 -104 198t-181 50h-223l-123 -631h-203zM414 797h260q153 0 247.5 84.5t94.5 220.5q0 109 -63.5 167t-182.5 58h-254z M660 1636l258 264h207l-307 -264h-158z" />
<glyph unicode="&#x155;" horiz-adv-x="842" d="M72 0l219 1120h184l-35 -174q73 97 174.5 149t216.5 52q30 0 59 -3.5t58 -11.5l-35 -182q-28 15 -64 23t-77 8q-147 0 -257 -111.5t-146 -298.5l-113 -571h-184zM570 1269l354 376h199l-399 -376h-154z" />
<glyph unicode="&#x156;" horiz-adv-x="1423" d="M55 0l291 1493h455q207 0 317.5 -93.5t110.5 -269.5q0 -156 -94 -270t-248 -143q64 -15 106.5 -74t98.5 -235l127 -408h-213l-117 383q-45 148 -104 198t-181 50h-223l-123 -631h-203zM414 797h260q153 0 247.5 84.5t94.5 220.5q0 109 -63.5 167t-182.5 58h-254z M513 -482l144 320h211l-226 -320h-129z" />
<glyph unicode="&#x157;" horiz-adv-x="842" d="M40 -482l144 320h211l-226 -320h-129zM72 0l219 1120h184l-35 -174q73 97 174.5 149t216.5 52q30 0 59 -3.5t58 -11.5l-35 -182q-28 15 -64 23t-77 8q-147 0 -257 -111.5t-146 -298.5l-113 -571h-184z" />
<glyph unicode="&#x158;" horiz-adv-x="1423" d="M55 0l291 1493h455q207 0 317.5 -93.5t110.5 -269.5q0 -156 -94 -270t-248 -143q64 -15 106.5 -74t98.5 -235l127 -408h-213l-117 383q-45 148 -104 198t-181 50h-223l-123 -631h-203zM414 797h260q153 0 247.5 84.5t94.5 220.5q0 109 -63.5 167t-182.5 58h-254z M492 1895h134l139 -178l209 178h151l-262 -266h-213z" />
<glyph unicode="&#x159;" horiz-adv-x="842" d="M72 0l219 1120h184l-35 -174q73 97 174.5 149t216.5 52q30 0 59 -3.5t58 -11.5l-35 -182q-28 15 -64 23t-77 8q-147 0 -257 -111.5t-146 -298.5l-113 -571h-184zM368 1638h141l127 -237l231 237h140l-320 -376h-147z" />
<glyph unicode="&#x15a;" horiz-adv-x="1300" d="M12 66l41 208q111 -69 222.5 -104t222.5 -35q189 0 303 84t114 219q0 90 -45.5 136.5t-195.5 84.5l-121 31q-207 54 -282.5 124.5t-75.5 197.5q0 223 171.5 365.5t446.5 142.5q107 0 212 -19t210 -57l-39 -197q-101 54 -200.5 81.5t-192.5 27.5q-181 0 -288 -79 t-107 -210q0 -72 39.5 -110.5t203.5 -82.5l121 -30q205 -53 285 -134.5t80 -228.5q0 -226 -177.5 -368t-467.5 -142q-119 0 -239 23.5t-241 71.5zM660 1636l258 264h207l-307 -264h-158z" />
<glyph unicode="&#x15b;" horiz-adv-x="1067" d="M23 41l36 190q101 -52 199 -79t188 -27q135 0 219.5 58t84.5 147q0 96 -222 155l-19 5l-63 16q-140 37 -205 97.5t-65 154.5q0 179 134.5 284t365.5 105q91 0 177.5 -15t170.5 -45l-35 -174q-73 40 -154 60t-167 20q-145 0 -228.5 -49.5t-83.5 -134.5q0 -99 194 -152 q15 -4 22 -6l59 -18q184 -51 245.5 -107t61.5 -153q0 -178 -141.5 -290t-370.5 -112q-89 0 -187 17t-216 53zM570 1269l354 376h199l-399 -376h-154z" />
<glyph unicode="&#x15c;" horiz-adv-x="1300" d="M12 66l41 208q111 -69 222.5 -104t222.5 -35q189 0 303 84t114 219q0 90 -45.5 136.5t-195.5 84.5l-121 31q-207 54 -282.5 124.5t-75.5 197.5q0 223 171.5 365.5t446.5 142.5q107 0 212 -19t210 -57l-39 -197q-101 54 -200.5 81.5t-192.5 27.5q-181 0 -288 -79 t-107 -210q0 -72 39.5 -110.5t203.5 -82.5l121 -30q205 -53 285 -134.5t80 -228.5q0 -226 -177.5 -368t-467.5 -142q-119 0 -239 23.5t-241 71.5zM519 1635l262 266h215l158 -266h-135l-140 178l-209 -178h-151z" />
<glyph unicode="&#x15d;" horiz-adv-x="1067" d="M23 41l36 190q101 -52 199 -79t188 -27q135 0 219.5 58t84.5 147q0 96 -222 155l-19 5l-63 16q-140 37 -205 97.5t-65 154.5q0 179 134.5 284t365.5 105q91 0 177.5 -15t170.5 -45l-35 -174q-73 40 -154 60t-167 20q-145 0 -228.5 -49.5t-83.5 -134.5q0 -99 194 -152 q15 -4 22 -6l59 -18q184 -51 245.5 -107t61.5 -153q0 -178 -141.5 -290t-370.5 -112q-89 0 -187 17t-216 53zM380 1262l319 376h148l172 -376h-139l-127 237l-234 -237h-139z" />
<glyph unicode="&#x15e;" horiz-adv-x="1300" d="M12 66l41 208q111 -69 222.5 -104t222.5 -35q189 0 303 84t114 219q0 90 -45.5 136.5t-195.5 84.5l-121 31q-207 54 -282.5 124.5t-75.5 197.5q0 223 171.5 365.5t446.5 142.5q107 0 212 -19t210 -57l-39 -197q-101 54 -200.5 81.5t-192.5 27.5q-181 0 -288 -79 t-107 -210q0 -72 39.5 -110.5t203.5 -82.5l121 -30q205 -53 285 -134.5t80 -228.5q0 -226 -177.5 -368t-467.5 -142q-119 0 -239 23.5t-241 71.5zM200 -371l23 131q39 -16 78.5 -24t81.5 -8q60 0 95.5 30.5t35.5 83.5q0 29 -12.5 65t-43.5 93h119q36 -51 53 -94.5t17 -85.5 q0 -100 -73.5 -157.5t-201.5 -57.5q-43 0 -86 6t-86 18z" />
<glyph unicode="&#x15f;" horiz-adv-x="1067" d="M23 41l36 190q101 -52 199 -79t188 -27q135 0 219.5 58t84.5 147q0 96 -222 155l-19 5l-63 16q-140 37 -205 97.5t-65 154.5q0 179 134.5 284t365.5 105q91 0 177.5 -15t170.5 -45l-35 -174q-73 40 -154 60t-167 20q-145 0 -228.5 -49.5t-83.5 -134.5q0 -99 194 -152 q15 -4 22 -6l59 -18q184 -51 245.5 -107t61.5 -153q0 -178 -141.5 -290t-370.5 -112q-89 0 -187 17t-216 53zM123 -371l23 131q39 -16 78.5 -24t81.5 -8q60 0 95.5 30.5t35.5 83.5q0 29 -12.5 65t-43.5 93h119q36 -51 53 -94.5t17 -85.5q0 -100 -73.5 -157.5t-201.5 -57.5 q-43 0 -86 6t-86 18z" />
<glyph unicode="&#x160;" horiz-adv-x="1300" d="M12 66l41 208q111 -69 222.5 -104t222.5 -35q189 0 303 84t114 219q0 90 -45.5 136.5t-195.5 84.5l-121 31q-207 54 -282.5 124.5t-75.5 197.5q0 223 171.5 365.5t446.5 142.5q107 0 212 -19t210 -57l-39 -197q-101 54 -200.5 81.5t-192.5 27.5q-181 0 -288 -79 t-107 -210q0 -72 39.5 -110.5t203.5 -82.5l121 -30q205 -53 285 -134.5t80 -228.5q0 -226 -177.5 -368t-467.5 -142q-119 0 -239 23.5t-241 71.5zM553 1901h134l139 -178l209 178h151l-262 -266h-213z" />
<glyph unicode="&#x161;" horiz-adv-x="1067" d="M23 41l36 190q101 -52 199 -79t188 -27q135 0 219.5 58t84.5 147q0 96 -222 155l-19 5l-63 16q-140 37 -205 97.5t-65 154.5q0 179 134.5 284t365.5 105q91 0 177.5 -15t170.5 -45l-35 -174q-73 40 -154 60t-167 20q-145 0 -228.5 -49.5t-83.5 -134.5q0 -99 194 -152 q15 -4 22 -6l59 -18q184 -51 245.5 -107t61.5 -153q0 -178 -141.5 -290t-370.5 -112q-89 0 -187 17t-216 53zM433 1638h141l127 -237l231 237h140l-320 -376h-147z" />
<glyph unicode="&#x162;" horiz-adv-x="1251" d="M88 1323l33 170h1263l-32 -170h-533l-256 -1323h-203l256 1323h-528zM176 -371l23 131q39 -16 78.5 -24t81.5 -8q60 0 95.5 30.5t35.5 83.5q0 29 -12.5 65t-43.5 93h119q36 -51 53 -94.5t17 -85.5q0 -100 -73.5 -157.5t-201.5 -57.5q-43 0 -86 6t-86 18z" />
<glyph unicode="&#x163;" horiz-adv-x="803" d="M127 -371l23 131q39 -16 78.5 -24t81.5 -8q60 0 95.5 30.5t35.5 83.5q0 29 -12.5 65t-43.5 93h119q36 -51 53 -94.5t17 -85.5q0 -100 -73.5 -157.5t-201.5 -57.5q-43 0 -86 6t-86 18zM131 977l29 143h153l62 318h184l-61 -318h368l-28 -143h-367l-119 -608q-6 -34 -9 -57 t-3 -36q0 -64 38.5 -93t123.5 -29h186l-31 -154h-176q-164 0 -244.5 64t-80.5 194q0 23 3 50.5t9 60.5l119 608h-156z" />
<glyph unicode="&#x164;" horiz-adv-x="1251" d="M88 1323l33 170h1263l-32 -170h-533l-256 -1323h-203l256 1323h-528zM528 1901h134l139 -178l209 178h151l-262 -266h-213z" />
<glyph unicode="&#x165;" horiz-adv-x="803" d="M131 977l29 143h153l62 318h184l-61 -318h368l-28 -143h-367l-119 -608q-6 -34 -9 -57t-3 -36q0 -64 38.5 -93t123.5 -29h186l-31 -154h-176q-164 0 -244.5 64t-80.5 194q0 23 3 50.5t9 60.5l119 608h-156zM649 1269l129 376h199l-174 -376h-154z" />
<glyph unicode="&#x166;" horiz-adv-x="1251" d="M106 1323l33 170h1263l-33 -170h-530l-112 -576h265l-33 -170h-265l-112 -577h-203l112 577h-265l33 170h265l112 576h-530z" />
<glyph unicode="&#x167;" horiz-adv-x="803" d="M32 602l28 142h135l45 233h-135l28 143h135l62 318h185l-62 -318h379l-28 -143h-379l-45 -233h379l-28 -142h-379l-45 -233q-27 -137 3 -176t145 -39h189l-30 -154h-189q-213 0 -278 80q-66 79 -25 289l45 233h-135z" />
<glyph unicode="&#x168;" horiz-adv-x="1499" d="M119 389q0 35 5 78.5t15 93.5l178 932h203l-176 -907q-11 -61 -15.5 -100.5t-4.5 -69.5q0 -138 77 -209.5t226 -71.5q193 0 300.5 106t153.5 345l176 907h203l-180 -932q-59 -302 -224 -446t-452 -144q-224 0 -354.5 112.5t-130.5 305.5zM582 1667q35 109 96.5 164 t146.5 55q35 0 65.5 -11t66.5 -36l32 -26q18 -14 37 -20.5t39 -6.5q39 0 67.5 27t39.5 73h125q-33 -109 -95.5 -164t-154.5 -55q-31 0 -58.5 10.5t-58.5 32.5l-35 25l-1 1q-43 32 -81 32q-34 0 -61 -25.5t-45 -75.5h-125z" />
<glyph unicode="&#x169;" horiz-adv-x="1298" d="M117 276q0 30 5 75t15 93l131 676h185l-131 -669q-10 -49 -14.5 -84t-4.5 -58q0 -85 52 -131.5t147 -46.5q148 0 256 100t141 269l123 620h184l-217 -1120h-184l37 176q-78 -98 -185.5 -151.5t-228.5 -53.5q-147 0 -229 80.5t-82 224.5zM442 1309q30 137 94.5 209.5 t155.5 72.5q37 0 69 -15.5t58 -45.5l47 -55q12 -16 26 -25t33 -14q38 0 62.5 35.5t44.5 119.5h125q-29 -137 -93.5 -209.5t-156.5 -72.5q-38 0 -71 15.5t-56 45.5l-45 55q-13 16 -29 26t-32 13q-39 0 -64.5 -36.5t-42.5 -118.5h-125z" />
<glyph unicode="&#x16a;" horiz-adv-x="1499" d="M119 389q0 35 5 78.5t15 93.5l178 932h203l-176 -907q-11 -61 -15.5 -100.5t-4.5 -69.5q0 -138 77 -209.5t226 -71.5q193 0 300.5 106t153.5 345l176 907h203l-180 -932q-59 -302 -224 -446t-452 -144q-224 0 -354.5 112.5t-130.5 305.5zM619 1693l29 148h598l-29 -148 h-598z" />
<glyph unicode="&#x16b;" horiz-adv-x="1298" d="M117 276q0 30 5 75t15 93l131 676h185l-131 -669q-10 -49 -14.5 -84t-4.5 -58q0 -85 52 -131.5t147 -46.5q148 0 256 100t141 269l123 620h184l-217 -1120h-184l37 176q-78 -98 -185.5 -151.5t-228.5 -53.5q-147 0 -229 80.5t-82 224.5zM512 1377l29 148h598l-29 -148 h-598z" />
<glyph unicode="&#x16c;" horiz-adv-x="1499" d="M119 389q0 35 5 78.5t15 93.5l178 932h203l-176 -907q-11 -61 -15.5 -100.5t-4.5 -69.5q0 -138 77 -209.5t226 -71.5q193 0 300.5 106t153.5 345l176 907h203l-180 -932q-59 -302 -224 -446t-452 -144q-224 0 -354.5 112.5t-130.5 305.5zM639 1901h119q12 -61 51 -88 t115 -27q86 0 140 27.5t83 87.5h119q-34 -113 -126 -177.5t-220 -64.5q-121 0 -191 60.5t-90 181.5z" />
<glyph unicode="&#x16d;" horiz-adv-x="1298" d="M117 276q0 30 5 75t15 93l131 676h185l-131 -669q-10 -49 -14.5 -84t-4.5 -58q0 -85 52 -131.5t147 -46.5q148 0 256 100t141 269l123 620h184l-217 -1120h-184l37 176q-78 -98 -185.5 -151.5t-228.5 -53.5q-147 0 -229 80.5t-82 224.5zM516 1575q0 6 1 17t1 16h114v-15 q0 -68 42 -101.5t128 -33.5q85 0 140 36.5t86 113.5h116q-32 -139 -127 -213t-241 -74q-128 0 -194 64.5t-66 189.5z" />
<glyph unicode="&#x16e;" horiz-adv-x="1499" d="M119 389q0 35 5 78.5t15 93.5l178 932h203l-176 -907q-11 -61 -15.5 -100.5t-4.5 -69.5q0 -138 77 -209.5t226 -71.5q193 0 300.5 106t153.5 345l176 907h203l-180 -932q-59 -302 -224 -446t-452 -144q-224 0 -354.5 112.5t-130.5 305.5zM628 1629q0 116 79.5 195 t194.5 79q116 0 195.5 -79t79.5 -195q0 -115 -79.5 -195t-195.5 -80q-115 0 -194.5 80t-79.5 195zM751 1629q0 -66 42.5 -109t108.5 -43q67 0 109.5 43t42.5 109q0 64 -43.5 107.5t-108.5 43.5q-66 0 -108.5 -42.5t-42.5 -108.5z" />
<glyph unicode="&#x16f;" horiz-adv-x="1298" d="M117 276q0 30 5 75t15 93l131 676h185l-131 -669q-10 -49 -14.5 -84t-4.5 -58q0 -85 52 -131.5t147 -46.5q148 0 256 100t141 269l123 620h184l-217 -1120h-184l37 176q-78 -98 -185.5 -151.5t-228.5 -53.5q-147 0 -229 80.5t-82 224.5zM498 1489q0 116 79.5 195 t194.5 79q116 0 195.5 -79t79.5 -195q0 -115 -79.5 -195t-195.5 -80q-115 0 -194.5 80t-79.5 195zM621 1489q0 -66 42.5 -109t108.5 -43q67 0 109.5 43t42.5 109q0 64 -43.5 107.5t-108.5 43.5q-66 0 -108.5 -42.5t-42.5 -108.5z" />
<glyph unicode="&#x170;" horiz-adv-x="1499" d="M119 389q0 35 5 78.5t15 93.5l178 932h203l-176 -907q-11 -61 -15.5 -100.5t-4.5 -69.5q0 -138 77 -209.5t226 -71.5q193 0 300.5 106t153.5 345l176 907h203l-180 -932q-59 -302 -224 -446t-452 -144q-224 0 -354.5 112.5t-130.5 305.5zM713 1635l258 264h207l-307 -264 h-158zM1029 1635l258 264h207l-307 -264h-158z" />
<glyph unicode="&#x171;" horiz-adv-x="1298" d="M117 276q0 30 5 75t15 93l131 676h185l-131 -669q-10 -49 -14.5 -84t-4.5 -58q0 -85 52 -131.5t147 -46.5q148 0 256 100t141 269l123 620h184l-217 -1120h-184l37 176q-78 -98 -185.5 -151.5t-228.5 -53.5q-147 0 -229 80.5t-82 224.5zM491 1262l264 376h170l-297 -376 h-137zM811 1262l278 376h178l-321 -376h-135z" />
<glyph unicode="&#x172;" horiz-adv-x="1499" d="M119 389q0 35 5 78.5t15 93.5l178 932h203l-176 -907q-11 -61 -15.5 -100.5t-4.5 -69.5q0 -138 77 -209.5t226 -71.5q193 0 300.5 106t153.5 345l176 907h203l-180 -932q-59 -302 -224 -446t-452 -144q-224 0 -354.5 112.5t-130.5 305.5zM345 -246q0 52 38.5 113.5 t114.5 132.5h119q-64 -67 -95.5 -117.5t-31.5 -85.5t22.5 -52t67.5 -17q29 0 63.5 7.5t71.5 22.5l-24 -132q-37 -12 -72.5 -17.5t-66.5 -5.5q-103 0 -155 38t-52 113z" />
<glyph unicode="&#x173;" horiz-adv-x="1298" d="M117 276q0 30 5 75t15 93l131 676h185l-131 -669q-10 -49 -14.5 -84t-4.5 -58q0 -85 52 -131.5t147 -46.5q148 0 256 100t141 269l123 620h184l-217 -1120h-184l37 176q-78 -98 -185.5 -151.5t-228.5 -53.5q-147 0 -229 80.5t-82 224.5zM715 -246q0 52 38.5 113.5 t114.5 132.5h119q-64 -67 -95.5 -117.5t-31.5 -85.5t22.5 -52t67.5 -17q29 0 63.5 7.5t71.5 22.5l-24 -132q-37 -12 -72.5 -17.5t-66.5 -5.5q-103 0 -155 38t-52 113z" />
<glyph unicode="&#x174;" horiz-adv-x="2025" d="M197 1493h196l72 -1270l563 1270h225l74 -1270l557 1270h205l-664 -1493h-254l-69 1245l-559 -1245h-254zM855 1642l262 266h215l158 -266h-135l-140 178l-209 -178h-151z" />
<glyph unicode="&#x175;" horiz-adv-x="1675" d="M174 1120h182l47 -901l418 901h213l62 -901l397 901h184l-512 -1120h-215l-55 928l-428 -928h-217zM635 1262l319 376h148l172 -376h-139l-127 237l-234 -237h-139z" />
<glyph unicode="&#x176;" horiz-adv-x="1251" d="M129 1493h217l279 -614l532 614h227l-677 -782l-138 -711h-202l137 711zM461 1642l262 266h215l158 -266h-135l-140 178l-209 -178h-151z" />
<glyph unicode="&#x177;" horiz-adv-x="1212" d="M-51 -426l31 154h106q77 0 131 42t121 164l57 107l-248 1079h195l186 -858l514 858h193l-727 -1224q-128 -215 -208.5 -268.5t-205.5 -53.5h-145zM400 1262l319 376h148l172 -376h-139l-127 237l-234 -237h-139z" />
<glyph unicode="&#x178;" horiz-adv-x="1251" d="M129 1493h217l279 -614l532 614h227l-677 -782l-138 -711h-202l137 711zM494 1667l39 203h204l-41 -203h-202zM885 1667l39 203h202l-38 -203h-203z" />
<glyph unicode="&#x179;" horiz-adv-x="1403" d="M-45 0l29 154l1157 1169h-905l32 170h1172l-29 -154l-1157 -1169h952l-32 -170h-1219zM660 1636l258 264h207l-307 -264h-158z" />
<glyph unicode="&#x17a;" horiz-adv-x="1075" d="M-6 0l33 168l843 805h-661l29 147h874l-33 -168l-843 -805h696l-29 -147h-909zM570 1269l354 376h199l-399 -376h-154z" />
<glyph unicode="&#x17b;" horiz-adv-x="1403" d="M-45 0l29 154l1157 1169h-905l32 170h1172l-29 -154l-1157 -1169h952l-32 -170h-1219zM779 1663l41 205h203l-39 -205h-205z" />
<glyph unicode="&#x17c;" horiz-adv-x="1075" d="M-6 0l33 168l843 805h-661l29 147h874l-33 -168l-843 -805h696l-29 -147h-909zM591 1323l45 233h184l-45 -233h-184z" />
<glyph unicode="&#x17d;" horiz-adv-x="1403" d="M-45 0l29 154l1157 1169h-905l32 170h1172l-29 -154l-1157 -1169h952l-32 -170h-1219zM604 1901h134l139 -178l209 178h151l-262 -266h-213z" />
<glyph unicode="&#x17e;" horiz-adv-x="1075" d="M-6 0l33 168l843 805h-661l29 147h874l-33 -168l-843 -805h696l-29 -147h-909zM437 1638h141l127 -237l231 237h140l-320 -376h-147z" />
<glyph unicode="&#x17f;" horiz-adv-x="721" d="M139 0l191 977h-176l26 143h176l15 78q38 198 133 278q96 80 301 80h174l-29 -153h-176q-100 0 -146 -39q-45 -40 -67 -145l-237 -1219h-185z" />
<glyph unicode="&#x180;" horiz-adv-x="1300" d="M38 0l249 1284h-154l24 125h154l29 147h185l-29 -147h325l-24 -125h-325l-65 -334q78 100 176 148q98 49 221 49q204 0 300 -162t44 -426q-51 -264 -210 -426t-363 -162q-123 0 -202 49q-79 48 -118 148l-32 -168h-185zM331 559q-39 -203 22 -319q61 -115 207 -115 t252 115q106 116 145 319q40 203 -21 319q-61 115 -207 115t-252 -115q-106 -116 -146 -319z" />
<glyph unicode="&#x181;" horiz-adv-x="1505" d="M105 1079l13 70q36 181 147 263q112 81 326 81h516q231 0 338 -96q106 -96 71 -273q-26 -137 -106 -218t-208 -101q143 -32 206 -133q63 -102 33 -254q-39 -200 -196 -309t-408 -109h-536l258 1327q-142 0 -211 -47q-56 -38 -78 -152l-9 -49h-156zM535 166h324 q163 0 255 68q92 67 119 206q27 140 -39 206q-65 67 -228 67h-324zM673 877h299q148 0 232 55q83 56 105 170q22 113 -39 169q-62 56 -210 56h-299z" />
<glyph unicode="&#x182;" horiz-adv-x="1405" d="M56 0l290 1493h954l-32 -166h-752l-87 -448h334q251 0 365 -109q84 -79 84 -218q0 -52 -12 -113q-43 -221 -200 -330t-408 -109h-536zM290 166h324q320 0 373 273q8 40 8 75q0 199 -275 199h-324z" />
<glyph unicode="&#x183;" horiz-adv-x="1300" d="M38 0l302 1556h846l-32 -166l-661 1l-86 -441q78 100 176 148q98 49 221 49q204 0 300 -162t44 -426q-51 -264 -210 -426t-363 -162q-123 0 -202 49q-79 48 -118 148l-32 -168h-185zM331 559q-39 -203 22 -319q61 -115 207 -115t252 115q106 116 145 319q40 203 -21 319 q-61 115 -207 115t-252 -115q-106 -116 -146 -319z" />
<glyph unicode="&#x184;" horiz-adv-x="1405" d="M87 0l212 1092h-201l390 401h91l-119 -614h334q251 0 366 -109q114 -109 71 -331q-43 -221 -200 -330t-408 -109h-536zM321 166h324q163 0 254 68q93 67 119 205q27 139 -38 207q-65 67 -228 67h-324z" />
<glyph unicode="&#x185;" horiz-adv-x="1300" d="M72 0l212 1092h-186l381 465h81l-118 -607q77 100 175 148q98 49 221 49q204 0 300 -162t45 -426q-52 -264 -211 -426t-363 -162q-123 0 -202 49q-79 48 -117 148l-33 -168h-185zM366 559q-40 -203 21 -319q61 -115 207 -115t252 115q106 116 146 319q39 203 -22 319 q-61 115 -207 115t-252 -115q-106 -116 -145 -319z" />
<glyph unicode="&#x186;" horiz-adv-x="1440" d="M128 113l41 213q96 -97 203.5 -144t232.5 -47q171 0 300.5 82t223.5 250q60 108 91.5 228.5t31.5 242.5q0 204 -105.5 311t-306.5 107q-139 0 -267 -44.5t-249 -133.5l47 239q119 51 240.5 77t243.5 26q287 0 448.5 -156t161.5 -434q0 -178 -61.5 -350t-176.5 -314 q-122 -151 -278.5 -223t-364.5 -72q-128 0 -242.5 35.5t-213.5 106.5z" />
<glyph unicode="&#x187;" horiz-adv-x="1430" d="M79 745q70 360 305 567q235 208 574 208q134 0 246 -36q12 -3 23 -7q54 195 155 293q127 122 354 122h77l-33 -170h-63q-134 0 -204 -75q-69 -75 -107 -269l-42 -213q-83 95 -190 142q-106 47 -236 47q-230 0 -388 -127l-1 -1l-1 -1h-1l-1 -1l-1 -1l-1 -1l-1 -1l-1 -1h-2 l-1 -1l-1 -1l-1 -1l-1 -1l-1 -1l-1 -1l-1 -1h-1l-1 -1l-1 -1l-1 -1l-1 -1l-1 -1l-1 -1l-1 -1l-1 -1l-1 -1h-1l-1 -1l-1 -1l-1 -1l-1 -1l-1 -1l-1 -1q-167 -157 -224 -453q-58 -295 48 -451q106 -157 362 -157q130 0 254 47q125 47 245 142l-41 -211q-120 -72 -245 -108 q-126 -36 -258 -36q-339 0 -493 207q-155 208 -85 567z" />
<glyph unicode="&#x188;" horiz-adv-x="1126" d="M80 559q54 274 235 431t443 157q71 0 138 -12q43 169 129 252q100 96 281 96h70l-30 -156h-49q-105 0 -153 -49q-47 -48 -77 -201l-33 -172q-70 43 -144 65q-75 21 -155 21q-179 0 -300 -113q-121 -114 -161 -319t37 -319q77 -113 256 -113q80 0 163 21q83 22 169 65 l-33 -170q-84 -36 -170 -54t-179 -18q-253 0 -371 159t-66 429z" />
<glyph unicode="&#x189;" horiz-adv-x="1587" d="M0 700l29 144h200l127 649h435q345 0 521.5 -146.5t176.5 -435.5q0 -190 -67.5 -366.5t-186.5 -298.5q-119 -124 -301 -185t-432 -61h-436l135 700h-201zM301 166h264q340 0 525.5 195t185.5 550q0 215 -120 315.5t-376 100.5h-254l-94 -483h336l-29 -144h-336z" />
<glyph unicode="&#x18a;" horiz-adv-x="1677" d="M105 1079l13 70q36 181 147 263q112 81 326 81h415q434 0 602 -181q168 -180 93 -564q-75 -386 -314 -567t-671 -181h-415l258 1327q-142 0 -211 -47q-56 -38 -78 -152l-9 -49h-156zM535 166h244q309 0 480 140t229 442q59 300 -58 440q-116 139 -425 139h-244z" />
<glyph unicode="&#x18b;" horiz-adv-x="1405" d="M141 439q43 222 201 331q157 109 408 109h334l87 448h-644l32 166h846l-290 -1493h-536q-251 0 -366 109t-72 330zM354 439q-27 -138 39 -205q65 -68 228 -68h324l106 547h-324q-163 0 -254 -67q-92 -68 -119 -207z" />
<glyph unicode="&#x18c;" horiz-adv-x="1300" d="M73 559q52 264 211 426t363 162q123 0 202 -49q79 -48 117 -148l86 441l-661 -1l32 166h845l-302 -1556h-184l32 168q-77 -100 -175 -148q-98 -49 -221 -49q-204 0 -300 162t-45 426zM264 559q-39 -203 22 -319q61 -115 207 -115t252 115q106 116 145 319q40 203 -21 319 q-61 115 -207 115t-252 -115q-106 -116 -146 -319z" />
<glyph unicode="&#x18d;" horiz-adv-x="1253" d="M113 -356l30 153q88 -70 327 -70q253 0 276 117q18 92 -237 140q-200 37 -296 149q-116 135 -62 412q52 265 219 421q168 157 408 157q239 0 346 -157q107 -156 53 -431q-39 -204 -208 -369q-66 -64 -148 -100q141 -79 113 -220q-53 -272 -494 -272q-221 0 -327 70z M346 545q-38 -199 34 -295q77 -103 201 -114q63 -6 112 -20q73 29 143 102q108 113 147 317q40 203 -23 317q-64 115 -213 115q-147 0 -255 -116q-109 -116 -146 -306z" />
<glyph unicode="&#x18e;" horiz-adv-x="1294" d="M131 0l33 170h760l105 541h-711l33 170h711l86 442h-742l33 170h944l-290 -1493h-962z" />
<glyph unicode="&#x18f;" horiz-adv-x="1612" d="M105 780h1198q35 172 -16 328q-46 127 -143 188q-98 60 -257 60q-137 0 -277 -50q-140 -49 -267 -143l43 215q144 71 287 106q142 36 282 36q155 0 265 -42q111 -43 184 -130q116 -139 131 -348q16 -197 -65 -420q-60 -166 -172 -301q-128 -156 -282 -232 q-155 -76 -344 -76q-292 0 -432 163q-213 246 -135 646zM298 614q-12 -239 98 -366q100 -113 282 -113q164 0 292 81q129 82 220 243q53 94 76 155h-968z" />
<glyph unicode="&#x190;" horiz-adv-x="1258" d="M248 434q28 144 129 242q100 98 251 129q-124 33 -178 119q-55 85 -31 209q35 178 189 283q154 104 384 104q89 0 187 -16q97 -16 206 -48l-35 -180q-107 38 -198 56q-92 18 -175 18q-152 0 -245 -62q-93 -61 -116 -176q-22 -112 46 -172q67 -59 216 -59h182l-32 -166 h-174q-165 0 -272 -75q-107 -74 -133 -206q-27 -143 57 -218q85 -75 275 -75q109 0 214 25t199 74l-38 -195q-113 -37 -217 -55q-103 -19 -197 -19q-280 0 -408 121q-129 121 -86 342z" />
<glyph unicode="&#x191;" horiz-adv-x="1178" d="M-291 -410l33 170h63q134 0 204 75q69 75 107 269l270 1389h858l-33 -170h-656l-86 -440h592l-33 -170h-592l-118 -609q-53 -270 -179 -392t-353 -122h-77z" />
<glyph unicode="&#x192;" horiz-adv-x="721" d="M-322 -426l30 153h176q99 0 145 40q47 40 67 144l207 1066h-176l28 143h176l15 78q36 187 140 272q104 86 293 86h174l-30 -153h-176q-99 0 -145 -40q-47 -40 -67 -144l-19 -99h303l-28 -143h-303l-203 -1045q-36 -187 -140 -272q-104 -86 -293 -86h-174z" />
<glyph unicode="&#x193;" horiz-adv-x="1587" d="M79 745q71 366 308 571q237 204 587 204q146 0 271 -36q21 -6 41 -13q54 199 157 299q127 122 354 122h77l-33 -170h-63q-134 0 -204 -75t-107 -269l-42 -215q-94 95 -210 143q-117 48 -256 48q-274 0 -441 -153t-226 -456q-59 -302 49 -455t382 -153q107 0 194 19 q88 18 162 57l78 401h-330l33 166h530l-125 -641q-133 -83 -282 -125q-150 -43 -310 -43q-350 0 -507 205q-158 204 -87 569z" />
<glyph unicode="&#x194;" horiz-adv-x="1406" d="M195 1493h222l305 -862l641 862h222l-790 -1073q112 -350 112 -505q0 -30 -4 -54q-27 -139 -115 -204q-117 -87 -272 -87q-154 0 -238 87q-44 45 -44 126q0 36 11 90q10 54 96 200q85 147 227 347zM442 -182q0 -32 16 -45q37 -32 91 -32q154 0 154 166q0 70 -64 295 l-136 -213q-61 -98 -61 -171z" />
<glyph unicode="&#x195;" horiz-adv-x="2015" d="M35 0l302 1556h185l-118 -610q170 201 401 201q316 0 316 -314q0 -70 -17 -157l-52 -270q-15 -75 -15 -124.5t14 -75.5q27 -50 125 -50h8l51 1q149 3 253.5 98.5t135.5 254.5q19 101 19 179q0 229 -186 283l29 150q351 -46 351 -397q0 -89 -23 -198q-50 -245 -220 -386 t-391 -141h-70q-187 0 -246 100q-35 60 -35 141.5t16 164.5l51 264q12 63 12 114q0 203 -198 203q-149 0 -253.5 -95t-136.5 -259l-123 -633h-185z" />
<glyph unicode="&#x196;" horiz-adv-x="724" d="M156 514l190 979h202l-190 -979q-38 -194 3 -269q40 -75 174 -75h63l-33 -170h-77q-227 0 -306 122t-26 392z" />
<glyph unicode="&#x197;" horiz-adv-x="604" d="M1 700l28 144h191l126 649h202l-126 -649h191l-28 -144h-191l-136 -700h-202l136 700h-191z" />
<glyph unicode="&#x198;" horiz-adv-x="1527" d="M53 0l290 1493h202l-122 -631l732 579q100 79 214 79q136 0 203 -92q51 -69 51 -149q0 -25 -5 -52l-26 -131h-170l24 121q3 14 3 28q0 37 -21 66q-29 40 -67 40q-70 0 -114 -35l-648 -519l639 -797h-266l-577 719l-140 -719h-202z" />
<glyph unicode="&#x199;" horiz-adv-x="1186" d="M35 0l232 1198q36 186 141 272q104 86 293 86h174l-30 -153h-176q-99 0 -145 -40t-67 -144l-113 -582l642 483h235l-695 -524l503 -596h-240l-463 547l-106 -547h-185z" />
<glyph unicode="&#x19a;" horiz-adv-x="569" d="M-5 700l28 144h183l138 712h184l-138 -712h177l-28 -144h-177l-136 -700h-184l136 700h-183z" />
<glyph unicode="&#x19b;" horiz-adv-x="1212" d="M-90 0l700 1074l-35 188l-320 -101l-13 99l315 99l-36 197h200l25 -138l335 104l14 -97l-332 -104l237 -1321h-195l-153 828l-547 -828h-195z" />
<glyph unicode="&#x19c;" horiz-adv-x="1995" d="M122 442l204 1051h203l-202 -1041q-37 -186 -8 -239q42 -78 159 -78q143 0 244 95q102 95 134 259l195 1004h203l-202 -1041q-32 -162 10 -240q42 -77 161 -77q123 0 225 95q101 96 133 259l195 1004h203l-291 -1495h-203l34 174q-83 -103 -180 -152q-98 -49 -219 -49 q-122 0 -195 62q-74 62 -92 180q-93 -124 -200 -183q-108 -59 -238 -59q-175 0 -246 123q-71 122 -27 348z" />
<glyph unicode="&#x19d;" horiz-adv-x="1532" d="M-291 -410l33 170h63q134 0 204 75q69 75 107 269l270 1389h272l419 -1249l243 1249h196l-290 -1493h-272l-419 1249l-223 -1145q-53 -274 -173 -390q-129 -124 -353 -124h-77z" />
<glyph unicode="&#x19e;" horiz-adv-x="1298" d="M116 0l218 1120h185l-34 -174q85 101 185 151q99 50 216 50q193 0 269 -119q75 -120 30 -352l-214 -1102h-184l213 1096q31 159 -16 238q-46 79 -170 79q-149 0 -254 -95q-104 -95 -136 -259l-123 -633h-185z" />
<glyph unicode="&#x19f;" horiz-adv-x="1612" d="M82 580q0 162 61.5 331t169.5 301q127 155 283 231.5t344 76.5q274 0 432 -161.5t158 -440.5q0 -172 -60 -338t-172 -301q-128 -156 -282.5 -232t-343.5 -76q-275 0 -432.5 163t-157.5 446zM308 557q0 -153 63 -258q97 -164 317 -164t375 158.5t214 416.5h-955 q-14 -82 -14 -153zM363 880h939q2 30 2 58q0 148 -62 254q-96 164 -316 164t-382 -164q-119 -121 -181 -312z" />
<glyph unicode="&#x1a0;" horiz-adv-x="1870" d="M70 580q0 162 61.5 331t169.5 301q127 155 283 231.5t344 76.5q274 0 432 -161.5t158 -440.5q0 -172 -60 -338t-172 -301q-128 -156 -282.5 -232t-343.5 -76q-275 0 -432.5 163t-157.5 446zM285 569q0 -208 99.5 -321t281.5 -113q164 0 292.5 81.5t219.5 242.5 q61 108 93 226.5t32 236.5q0 207 -100 320.5t-281 113.5q-166 0 -293 -80.5t-221 -245.5q-60 -105 -91.5 -223t-31.5 -238zM1257 1293l23 119q52 -45 92 -66.5t71 -21.5q46 0 74 27.5t39 81.5q6 32 4.5 63t-10.5 62h133q3 -38 1.5 -72t-7.5 -64q-24 -122 -78.5 -179.5 t-147.5 -57.5q-48 0 -95.5 26.5t-98.5 81.5z" />
<glyph unicode="&#x1a1;" horiz-adv-x="1253" d="M99 424q0 122 39.5 248.5t102.5 212.5q99 134 221 198t276 64q191 0 308.5 -119t117.5 -311q0 -133 -39 -265t-102 -219q-98 -134 -220 -198t-278 -64q-197 0 -311.5 121.5t-114.5 331.5zM290 430q0 -152 63.5 -227.5t192.5 -75.5q185 0 306.5 161.5t121.5 409.5 q0 145 -65 219t-191 74q-104 0 -185 -48.5t-145 -147.5q-47 -74 -72.5 -169t-25.5 -196zM918 983l23 119q52 -45 92 -66.5t71 -21.5q46 0 74 27.5t39 81.5q6 32 4.5 63t-10.5 62h133q3 -38 1.5 -72t-7.5 -64q-24 -122 -78.5 -179.5t-147.5 -57.5q-48 0 -95.5 26.5 t-98.5 81.5z" />
<glyph unicode="&#x1a2;" horiz-adv-x="1922" d="M115 745q69 354 298 565q230 210 545 210q112 0 203 -27h295q227 0 306 -122q78 -122 26 -392l-190 -979h-202l190 979q38 194 -3 269q-40 75 -162 75l-222 -1141q-229 -211 -543 -211q-315 0 -462 210q-148 210 -79 564zM328 745q-55 -282 43 -446q97 -164 317 -164 q175 0 335 164l174 893q-106 164 -271 164q-220 0 -382 -164q-161 -164 -216 -447z" />
<glyph unicode="&#x1a3;" horiz-adv-x="1509" d="M152 559q53 276 220 432t408 156q100 0 176 -27h217q181 0 243 -96q63 -96 22 -310l-222 -1140h-184l222 1140q29 153 1 202q-29 48 -134 48l-162 -836q-168 -157 -408 -157q-241 0 -347 157q-106 156 -52 431zM346 559q-39 -201 24 -317q63 -115 212 -115t210 89 l132 680q-25 95 -174 95q-147 2 -257 -115q-108 -116 -147 -317z" />
<glyph unicode="&#x1a4;" horiz-adv-x="1335" d="M105 1079l13 70q36 181 147 263q112 81 326 81h456q251 0 358 -113q106 -114 64 -333q-43 -221 -194 -334q-150 -113 -401 -113h-254l-117 -600h-202l258 1327q-128 0 -212 -56q-56 -38 -77 -143l-9 -49h-156zM652 766h254q141 0 232 73t118 208q26 134 -37 207t-204 73 h-254z" />
<glyph unicode="&#x1a5;" horiz-adv-x="1300" d="M-7 -426l316 1624q36 187 140 272q104 86 293 86h174l-30 -153h-176q-99 0 -145 -40q-47 -40 -67 -144l-52 -269q77 100 175 148q98 49 221 49q204 0 300 -162t45 -426t-210 -426t-363 -162q-123 0 -203 49q-79 48 -117 148l-116 -594h-185zM370 559q-40 -203 21 -319 q61 -115 207 -115t252 115q106 116 146 319q39 203 -22 319q-61 115 -207 115t-252 -115q-106 -116 -145 -319z" />
<glyph unicode="&#x1a6;" horiz-adv-x="1423" d="M82 0l290 1493h202l-52 -264h254q437 0 437 -316q0 -52 -12 -114q-28 -141 -111.5 -234t-215.5 -129q119 -43 194 -292l125 -408h-217l-116 383q-45 150 -105 199t-180 49h-220l-71 -367h-202zM382 504h254q141 0 232 73t117 207q8 39 8 74q0 81 -44 132q-63 73 -205 73 h-254z" />
<glyph unicode="&#x1a7;" horiz-adv-x="1300" d="M4 412q36 182 164 290q129 109 363 152l127 25q172 31 241 81q70 51 89 150q23 118 -54 182t-242 64q-95 0 -203 -27q-107 -27 -233 -82l39 197q121 38 234 57t218 19q245 0 362 -114t79 -312q-34 -171 -153 -267q-120 -96 -355 -141l-127 -24q-160 -31 -240 -93 q-79 -62 -101 -172q-24 -126 57 -194q80 -68 253 -68q114 0 239 35t261 104l-40 -208q-137 -47 -261 -71q-125 -24 -231 -24q-281 0 -404 112q-124 112 -82 329z" />
<glyph unicode="&#x1a8;" horiz-adv-x="1067" d="M22 309q27 137 124 213q98 77 302 119l66 14q154 33 210 69q56 37 69 101q16 84 -44 126q-61 42 -198 42q-90 0 -178 -20q-87 -20 -173 -60l34 174q81 30 174 45t195 15q206 0 302 -86q95 -86 64 -244q-25 -130 -116 -205q-90 -74 -268 -110l-67 -15q-178 -37 -236 -77 q-59 -40 -73 -115q-16 -81 45 -125q62 -45 192 -45q97 0 201 27q104 26 216 79l-37 -190q-114 -35 -215 -53q-101 -17 -191 -17q-216 0 -322 91t-76 247z" />
<glyph unicode="&#x1a9;" horiz-adv-x="1294" d="M56 0l33 170l600 624l-376 529l33 170h944l-33 -170h-712l377 -525l-601 -628h730l-33 -170h-962z" />
<glyph unicode="&#x1aa;" horiz-adv-x="688" d="M-119 1340q42 216 345 216q180 0 244 -96q41 -64 37 -175h191l-30 -155h-181l-239 -1219q-20 -103 11 -144q29 -40 129 -40h176l-30 -153h-174q-194 0 -259 86q-69 92 -34 272l233 1198h-190q-270 0 -229 210zM35 1335q-13 -51 106 -51h179q1 45 -12 68q-24 48 -134 48 q-124 0 -139 -65z" />
<glyph unicode="&#x1ab;" horiz-adv-x="803" d="M147 977l27 143h135l62 318h185l-62 -318h379l-27 -143h-379l-119 -608q-26 -137 4 -176t145 -39h189l-35 -174q-41 -214 -142 -310q-100 -96 -281 -96h-70l31 156h49q105 0 152 48q48 49 77 202l4 20h-4q-213 0 -279 80q-65 79 -25 289l119 608h-135z" />
<glyph unicode="&#x1ac;" horiz-adv-x="1251" d="M89 1079l13 70q35 181 147 263q112 81 326 81h827l-33 -170h-530l-257 -1323h-203l257 1323h-94q-133 0 -212 -52q-55 -38 -76 -143l-9 -49h-156z" />
<glyph unicode="&#x1ad;" horiz-adv-x="803" d="M94 977l27 143h135l16 78q36 187 140 272q103 86 292 86h174l-30 -153h-176q-99 0 -145 -40q-46 -41 -66 -144l-20 -99h379l-27 -143h-379l-119 -608q-26 -137 4 -176t145 -39h189l-30 -154h-189q-213 0 -279 80q-65 79 -25 289l119 608h-135z" />
<glyph unicode="&#x1ae;" horiz-adv-x="1251" d="M146 1323l33 170h1263l-33 -170h-530l-237 -1219q-38 -195 2 -269q40 -75 174 -75h63l-33 -170h-77q-227 0 -306 122t-26 392l237 1219h-530z" />
<glyph unicode="&#x1af;" horiz-adv-x="1717" d="M114 409q0 35 5 78.5t15 93.5l178 932h203l-176 -907q-11 -61 -15.5 -100.5t-4.5 -69.5q0 -138 77 -209.5t226 -71.5q193 0 300.5 106t153.5 345l176 907h203l-180 -932q-59 -302 -224 -446t-452 -144q-224 0 -354.5 112.5t-130.5 305.5zM1322 1293l23 119 q52 -45 92 -66.5t71 -21.5q46 0 74 27.5t39 81.5q6 32 4.5 63t-10.5 62h133q3 -38 1.5 -72t-7.5 -64q-24 -122 -78.5 -179.5t-147.5 -57.5q-48 0 -95.5 26.5t-98.5 81.5z" />
<glyph unicode="&#x1b0;" horiz-adv-x="1298" d="M119 276q0 30 5 75t15 93l131 676h185l-131 -669q-10 -49 -14.5 -84t-4.5 -58q0 -85 52 -131.5t147 -46.5q148 0 256 100t141 269l123 620h184l-217 -1120h-184l37 176q-78 -98 -185.5 -151.5t-228.5 -53.5q-147 0 -229 80.5t-82 224.5zM1047 994l23 119q52 -45 92 -66.5 t71 -21.5q46 0 74 27.5t39 81.5q6 32 4.5 63t-10.5 62h133q3 -38 1.5 -72t-7.5 -64q-24 -122 -78.5 -179.5t-147.5 -57.5q-48 0 -95.5 26.5t-98.5 81.5z" />
<glyph unicode="&#x1b1;" horiz-adv-x="1565" d="M86 683q35 184 137 333q101 149 286 288h-319l35 178h600l-35 -178q-197 -97 -328 -263q-132 -166 -171 -368q-47 -239 57 -385q105 -145 321 -145t376 145t207 385q39 202 -28 368t-225 263l35 178h600l-35 -178h-320q134 -141 176 -289t5 -342q-60 -309 -291 -505 q-231 -197 -534 -197q-305 0 -458 197t-91 515z" />
<glyph unicode="&#x1b2;" horiz-adv-x="1476" d="M156 514l190 979h202l-190 -979q-38 -194 3 -269q40 -75 174 -75h63q216 0 376 145q161 145 207 385q39 202 -27 368q-44 109 -137 196l13 68l179 -1q133 -141 176 -289q42 -148 4 -342q-60 -309 -291 -506q-230 -196 -533 -196l-77 2q-231 6 -306 122q-78 122 -26 392z " />
<glyph unicode="&#x1b3;" horiz-adv-x="1523" d="M138 1493h217l295 -614l432 505q117 136 280 136q136 0 203 -92q51 -69 51 -149q0 -25 -5 -52l-26 -131h-170l24 121q3 14 3 28q0 37 -21 66q-29 40 -67 40q-57 0 -81 -14q-42 -24 -64 -49l-492 -577l-138 -711h-203l138 711z" />
<glyph unicode="&#x1b4;" horiz-adv-x="1496" d="M9 -426l30 154h108q76 0 125 36t126 170l49 84l-238 1102h195l179 -876l419 704q31 52 89 103q107 96 242 96q131 0 205 -95q54 -71 54 -163q0 -32 -6 -67l-22 -114h-178l22 114q3 15 3 29q0 40 -24 71q-33 42 -90 42t-106 -42q-24 -20 -39 -45l-583 -981 q-117 -200 -203 -261t-210 -61h-147z" />
<glyph unicode="&#x1b5;" horiz-adv-x="1403" d="M-53 0l30 154l547 546h-299l28 144h415l480 479h-921l33 170h1173l-30 -154l-496 -495h281l-28 -144h-397l-531 -530h967l-33 -170h-1219z" />
<glyph unicode="&#x1b6;" horiz-adv-x="1075" d="M-21 0l33 168l367 348h-213l28 144h336l330 313h-667l29 147h874l-33 -168l-308 -292h194l-28 -144h-317l-389 -369h692l-29 -147h-899z" />
<glyph unicode="&#x1b7;" horiz-adv-x="1364" d="M47 11l38 195q97 -49 219 -74q121 -25 258 -25q192 0 305 75q115 75 143 218q26 134 -52 207q-79 74 -244 74h-174l33 166l477 476h-772l33 170h1024l-32 -168l-504 -476q106 0 223 -56q90 -42 155 -151q61 -104 34 -242q-30 -151 -105 -236l-36 -41q-26 -29 -78 -65 q-175 -121 -455 -121q-119 0 -241 19q-122 18 -249 55z" />
<glyph unicode="&#x1b8;" horiz-adv-x="1364" d="M31 400q27 138 128 242q107 109 213 151q139 56 245 56l-318 476l32 168h1024l-33 -170h-772l293 -476l-33 -166h-174q-165 0 -272 -74q-106 -73 -132 -207q-28 -143 57 -218t277 -75q137 0 268 25q132 25 247 74l-38 -195q-141 -37 -271 -55q-128 -19 -247 -19 q-280 0 -409 121q-38 36 -52 65l-20 41q-43 85 -13 236z" />
<glyph unicode="&#x1b9;" horiz-adv-x="1183" d="M43 27q27 138 128 242q107 109 213 151q139 56 245 56l-318 476l32 168h874l-28 -147h-667l333 -499l-33 -166h-174q-165 0 -272 -74q-107 -75 -132 -207q-28 -143 57 -218t275 -75q109 0 214 25t198 74l-38 -195q-113 -37 -217 -56q-102 -18 -196 -18q-280 0 -409 121 l-11 11l-27 33q-83 114 -47 298z" />
<glyph unicode="&#x1ba;" horiz-adv-x="1075" d="M-18 -199q0 25 6 54q46 238 462 291q292 37 311 135q2 12 2 22q0 102 -213 102h-290l595 568h-667l29 147h874l-33 -168l-434 -412q327 0 327 -182q0 -22 -4 -47q-54 -276 -528 -325q-230 -24 -249 -121q-2 -11 -2 -20q0 -119 304 -119q84 0 165 21q83 21 173 65 l-35 -179q-94 -32 -176 -45q-89 -14 -186 -14q-431 0 -431 227z" />
<glyph unicode="&#x1bb;" horiz-adv-x="1303" d="M2 0l33 170l376 320l138 117h-345l28 144h482q117 109 168 181q53 76 67 149q24 119 -45 194t-203 75q-95 0 -207 -33t-245 -100l39 204q132 49 243 74t199 25q232 0 347 -116q116 -116 78 -310q-18 -92 -69 -174q-44 -73 -137 -169h104l-28 -144h-236l-57 -49l-454 -388 h705l-33 -170h-948z" />
<glyph unicode="&#x1bc;" horiz-adv-x="1364" d="M32 400h201q-28 -143 57 -218t275 -75q189 0 303 75q115 75 143 218q26 134 -52 207q-79 74 -244 74h-319v-1h-202l158 813h929l-33 -170h-727l-92 -475l371 1q104 0 223 -56q90 -43 155 -151q61 -104 34 -242q-30 -151 -105 -236l-36 -41q-26 -29 -78 -65 q-175 -121 -455 -121q-292 0 -421 121q-38 36 -52 65l-20 41q-43 85 -13 236z" />
<glyph unicode="&#x1bd;" horiz-adv-x="1183" d="M-33 -362l38 195q75 -49 170 -74t204 -25q189 0 303 75q115 75 143 218q26 134 -52 207q-79 74 -244 74h-354l33 168h1l128 644h790l-33 -170h-606l-95 -474h221q105 0 223 -56q90 -43 155 -151q61 -104 34 -242q-30 -151 -105 -236l-36 -41q-26 -29 -78 -65 q-175 -121 -455 -121q-94 0 -190 18q-96 19 -195 56z" />
<glyph unicode="&#x1be;" horiz-adv-x="1045" d="M-41 41l33 172q66 -40 145 -64q74 -22 154 -22q179 0 300 114q70 65 96 198q19 98 -24 174q-64 114 -256 114h-62l55 271h-229l32 164h229l54 276h202l-54 -276h231l-32 -164h-231l-26 -125q164 -30 253 -149q85 -115 52 -285q-36 -186 -170 -311q-168 -157 -443 -157 q-85 0 -162 18q-78 17 -147 52z" />
<glyph unicode="&#x1bf;" horiz-adv-x="1300" d="M-11 -426l301 1546h185l-33 -170q68 70 216 148q90 49 300 49q184 0 239 -112q37 -74 37 -165q0 -48 -10 -101q-83 -425 -991 -891l-59 -304h-185zM269 60q704 400 752 649q10 50 10 90q0 69 -28 109q-42 65 -160 65h-4q-220 0 -439 -239q-66 -337 -131 -674z" />
<glyph unicode="&#x1c0;" horiz-adv-x="604" d="M14 -426l374 1919h202l-374 -1919h-202z" />
<glyph unicode="&#x1c1;" horiz-adv-x="1008" d="M14 -426l374 1919h202l-374 -1919h-202zM418 -426l374 1919h202l-374 -1919h-202z" />
<glyph unicode="&#x1c2;" horiz-adv-x="940" d="M-26 298l33 170h351l47 240h-351l33 168h351l120 617h202l-120 -617h351l-33 -168h-351l-47 -240h351l-33 -170h-351l-141 -724h-202l141 724h-351z" />
<glyph unicode="&#x1c3;" horiz-adv-x="605" d="M54 0l51 254h203l-49 -254h-205zM168 481l50 357l127 655h202l-127 -655l-90 -357h-162z" />
<glyph unicode="&#x1c4;" horiz-adv-x="2980" d="M55 0l291 1493h434q346 0 522.5 -146.5t176.5 -435.5q0 -191 -67 -367.5t-185 -297.5q-119 -124 -302 -185t-433 -61h-437zM291 166h264q339 0 525 195t186 550q0 215 -120 315.5t-376 100.5h-254zM1532 0l29 154l1157 1169h-905l32 170h1172l-29 -154l-1157 -1169h952 l-32 -170h-1219zM2181 1901h134l139 -178l209 178h151l-262 -266h-213z" />
<glyph unicode="&#x1c5;" horiz-adv-x="2652" d="M55 0l291 1493h434q346 0 522.5 -146.5t176.5 -435.5q0 -191 -67 -367.5t-185 -297.5q-119 -124 -302 -185t-433 -61h-437zM291 166h264q339 0 525 195t186 550q0 215 -120 315.5t-376 100.5h-254zM1571 0l33 168l843 805h-661l29 147h874l-33 -168l-843 -805h696 l-29 -147h-909zM2014 1638h141l127 -237l231 237h140l-320 -376h-147z" />
<glyph unicode="&#x1c6;" horiz-adv-x="2375" d="M94 399q0 166 59 316.5t171 269.5q74 79 167 120.5t195 41.5q108 0 190.5 -52t127.5 -149l120 610h185l-303 -1556h-185l35 168q-74 -97 -175 -147t-224 -50q-168 0 -265.5 114.5t-97.5 313.5zM285 432q0 -145 65.5 -226t181.5 -81q86 0 159.5 41.5t129.5 122.5 q59 84 93 194t34 217q0 139 -65.5 217t-180.5 78q-87 0 -162 -41t-128 -118q-58 -83 -92.5 -193t-34.5 -211zM1294 0l33 168l843 805h-661l29 147h874l-33 -168l-843 -805h696l-29 -147h-909zM1737 1638h141l127 -237l231 237h140l-320 -376h-147z" />
<glyph unicode="&#x1c7;" horiz-adv-x="1745" d="M55 0l289 1493h203l-256 -1325h727l-33 -168h-930zM805 -410l33 170h63q135 0 205 77t107 267l270 1389h203l-271 -1389q-53 -271 -178.5 -392.5t-351.5 -121.5h-80z" />
<glyph unicode="&#x1c8;" horiz-adv-x="1710" d="M55 0l289 1493h203l-256 -1325h727l-33 -168h-930zM910 -426l30 156h47q108 0 153.5 45t76.5 205l221 1140h184l-221 -1140l-1 -5q-37 -191 -85 -262q-45 -67 -131.5 -103t-204.5 -36h-69zM1479 1323l45 233h184l-45 -233h-184z" />
<glyph unicode="&#x1c9;" horiz-adv-x="1138" d="M72 0l303 1556h184l-303 -1556h-184zM338 -426l30 156h47q108 0 153.5 45t76.5 205l221 1140h184l-221 -1140l-1 -5q-37 -191 -85 -262q-45 -67 -131.5 -103t-204.5 -36h-69zM907 1323l45 233h184l-45 -233h-184z" />
<glyph unicode="&#x1ca;" horiz-adv-x="2136" d="M55 0l291 1493h272l412 -1280l250 1280h197l-291 -1493h-273l-411 1288l-250 -1288h-197zM1196 -410l33 170h63q135 0 205 77t107 267l270 1389h203l-271 -1389q-53 -271 -178.5 -392.5t-351.5 -121.5h-80z" />
<glyph unicode="&#x1cb;" horiz-adv-x="2101" d="M55 0l291 1493h272l412 -1280l250 1280h197l-291 -1493h-273l-411 1288l-250 -1288h-197zM1301 -426l30 156h47q108 0 153.5 45t76.5 205l221 1140h184l-221 -1140l-1 -5q-37 -191 -85 -262q-45 -67 -131.5 -103t-204.5 -36h-69zM1870 1323l45 233h184l-45 -233h-184z " />
<glyph unicode="&#x1cc;" horiz-adv-x="1867" d="M72 0l217 1120h184l-37 -176q77 97 185 150t227 53q148 0 229.5 -80t81.5 -225q0 -36 -4.5 -77t-13.5 -89l-131 -676h-185l131 669q9 47 14 83t5 57q0 84 -53 131t-148 47q-148 0 -255 -98.5t-140 -267.5l-123 -621h-184zM1067 -426l30 156h47q108 0 153.5 45t76.5 205 l221 1140h184l-221 -1140l-1 -5q-37 -191 -85 -262q-45 -67 -131.5 -103t-204.5 -36h-69zM1636 1323l45 233h184l-45 -233h-184z" />
<glyph unicode="&#x1cd;" horiz-adv-x="1401" d="M-109 0l863 1493h229l277 -1493h-211l-62 383h-672l-211 -383h-213zM408 551h548l-129 743zM618 1901h134l139 -178l209 178h151l-262 -266h-213z" />
<glyph unicode="&#x1ce;" horiz-adv-x="1255" d="M84 283q0 196 156.5 310t431.5 114h256l10 49q2 8 3 17.5t1 29.5q0 89 -72.5 138.5t-203.5 49.5q-90 0 -184.5 -23t-194.5 -69l32 170q104 39 203.5 58.5t192.5 19.5q198 0 301.5 -86t103.5 -250q0 -33 -5 -77.5t-15 -94.5l-125 -639h-184l34 170q-81 -100 -184.5 -149.5 t-230.5 -49.5q-143 0 -234.5 87.5t-91.5 224.5zM274 315q0 -88 55.5 -138t153.5 -50q150 0 262 107.5t148 287.5l8 41h-184q-226 0 -334.5 -60.5t-108.5 -187.5zM500 1638h141l127 -237l231 237h140l-320 -376h-147z" />
<glyph unicode="&#x1cf;" horiz-adv-x="604" d="M55 0l291 1493h203l-291 -1493h-203zM214 1901h134l139 -178l209 178h151l-262 -266h-213z" />
<glyph unicode="&#x1d0;" horiz-adv-x="569" d="M72 0l219 1120h184l-219 -1120h-184zM180 1638h141l127 -237l231 237h140l-320 -376h-147z" />
<glyph unicode="&#x1d1;" horiz-adv-x="1612" d="M82 580q0 162 61.5 331t169.5 301q127 155 283 231.5t344 76.5q274 0 432 -161.5t158 -440.5q0 -172 -60 -338t-172 -301q-128 -156 -282.5 -232t-343.5 -76q-275 0 -432.5 163t-157.5 446zM297 569q0 -208 99.5 -321t281.5 -113q164 0 292.5 81.5t219.5 242.5 q61 108 93 226.5t32 236.5q0 207 -100 320.5t-281 113.5q-166 0 -293 -80.5t-221 -245.5q-60 -105 -91.5 -223t-31.5 -238zM737 1901h134l139 -178l209 178h151l-262 -266h-213z" />
<glyph unicode="&#x1d2;" horiz-adv-x="1253" d="M94 424q0 122 39.5 248.5t102.5 212.5q99 134 221 198t276 64q191 0 308.5 -119t117.5 -311q0 -133 -39 -265t-102 -219q-98 -134 -220 -198t-278 -64q-197 0 -311.5 121.5t-114.5 331.5zM285 430q0 -152 63.5 -227.5t192.5 -75.5q185 0 306.5 161.5t121.5 409.5 q0 145 -65 219t-191 74q-104 0 -185 -48.5t-145 -147.5q-47 -74 -72.5 -169t-25.5 -196zM585 1638h141l127 -237l231 237h140l-320 -376h-147z" />
<glyph unicode="&#x1d3;" horiz-adv-x="1499" d="M119 389q0 35 5 78.5t15 93.5l178 932h203l-176 -907q-11 -61 -15.5 -100.5t-4.5 -69.5q0 -138 77 -209.5t226 -71.5q193 0 300.5 106t153.5 345l176 907h203l-180 -932q-59 -302 -224 -446t-452 -144q-224 0 -354.5 112.5t-130.5 305.5zM639 1901h134l139 -178l209 178 h151l-262 -266h-213z" />
<glyph unicode="&#x1d4;" horiz-adv-x="1298" d="M117 276q0 30 5 75t15 93l131 676h185l-131 -669q-10 -49 -14.5 -84t-4.5 -58q0 -85 52 -131.5t147 -46.5q148 0 256 100t141 269l123 620h184l-217 -1120h-184l37 176q-78 -98 -185.5 -151.5t-228.5 -53.5q-147 0 -229 80.5t-82 224.5zM530 1638h141l127 -237l231 237 h140l-320 -376h-147z" />
<glyph unicode="&#x1d5;" horiz-adv-x="1499" d="M119 389q0 35 5 78.5t15 93.5l178 932h203l-176 -907q-11 -61 -15.5 -100.5t-4.5 -69.5q0 -138 77 -209.5t226 -71.5q193 0 300.5 106t153.5 345l176 907h203l-180 -932q-59 -302 -224 -446t-452 -144q-224 0 -354.5 112.5t-130.5 305.5zM645 1635l39 203h204l-41 -203 h-202zM705 1951l29 148h598l-29 -148h-598zM1036 1635l39 203h202l-38 -203h-203z" />
<glyph unicode="&#x1d6;" horiz-adv-x="1298" d="M117 276q0 30 5 75t15 93l131 676h185l-131 -669q-10 -49 -14.5 -84t-4.5 -58q0 -85 52 -131.5t147 -46.5q148 0 256 100t141 269l123 620h184l-217 -1120h-184l37 176q-78 -98 -185.5 -151.5t-228.5 -53.5q-147 0 -229 80.5t-82 224.5zM483 1350l39 202h205l-41 -202 h-203zM538 1693l29 148h598l-29 -148h-598zM874 1350l39 202h203l-39 -202h-203z" />
<glyph unicode="&#x1d7;" horiz-adv-x="1499" d="M119 389q0 35 5 78.5t15 93.5l178 932h203l-176 -907q-11 -61 -15.5 -100.5t-4.5 -69.5q0 -138 77 -209.5t226 -71.5q193 0 300.5 106t153.5 345l176 907h203l-180 -932q-59 -302 -224 -446t-452 -144q-224 0 -354.5 112.5t-130.5 305.5zM615 1641l39 203h204l-41 -203 h-202zM870 1880l258 264h207l-307 -264h-158zM1006 1641l39 203h202l-38 -203h-203z" />
<glyph unicode="&#x1d8;" horiz-adv-x="1298" d="M117 276q0 30 5 75t15 93l131 676h185l-131 -669q-10 -49 -14.5 -84t-4.5 -58q0 -85 52 -131.5t147 -46.5q148 0 256 100t141 269l123 620h184l-217 -1120h-184l37 176q-78 -98 -185.5 -151.5t-228.5 -53.5q-147 0 -229 80.5t-82 224.5zM483 1347l39 203h204l-41 -203 h-202zM738 1586l258 264h207l-307 -264h-158zM874 1347l39 203h202l-38 -203h-203z" />
<glyph unicode="&#x1d9;" horiz-adv-x="1499" d="M119 389q0 35 5 78.5t15 93.5l178 932h203l-176 -907q-11 -61 -15.5 -100.5t-4.5 -69.5q0 -138 77 -209.5t226 -71.5q193 0 300.5 106t153.5 345l176 907h203l-180 -932q-59 -302 -224 -446t-452 -144q-224 0 -354.5 112.5t-130.5 305.5zM609 1635l39 203h204l-41 -203 h-202zM691 2138h134l139 -178l209 178h151l-262 -266h-213zM1000 1635l39 203h202l-38 -203h-203z" />
<glyph unicode="&#x1da;" horiz-adv-x="1298" d="M117 276q0 30 5 75t15 93l131 676h185l-131 -669q-10 -49 -14.5 -84t-4.5 -58q0 -85 52 -131.5t147 -46.5q148 0 256 100t141 269l123 620h184l-217 -1120h-184l37 176q-78 -98 -185.5 -151.5t-228.5 -53.5q-147 0 -229 80.5t-82 224.5zM483 1353l39 203h204l-41 -203 h-202zM565 1856h134l139 -178l209 178h151l-262 -266h-213zM874 1353l39 203h202l-38 -203h-203z" />
<glyph unicode="&#x1db;" horiz-adv-x="1499" d="M119 389q0 35 5 78.5t15 93.5l178 932h203l-176 -907q-11 -61 -15.5 -100.5t-4.5 -69.5q0 -138 77 -209.5t226 -71.5q193 0 300.5 106t153.5 345l176 907h203l-180 -932q-59 -302 -224 -446t-452 -144q-224 0 -354.5 112.5t-130.5 305.5zM609 1635l39 203h204l-41 -203 h-202zM707 2138h182l148 -264h-140zM1000 1635l39 203h202l-38 -203h-203z" />
<glyph unicode="&#x1dc;" horiz-adv-x="1298" d="M117 276q0 30 5 75t15 93l131 676h185l-131 -669q-10 -49 -14.5 -84t-4.5 -58q0 -85 52 -131.5t147 -46.5q148 0 256 100t141 269l123 620h184l-217 -1120h-184l37 176q-78 -98 -185.5 -151.5t-228.5 -53.5q-147 0 -229 80.5t-82 224.5zM483 1347l39 203h204l-41 -203 h-202zM581 1850h182l148 -264h-140zM874 1347l39 203h202l-38 -203h-203z" />
<glyph unicode="&#x1dd;" horiz-adv-x="1260" d="M104 512l17 90h846q25 190 -58 290q-83 99 -266 99q-106 0 -210 -26q-105 -26 -213 -78l34 174q107 42 215 64t215 22q268 0 394 -156q127 -156 75 -422q-54 -275 -234 -437q-179 -161 -431 -161q-226 0 -330 145q-103 146 -54 396zM277 458q-27 -151 39 -241 q64 -90 200 -90q154 0 263 87q110 87 155 245z" />
<glyph unicode="&#x1de;" horiz-adv-x="1401" d="M-109 0l863 1493h229l277 -1493h-211l-62 383h-672l-211 -383h-213zM408 551h548l-129 743zM596 1635l39 203h204l-41 -203h-202zM656 1951l29 148h598l-29 -148h-598zM987 1635l39 203h202l-38 -203h-203z" />
<glyph unicode="&#x1df;" horiz-adv-x="1255" d="M84 283q0 196 156.5 310t431.5 114h256l10 49q2 8 3 17.5t1 29.5q0 89 -72.5 138.5t-203.5 49.5q-90 0 -184.5 -23t-194.5 -69l32 170q104 39 203.5 58.5t192.5 19.5q198 0 301.5 -86t103.5 -250q0 -33 -5 -77.5t-15 -94.5l-125 -639h-184l34 170q-81 -100 -184.5 -149.5 t-230.5 -49.5q-143 0 -234.5 87.5t-91.5 224.5zM274 315q0 -88 55.5 -138t153.5 -50q150 0 262 107.5t148 287.5l8 41h-184q-226 0 -334.5 -60.5t-108.5 -187.5zM477 1350l39 202h205l-41 -202h-203zM496 1693l29 148h598l-29 -148h-598zM868 1350l39 202h203l-39 -202h-203 z" />
<glyph unicode="&#x1e0;" horiz-adv-x="1401" d="M-109 0l863 1493h229l277 -1493h-211l-62 383h-672l-211 -383h-213zM408 551h548l-129 743zM658 1951l29 148h598l-29 -148h-598zM789 1630l41 205h203l-39 -205h-205z" />
<glyph unicode="&#x1e1;" horiz-adv-x="1255" d="M84 283q0 196 156.5 310t431.5 114h256l10 49q2 8 3 17.5t1 29.5q0 89 -72.5 138.5t-203.5 49.5q-90 0 -184.5 -23t-194.5 -69l32 170q104 39 203.5 58.5t192.5 19.5q198 0 301.5 -86t103.5 -250q0 -33 -5 -77.5t-15 -94.5l-125 -639h-184l34 170q-81 -100 -184.5 -149.5 t-230.5 -49.5q-143 0 -234.5 87.5t-91.5 224.5zM274 315q0 -88 55.5 -138t153.5 -50q150 0 262 107.5t148 287.5l8 41h-184q-226 0 -334.5 -60.5t-108.5 -187.5zM546 1629l29 148h598l-29 -148h-598zM677 1308l41 205h203l-39 -205h-205z" />
<glyph unicode="&#x1e2;" horiz-adv-x="1995" d="M-92 0l915 1493h1213l-33 -170h-741l-88 -442h712l-33 -170h-712l-105 -541h760l-33 -170h-962l73 383h-526l-235 -383h-205zM449 551h458l154 784h-129zM1108 1696l29 148h598l-29 -148h-598z" />
<glyph unicode="&#x1e3;" horiz-adv-x="2038" d="M84 283q0 196 156.5 310t431.5 114h256l10 49q2 8 3 17.5t1 29.5q0 89 -72.5 138.5t-203.5 49.5q-90 0 -184.5 -23t-194.5 -69l32 170q104 39 203.5 58.5t192.5 19.5q144 0 237 -45t138 -137q86 90 198 136t244 46q190 0 303 -114t113 -306q0 -46 -6.5 -98.5 t-18.5 -112.5h-856q-6 -38 -8 -60t-2 -38q0 -139 85.5 -215t241.5 -76q120 0 227.5 27t198.5 79l-34 -182q-100 -40 -205.5 -60t-214.5 -20q-168 0 -281.5 57.5t-169.5 170.5q-102 -118 -212 -173t-242 -55q-174 0 -270.5 82t-96.5 230zM274 315q0 -88 55.5 -138t153.5 -50 q150 0 262 107.5t148 287.5l8 41h-184q-226 0 -334.5 -60.5t-108.5 -187.5zM869 1374l29 148h598l-29 -148h-598zM1102 659l661 1q3 16 4.5 33t1.5 34q0 122 -71 193t-195 71q-137 0 -242 -86.5t-159 -245.5z" />
<glyph unicode="&#x1e4;" horiz-adv-x="1587" d="M92 561q0 231 96 439q97 209 267 348q107 87 234 130q127 42 282 42q140 0 269 -36q128 -35 245 -106l-41 -215q-90 94 -211 143q-121 50 -258 50q-159 0 -280 -60q-121 -61 -216 -188q-81 -108 -127 -254q-47 -147 -47 -299q0 -209 107 -315q107 -105 319 -105 q106 0 205 23q99 22 182 65l32 158h-230l28 88h219l29 145h-332l31 166h530l-61 -311h158l-28 -88h-147l-51 -258q-133 -73 -290 -113q-157 -39 -316 -39q-281 0 -440 156q-158 156 -158 434z" />
<glyph unicode="&#x1e5;" horiz-adv-x="1300" d="M66 -367l34 179q68 -44 144 -65t162 -21q175 0 288 96l26 24h-307l34 70h327q47 76 68 180l16 84q-77 -88 -179 -134t-220 -46q-170 0 -267 112q-98 113 -98 310q0 155 59 304q59 148 166 263q71 76 165 117q95 41 198 41q113 0 197 -53q84 -52 125 -148l32 174h185 l-191 -981q-24 -126 -68 -222l172 -1l-33 -70h-175q-46 -77 -106 -132q-156 -140 -419 -140q-97 0 -180 14q-83 15 -155 45zM285 440q0 -138 65 -212q64 -74 185 -74q175 0 292 158q117 159 117 397q0 136 -64 210t-182 74q-73 0 -139 -29t-113 -81q-76 -86 -118 -203 q-43 -116 -43 -240z" />
<glyph unicode="&#x1e6;" horiz-adv-x="1587" d="M92 561q0 231 96.5 439.5t266.5 347.5q107 87 234 129.5t282 42.5q140 0 268.5 -35.5t245.5 -106.5l-41 -215q-90 94 -211 143.5t-258 49.5q-159 0 -280 -60.5t-216 -187.5q-81 -108 -127.5 -254.5t-46.5 -298.5q0 -209 107 -314.5t319 -105.5q106 0 205 22.5t182 65.5 l78 391h-332l31 166h530l-129 -657q-133 -73 -290 -112.5t-316 -39.5q-281 0 -439.5 156t-158.5 434zM660 1901h134l139 -178l209 178h151l-262 -266h-213z" />
<glyph unicode="&#x1e7;" horiz-adv-x="1300" d="M66 -367l34 179q68 -44 144 -65t162 -21q175 0 287.5 95.5t148.5 274.5l16 84q-77 -88 -179 -134t-220 -46q-170 0 -267.5 112.5t-97.5 309.5q0 155 59 303.5t166 263.5q71 76 165.5 117t197.5 41q113 0 197 -52.5t125 -148.5l32 174h185l-191 -981q-55 -285 -210.5 -425 t-418.5 -140q-97 0 -180 14.5t-155 44.5zM285 440q0 -138 64.5 -212t185.5 -74q175 0 292 158.5t117 396.5q0 136 -64 210t-182 74q-73 0 -139 -29t-113 -81q-76 -86 -118.5 -202.5t-42.5 -240.5zM565 1638h141l127 -237l231 237h140l-320 -376h-147z" />
<glyph unicode="&#x1e8;" horiz-adv-x="1343" d="M55 0l291 1493h203l-123 -629l784 629h269l-887 -713l649 -780h-246l-596 727l-141 -727h-203zM660 1901h134l139 -178l209 178h151l-262 -266h-213z" />
<glyph unicode="&#x1e9;" horiz-adv-x="1186" d="M72 0l303 1556h184l-176 -907l631 471h239l-704 -536l514 -584h-223l-478 547l-106 -547h-184zM247 1901h134l139 -178l209 178h151l-262 -266h-213z" />
<glyph unicode="&#x1ea;" horiz-adv-x="1612" d="M82 580q0 162 61.5 331t169.5 301q127 155 283 231.5t344 76.5q274 0 432 -161.5t158 -440.5q0 -172 -60 -338t-172 -301q-128 -156 -282.5 -232t-343.5 -76q-275 0 -432.5 163t-157.5 446zM297 569q0 -208 99.5 -321t281.5 -113q164 0 292.5 81.5t219.5 242.5 q61 108 93 226.5t32 236.5q0 207 -100 320.5t-281 113.5q-166 0 -293 -80.5t-221 -245.5q-60 -105 -91.5 -223t-31.5 -238zM449 -246q0 52 38.5 113.5t114.5 132.5h119q-64 -67 -95.5 -117.5t-31.5 -85.5t22.5 -52t67.5 -17q29 0 63.5 7.5t71.5 22.5l-24 -132 q-37 -12 -72.5 -17.5t-66.5 -5.5q-103 0 -155 38t-52 113z" />
<glyph unicode="&#x1eb;" horiz-adv-x="1253" d="M94 424q0 122 39.5 248.5t102.5 212.5q99 134 221 198t276 64q191 0 308.5 -119t117.5 -311q0 -133 -39 -265t-102 -219q-98 -134 -220 -198t-278 -64q-197 0 -311.5 121.5t-114.5 331.5zM285 430q0 -152 63.5 -227.5t192.5 -75.5q185 0 306.5 161.5t121.5 409.5 q0 145 -65 219t-191 74q-104 0 -185 -48.5t-145 -147.5q-47 -74 -72.5 -169t-25.5 -196zM315 -246q0 52 38.5 113.5t114.5 132.5h119q-64 -67 -95.5 -117.5t-31.5 -85.5t22.5 -52t67.5 -17q29 0 63.5 7.5t71.5 22.5l-24 -132q-37 -12 -72.5 -17.5t-66.5 -5.5q-103 0 -155 38 t-52 113z" />
<glyph unicode="&#x1ec;" horiz-adv-x="1612" d="M82 580q0 162 61.5 331t169.5 301q127 155 283 231.5t344 76.5q274 0 432 -161.5t158 -440.5q0 -172 -60 -338t-172 -301q-128 -156 -282.5 -232t-343.5 -76q-275 0 -432.5 163t-157.5 446zM297 569q0 -208 99.5 -321t281.5 -113q164 0 292.5 81.5t219.5 242.5 q61 108 93 226.5t32 236.5q0 207 -100 320.5t-281 113.5q-166 0 -293 -80.5t-221 -245.5q-60 -105 -91.5 -223t-31.5 -238zM449 -246q0 52 38.5 113.5t114.5 132.5h119q-64 -67 -95.5 -117.5t-31.5 -85.5t22.5 -52t67.5 -17q29 0 63.5 7.5t71.5 22.5l-24 -132 q-37 -12 -72.5 -17.5t-66.5 -5.5q-103 0 -155 38t-52 113zM676 1693l29 148h598l-29 -148h-598z" />
<glyph unicode="&#x1ed;" horiz-adv-x="1253" d="M94 424q0 122 39.5 248.5t102.5 212.5q99 134 221 198t276 64q191 0 308.5 -119t117.5 -311q0 -133 -39 -265t-102 -219q-98 -134 -220 -198t-278 -64q-197 0 -311.5 121.5t-114.5 331.5zM285 430q0 -152 63.5 -227.5t192.5 -75.5q185 0 306.5 161.5t121.5 409.5 q0 145 -65 219t-191 74q-104 0 -185 -48.5t-145 -147.5q-47 -74 -72.5 -169t-25.5 -196zM315 -246q0 52 38.5 113.5t114.5 132.5h119q-64 -67 -95.5 -117.5t-31.5 -85.5t22.5 -52t67.5 -17q29 0 63.5 7.5t71.5 22.5l-24 -132q-37 -12 -72.5 -17.5t-66.5 -5.5q-103 0 -155 38 t-52 113zM496 1377l29 148h598l-29 -148h-598z" />
<glyph unicode="&#x1ee;" horiz-adv-x="1364" d="M47 11l38 195q97 -49 219 -74q121 -25 258 -25q192 0 305 75q115 75 143 218q26 134 -52 207q-79 74 -244 74h-174l33 166l477 476h-772l33 170h1024l-32 -168l-504 -476q106 0 223 -56q90 -42 155 -151q61 -104 34 -242q-30 -151 -105 -236l-36 -41q-26 -29 -78 -65 q-175 -121 -455 -121q-119 0 -241 19q-122 18 -249 55zM604 1901h134l139 -178l209 178h151l-262 -266h-213z" />
<glyph unicode="&#x1ef;" horiz-adv-x="1075" d="M-97 -362l38 195q75 -49 170 -74t204 -25q190 0 303 75q115 75 143 218q25 132 -52 207q-79 74 -244 74h-174l33 166l527 499h-667l28 147h874l-32 -168l-504 -476q106 0 223 -56q90 -42 155 -151q61 -104 34 -242q-43 -221 -219 -342q-175 -121 -455 -121q-94 0 -190 18 q-96 19 -195 56zM433 1625h141l127 -237l231 237h140l-320 -376h-147z" />
<glyph unicode="&#x1f0;" horiz-adv-x="569" d="M-231 -426l30 156h47q108 0 153.5 45t76.5 205l221 1140h184l-221 -1140l-1 -5q-37 -191 -85 -262q-45 -67 -131.5 -103t-204.5 -36h-69zM163 1625h141l127 -237l231 237h140l-320 -376h-147z" />
<glyph unicode="&#x1f1;" horiz-adv-x="2980" d="M55 0l291 1493h434q346 0 522.5 -146.5t176.5 -435.5q0 -191 -67 -367.5t-185 -297.5q-119 -124 -302 -185t-433 -61h-437zM291 166h264q339 0 525 195t186 550q0 215 -120 315.5t-376 100.5h-254zM1532 0l29 154l1157 1169h-905l32 170h1172l-29 -154l-1157 -1169h952 l-32 -170h-1219z" />
<glyph unicode="&#x1f2;" horiz-adv-x="2652" d="M55 0l291 1493h434q346 0 522.5 -146.5t176.5 -435.5q0 -191 -67 -367.5t-185 -297.5q-119 -124 -302 -185t-433 -61h-437zM291 166h264q339 0 525 195t186 550q0 215 -120 315.5t-376 100.5h-254zM1571 0l33 168l843 805h-661l29 147h874l-33 -168l-843 -805h696 l-29 -147h-909z" />
<glyph unicode="&#x1f3;" horiz-adv-x="2375" d="M94 399q0 166 59 316.5t171 269.5q74 79 167 120.5t195 41.5q108 0 190.5 -52t127.5 -149l120 610h185l-303 -1556h-185l35 168q-74 -97 -175 -147t-224 -50q-168 0 -265.5 114.5t-97.5 313.5zM285 432q0 -145 65.5 -226t181.5 -81q86 0 159.5 41.5t129.5 122.5 q59 84 93 194t34 217q0 139 -65.5 217t-180.5 78q-87 0 -162 -41t-128 -118q-58 -83 -92.5 -193t-34.5 -211zM1294 0l33 168l843 805h-661l29 147h874l-33 -168l-843 -805h696l-29 -147h-909z" />
<glyph unicode="&#x1f4;" horiz-adv-x="1587" d="M92 561q0 231 96.5 439.5t266.5 347.5q107 87 234 129.5t282 42.5q140 0 268.5 -35.5t245.5 -106.5l-41 -215q-90 94 -211 143.5t-258 49.5q-159 0 -280 -60.5t-216 -187.5q-81 -108 -127.5 -254.5t-46.5 -298.5q0 -209 107 -314.5t319 -105.5q106 0 205 22.5t182 65.5 l78 391h-332l31 166h530l-129 -657q-133 -73 -290 -112.5t-316 -39.5q-281 0 -439.5 156t-158.5 434zM780 1636l258 264h207l-307 -264h-158z" />
<glyph unicode="&#x1f5;" horiz-adv-x="1300" d="M66 -367l34 179q68 -44 144 -65t162 -21q175 0 287.5 95.5t148.5 274.5l16 84q-77 -88 -179 -134t-220 -46q-170 0 -267.5 112.5t-97.5 309.5q0 155 59 303.5t166 263.5q71 76 165.5 117t197.5 41q113 0 197 -52.5t125 -148.5l32 174h185l-191 -981q-55 -285 -210.5 -425 t-418.5 -140q-97 0 -180 14.5t-155 44.5zM285 440q0 -138 64.5 -212t185.5 -74q175 0 292 158.5t117 396.5q0 136 -64 210t-182 74q-73 0 -139 -29t-113 -81q-76 -86 -118.5 -202.5t-42.5 -240.5zM431 1262l354 376h199l-399 -376h-154z" />
<glyph unicode="&#x1f6;" horiz-adv-x="2279" d="M59 0l290 1493h202l-119 -612h734l119 612h202l-203 -1044q-31 -159 16 -239q46 -78 198 -79q148 0 230 79q76 75 108 239l130 671h202l-131 -678q-44 -223 -169 -351q-119 -120 -401 -120q-275 0 -355 120q-77 118 -31 351l52 269h-734l-138 -711h-202z" />
<glyph unicode="&#x1f7;" horiz-adv-x="1397" d="M-28 -426l373 1919h202l-36 -185q70 72 232 159q97 53 323 53q198 0 258 -120q39 -80 39 -178q0 -51 -11 -108q-88 -457 -1065 -958l-113 -582h-202zM325 351q757 430 809 698q10 53 10 96q0 73 -30 118q-46 70 -175 70q-237 0 -473 -257z" />
<glyph unicode="&#x1f8;" horiz-adv-x="1532" d="M55 0l291 1493h272l412 -1280l250 1280h197l-291 -1493h-273l-411 1288l-250 -1288h-197zM736 1899h182l148 -264h-140z" />
<glyph unicode="&#x1f9;" horiz-adv-x="1298" d="M72 0l217 1120h184l-37 -176q77 97 185 150t227 53q148 0 229.5 -80t81.5 -225q0 -36 -4.5 -77t-13.5 -89l-131 -676h-185l131 669q9 47 14 83t5 57q0 84 -53 131t-148 47q-148 0 -255 -98.5t-140 -267.5l-123 -621h-184zM435 1638h197l209 -374h-154z" />
<glyph unicode="&#x1fa;" horiz-adv-x="1401" d="M-109 0l814 1407q-54 37 -82.5 93.5t-28.5 125.5q0 114 80 194.5t194 80.5t194.5 -80.5t80.5 -194.5q0 -79 -36.5 -140t-105.5 -97l259 -1389h-211l-62 383h-672l-211 -383h-213zM408 551h548l-129 743zM717 1626q0 -63 43.5 -107t107.5 -44q63 0 107.5 44t44.5 107 t-44.5 107.5t-107.5 44.5q-64 0 -107.5 -43.5t-43.5 -108.5zM1145 1636l258 264h207l-307 -264h-158z" />
<glyph unicode="&#x1fb;" horiz-adv-x="1255" d="M84 283q0 196 156.5 310t431.5 114h256l10 49q2 8 3 17.5t1 29.5q0 89 -72.5 138.5t-203.5 49.5q-90 0 -184.5 -23t-194.5 -69l32 170q104 39 203.5 58.5t192.5 19.5q198 0 301.5 -86t103.5 -250q0 -33 -5 -77.5t-15 -94.5l-125 -639h-184l34 170q-81 -100 -184.5 -149.5 t-230.5 -49.5q-143 0 -234.5 87.5t-91.5 224.5zM274 315q0 -88 55.5 -138t153.5 -50q150 0 262 107.5t148 287.5l8 41h-184q-226 0 -334.5 -60.5t-108.5 -187.5zM528 1524q0 116 79.5 195t194.5 79q116 0 195.5 -79t79.5 -195q0 -115 -79.5 -195t-195.5 -80 q-115 0 -194.5 80t-79.5 195zM651 1524q0 -66 42.5 -109t108.5 -43q67 0 109.5 43t42.5 109q0 64 -43.5 107.5t-108.5 43.5q-66 0 -108.5 -42.5t-42.5 -108.5zM1117 1636l258 264h207l-307 -264h-158z" />
<glyph unicode="&#x1fc;" horiz-adv-x="1995" d="M-92 0l915 1493h1213l-33 -170h-741l-88 -442h712l-33 -170h-712l-105 -541h760l-33 -170h-962l73 383h-526l-235 -383h-205zM449 551h458l154 784h-129zM1256 1636l258 264h207l-307 -264h-158z" />
<glyph unicode="&#x1fd;" horiz-adv-x="2038" d="M84 283q0 196 156.5 310t431.5 114h256l10 49q2 8 3 17.5t1 29.5q0 89 -72.5 138.5t-203.5 49.5q-90 0 -184.5 -23t-194.5 -69l32 170q104 39 203.5 58.5t192.5 19.5q144 0 237 -45t138 -137q86 90 198 136t244 46q190 0 303 -114t113 -306q0 -46 -6.5 -98.5 t-18.5 -112.5h-856q-6 -38 -8 -60t-2 -38q0 -139 85.5 -215t241.5 -76q120 0 227.5 27t198.5 79l-34 -182q-100 -40 -205.5 -60t-214.5 -20q-168 0 -281.5 57.5t-169.5 170.5q-102 -118 -212 -173t-242 -55q-174 0 -270.5 82t-96.5 230zM274 315q0 -88 55.5 -138t153.5 -50 q150 0 262 107.5t148 287.5l8 41h-184q-226 0 -334.5 -60.5t-108.5 -187.5zM701 1262l354 376h199l-399 -376h-154zM1102 659l661 1q3 16 4.5 33t1.5 34q0 122 -71 193t-195 71q-137 0 -242 -86.5t-159 -245.5z" />
<glyph unicode="&#x1fe;" horiz-adv-x="1612" d="M-70 33l230 213q-39 80 -58.5 162t-19.5 167q0 166 61 334t170 303q125 154 281.5 231t345.5 77q130 0 235 -38.5t189 -115.5l203 193l90 -99l-209 -198q40 -73 60 -157.5t20 -182.5q0 -177 -59 -342.5t-171 -300.5q-128 -156 -282.5 -232t-343.5 -76q-139 0 -247.5 42 t-184.5 124l-220 -203zM295 571q0 -45 6 -88.5t18 -87.5l904 840q-45 60 -118 90.5t-171 30.5q-165 0 -292.5 -81t-219.5 -243q-62 -109 -94.5 -228t-32.5 -233zM381 270q51 -68 124.5 -101.5t172.5 -33.5q164 0 292.5 81.5t219.5 242.5q62 112 93.5 229.5t31.5 239.5 q0 56 -6.5 102.5t-20.5 85.5zM895 1636l258 264h207l-307 -264h-158z" />
<glyph unicode="&#x1ff;" horiz-adv-x="1253" d="M-29 -10l183 182q-30 49 -45 112t-15 138q0 122 39.5 249.5t102.5 213.5q98 134 219.5 198t277.5 64q87 0 161 -26t132 -77l162 164l86 -86l-172 -172q28 -55 42.5 -117.5t14.5 -130.5q0 -124 -39.5 -253.5t-101.5 -215.5q-97 -134 -218.5 -198t-279.5 -64 q-87 0 -160.5 26.5t-130.5 78.5l-172 -170zM287 420q0 -47 1.5 -67.5t6.5 -37.5l606 607q-37 35 -83.5 52t-104.5 17q-186 0 -306 -160.5t-120 -410.5zM352 199q39 -37 84.5 -54.5t104.5 -17.5q189 0 308.5 163.5t119.5 426.5q0 39 -2 58t-6 34zM516 1262l354 376h199 l-399 -376h-154z" />
<glyph unicode="&#x200;" horiz-adv-x="1401" d="M-109 0l863 1493h229l277 -1493h-211l-62 383h-672l-211 -383h-213zM408 551h548l-129 743zM568 1904h182l148 -264h-140zM848 1904h182l148 -264h-140z" />
<glyph unicode="&#x201;" horiz-adv-x="1255" d="M84 283q0 196 156.5 310t431.5 114h256l10 49q2 8 3 17.5t1 29.5q0 89 -72.5 138.5t-203.5 49.5q-90 0 -184.5 -23t-194.5 -69l32 170q104 39 203.5 58.5t192.5 19.5q198 0 301.5 -86t103.5 -250q0 -33 -5 -77.5t-15 -94.5l-125 -639h-184l34 170q-81 -100 -184.5 -149.5 t-230.5 -49.5q-143 0 -234.5 87.5t-91.5 224.5zM274 315q0 -88 55.5 -138t153.5 -50q150 0 262 107.5t148 287.5l8 41h-184q-226 0 -334.5 -60.5t-108.5 -187.5zM343 1638h178l205 -376h-135zM685 1638h170l190 -376h-137z" />
<glyph unicode="&#x202;" horiz-adv-x="1401" d="M-109 0l863 1493h229l277 -1493h-211l-62 383h-672l-211 -383h-213zM408 551h548l-129 743zM625 1636q34 113 126 177.5t220 64.5q121 0 191 -60.5t90 -181.5h-119q-12 61 -51 88t-115 27q-86 0 -140 -27.5t-83 -87.5h-119z" />
<glyph unicode="&#x203;" horiz-adv-x="1255" d="M84 283q0 196 156.5 310t431.5 114h256l10 49q2 8 3 17.5t1 29.5q0 89 -72.5 138.5t-203.5 49.5q-90 0 -184.5 -23t-194.5 -69l32 170q104 39 203.5 58.5t192.5 19.5q198 0 301.5 -86t103.5 -250q0 -33 -5 -77.5t-15 -94.5l-125 -639h-184l34 170q-81 -100 -184.5 -149.5 t-230.5 -49.5q-143 0 -234.5 87.5t-91.5 224.5zM274 315q0 -88 55.5 -138t153.5 -50q150 0 262 107.5t148 287.5l8 41h-184q-226 0 -334.5 -60.5t-108.5 -187.5zM497 1321q32 139 127 213t241 74q128 0 194 -64.5t66 -189.5q0 -6 -1 -17t-1 -16h-114v15q0 68 -42 101.5 t-128 33.5q-85 0 -140 -36.5t-86 -113.5h-116z" />
<glyph unicode="&#x204;" horiz-adv-x="1294" d="M55 0l291 1493h944l-33 -170h-743l-86 -442h713l-33 -170h-713l-104 -541h760l-33 -170h-963zM463 1904h182l148 -264h-140zM743 1904h182l148 -264h-140z" />
<glyph unicode="&#x205;" horiz-adv-x="1260" d="M94 399q0 175 62.5 325.5t183.5 268.5q78 74 185.5 114t228.5 40q190 0 302.5 -114t112.5 -306q0 -46 -6 -98.5t-18 -112.5h-856q-6 -38 -8 -60t-2 -38q0 -139 85.5 -215t241.5 -76q120 0 227 27t199 79l-35 -182q-99 -40 -204.5 -60t-214.5 -20q-233 0 -358.5 111.5 t-125.5 316.5zM324 659l661 1q3 16 4.5 33t1.5 34q0 122 -71.5 193t-194.5 71q-137 0 -242 -86.5t-159 -245.5zM354 1638h178l205 -376h-135zM696 1638h170l190 -376h-137z" />
<glyph unicode="&#x206;" horiz-adv-x="1294" d="M55 0l291 1493h944l-33 -170h-743l-86 -442h713l-33 -170h-713l-104 -541h760l-33 -170h-963zM562 1636q34 113 126 177.5t220 64.5q121 0 191 -60.5t90 -181.5h-119q-12 61 -51 88t-115 27q-86 0 -140 -27.5t-83 -87.5h-119z" />
<glyph unicode="&#x207;" horiz-adv-x="1260" d="M94 399q0 175 62.5 325.5t183.5 268.5q78 74 185.5 114t228.5 40q190 0 302.5 -114t112.5 -306q0 -46 -6 -98.5t-18 -112.5h-856q-6 -38 -8 -60t-2 -38q0 -139 85.5 -215t241.5 -76q120 0 227 27t199 79l-35 -182q-99 -40 -204.5 -60t-214.5 -20q-233 0 -358.5 111.5 t-125.5 316.5zM324 659l661 1q3 16 4.5 33t1.5 34q0 122 -71.5 193t-194.5 71q-137 0 -242 -86.5t-159 -245.5zM508 1321q32 139 127 213t241 74q128 0 194 -64.5t66 -189.5q0 -6 -1 -17t-1 -16h-114v15q0 68 -42 101.5t-128 33.5q-85 0 -140 -36.5t-86 -113.5h-116z" />
<glyph unicode="&#x208;" horiz-adv-x="604" d="M55 0l291 1493h203l-291 -1493h-203zM134 1904h182l148 -264h-140zM414 1904h182l148 -264h-140z" />
<glyph unicode="&#x209;" horiz-adv-x="569" d="M46 1638h178l205 -376h-135zM72 0l219 1120h184l-219 -1120h-184zM388 1638h170l190 -376h-137z" />
<glyph unicode="&#x20a;" horiz-adv-x="604" d="M55 0l291 1493h203l-291 -1493h-203zM177 1636q34 113 126 177.5t220 64.5q121 0 191 -60.5t90 -181.5h-119q-12 61 -51 88t-115 27q-86 0 -140 -27.5t-83 -87.5h-119z" />
<glyph unicode="&#x20b;" horiz-adv-x="569" d="M72 0l219 1120h184l-219 -1120h-184zM130 1321q32 139 127 213t241 74q128 0 194 -64.5t66 -189.5q0 -6 -1 -17t-1 -16h-114v15q0 68 -42 101.5t-128 33.5q-85 0 -140 -36.5t-86 -113.5h-116z" />
<glyph unicode="&#x20c;" horiz-adv-x="1612" d="M82 580q0 162 61.5 331t169.5 301q127 155 283 231.5t344 76.5q274 0 432 -161.5t158 -440.5q0 -172 -60 -338t-172 -301q-128 -156 -282.5 -232t-343.5 -76q-275 0 -432.5 163t-157.5 446zM297 569q0 -208 99.5 -321t281.5 -113q164 0 292.5 81.5t219.5 242.5 q61 108 93 226.5t32 236.5q0 207 -100 320.5t-281 113.5q-166 0 -293 -80.5t-221 -245.5q-60 -105 -91.5 -223t-31.5 -238zM687 1904h182l148 -264h-140zM967 1904h182l148 -264h-140z" />
<glyph unicode="&#x20d;" horiz-adv-x="1253" d="M94 424q0 122 39.5 248.5t102.5 212.5q99 134 221 198t276 64q191 0 308.5 -119t117.5 -311q0 -133 -39 -265t-102 -219q-98 -134 -220 -198t-278 -64q-197 0 -311.5 121.5t-114.5 331.5zM285 430q0 -152 63.5 -227.5t192.5 -75.5q185 0 306.5 161.5t121.5 409.5 q0 145 -65 219t-191 74q-104 0 -185 -48.5t-145 -147.5q-47 -74 -72.5 -169t-25.5 -196zM325 1638h178l205 -376h-135zM667 1638h170l190 -376h-137z" />
<glyph unicode="&#x20e;" horiz-adv-x="1612" d="M82 580q0 162 61.5 331t169.5 301q127 155 283 231.5t344 76.5q274 0 432 -161.5t158 -440.5q0 -172 -60 -338t-172 -301q-128 -156 -282.5 -232t-343.5 -76q-275 0 -432.5 163t-157.5 446zM297 569q0 -208 99.5 -321t281.5 -113q164 0 292.5 81.5t219.5 242.5 q61 108 93 226.5t32 236.5q0 207 -100 320.5t-281 113.5q-166 0 -293 -80.5t-221 -245.5q-60 -105 -91.5 -223t-31.5 -238zM765 1636q34 113 126 177.5t220 64.5q121 0 191 -60.5t90 -181.5h-119q-12 61 -51 88t-115 27q-86 0 -140 -27.5t-83 -87.5h-119z" />
<glyph unicode="&#x20f;" horiz-adv-x="1253" d="M94 424q0 122 39.5 248.5t102.5 212.5q99 134 221 198t276 64q191 0 308.5 -119t117.5 -311q0 -133 -39 -265t-102 -219q-98 -134 -220 -198t-278 -64q-197 0 -311.5 121.5t-114.5 331.5zM285 430q0 -152 63.5 -227.5t192.5 -75.5q185 0 306.5 161.5t121.5 409.5 q0 145 -65 219t-191 74q-104 0 -185 -48.5t-145 -147.5q-47 -74 -72.5 -169t-25.5 -196zM508 1321q32 139 127 213t241 74q128 0 194 -64.5t66 -189.5q0 -6 -1 -17t-1 -16h-114v15q0 68 -42 101.5t-128 33.5q-85 0 -140 -36.5t-86 -113.5h-116z" />
<glyph unicode="&#x210;" horiz-adv-x="1423" d="M55 0l291 1493h455q207 0 317.5 -93.5t110.5 -269.5q0 -156 -94 -270t-248 -143q64 -15 106.5 -74t98.5 -235l127 -408h-213l-117 383q-45 148 -104 198t-181 50h-223l-123 -631h-203zM414 797h260q153 0 247.5 84.5t94.5 220.5q0 109 -63.5 167t-182.5 58h-254z M456 1904h182l148 -264h-140zM736 1904h182l148 -264h-140z" />
<glyph unicode="&#x211;" horiz-adv-x="842" d="M72 0l219 1120h184l-35 -174q73 97 174.5 149t216.5 52q30 0 59 -3.5t58 -11.5l-35 -182q-28 15 -64 23t-77 8q-147 0 -257 -111.5t-146 -298.5l-113 -571h-184zM213 1638h178l205 -376h-135zM555 1638h170l190 -376h-137z" />
<glyph unicode="&#x212;" horiz-adv-x="1423" d="M55 0l291 1493h455q207 0 317.5 -93.5t110.5 -269.5q0 -156 -94 -270t-248 -143q64 -15 106.5 -74t98.5 -235l127 -408h-213l-117 383q-45 148 -104 198t-181 50h-223l-123 -631h-203zM414 797h260q153 0 247.5 84.5t94.5 220.5q0 109 -63.5 167t-182.5 58h-254z M492 1636q34 113 126 177.5t220 64.5q121 0 191 -60.5t90 -181.5h-119q-12 61 -51 88t-115 27q-86 0 -140 -27.5t-83 -87.5h-119z" />
<glyph unicode="&#x213;" horiz-adv-x="842" d="M72 0l219 1120h184l-35 -174q73 97 174.5 149t216.5 52q30 0 59 -3.5t58 -11.5l-35 -182q-28 15 -64 23t-77 8q-147 0 -257 -111.5t-146 -298.5l-113 -571h-184zM367 1321q32 139 127 213t241 74q128 0 194 -64.5t66 -189.5q0 -6 -1 -17t-1 -16h-114v15q0 68 -42 101.5 t-128 33.5q-85 0 -140 -36.5t-86 -113.5h-116z" />
<glyph unicode="&#x214;" horiz-adv-x="1499" d="M119 389q0 35 5 78.5t15 93.5l178 932h203l-176 -907q-11 -61 -15.5 -100.5t-4.5 -69.5q0 -138 77 -209.5t226 -71.5q193 0 300.5 106t153.5 345l176 907h203l-180 -932q-59 -302 -224 -446t-452 -144q-224 0 -354.5 112.5t-130.5 305.5zM568 1904h182l148 -264h-140z M848 1904h182l148 -264h-140z" />
<glyph unicode="&#x215;" horiz-adv-x="1298" d="M117 276q0 30 5 75t15 93l131 676h185l-131 -669q-10 -49 -14.5 -84t-4.5 -58q0 -85 52 -131.5t147 -46.5q148 0 256 100t141 269l123 620h184l-217 -1120h-184l37 176q-78 -98 -185.5 -151.5t-228.5 -53.5q-147 0 -229 80.5t-82 224.5zM349 1638h178l205 -376h-135z M691 1638h170l190 -376h-137z" />
<glyph unicode="&#x216;" horiz-adv-x="1499" d="M119 389q0 35 5 78.5t15 93.5l178 932h203l-176 -907q-11 -61 -15.5 -100.5t-4.5 -69.5q0 -138 77 -209.5t226 -71.5q193 0 300.5 106t153.5 345l176 907h203l-180 -932q-59 -302 -224 -446t-452 -144q-224 0 -354.5 112.5t-130.5 305.5zM625 1636q34 113 126 177.5 t220 64.5q121 0 191 -60.5t90 -181.5h-119q-12 61 -51 88t-115 27q-86 0 -140 -27.5t-83 -87.5h-119z" />
<glyph unicode="&#x217;" horiz-adv-x="1298" d="M117 276q0 30 5 75t15 93l131 676h185l-131 -669q-10 -49 -14.5 -84t-4.5 -58q0 -85 52 -131.5t147 -46.5q148 0 256 100t141 269l123 620h184l-217 -1120h-184l37 176q-78 -98 -185.5 -151.5t-228.5 -53.5q-147 0 -229 80.5t-82 224.5zM503 1321q32 139 127 213t241 74 q128 0 194 -64.5t66 -189.5q0 -6 -1 -17t-1 -16h-114v15q0 68 -42 101.5t-128 33.5q-85 0 -140 -36.5t-86 -113.5h-116z" />
<glyph unicode="&#x218;" horiz-adv-x="1300" d="M12 66l41 208q111 -69 222.5 -104t222.5 -35q189 0 303 84t114 219q0 90 -45.5 136.5t-195.5 84.5l-121 31q-207 54 -282.5 124.5t-75.5 197.5q0 223 171.5 365.5t446.5 142.5q107 0 212 -19t210 -57l-39 -197q-101 54 -200.5 81.5t-192.5 27.5q-181 0 -288 -79 t-107 -210q0 -72 39.5 -110.5t203.5 -82.5l121 -30q205 -53 285 -134.5t80 -228.5q0 -226 -177.5 -368t-467.5 -142q-119 0 -239 23.5t-241 71.5zM357 -492l144 320h211l-226 -320h-129z" />
<glyph unicode="&#x219;" horiz-adv-x="1067" d="M23 41l36 190q101 -52 199 -79t188 -27q135 0 219.5 58t84.5 147q0 96 -222 155l-19 5l-63 16q-140 37 -205 97.5t-65 154.5q0 179 134.5 284t365.5 105q91 0 177.5 -15t170.5 -45l-35 -174q-73 40 -154 60t-167 20q-145 0 -228.5 -49.5t-83.5 -134.5q0 -99 194 -152 q15 -4 22 -6l59 -18q184 -51 245.5 -107t61.5 -153q0 -178 -141.5 -290t-370.5 -112q-89 0 -187 17t-216 53zM284 -492l144 320h211l-226 -320h-129z" />
<glyph unicode="&#x21a;" horiz-adv-x="1251" d="M88 1323l33 170h1263l-32 -170h-533l-256 -1323h-203l256 1323h-528zM290 -492l144 320h211l-226 -320h-129z" />
<glyph unicode="&#x21b;" horiz-adv-x="803" d="M131 977l29 143h153l62 318h184l-61 -318h368l-28 -143h-367l-119 -608q-6 -34 -9 -57t-3 -36q0 -64 38.5 -93t123.5 -29h186l-31 -154h-176q-164 0 -244.5 64t-80.5 194q0 23 3 50.5t9 60.5l119 608h-156zM283 -492l144 320h211l-226 -320h-129z" />
<glyph unicode="&#x21c;" horiz-adv-x="1284" d="M-74 -430l34 160q198 51 355.5 114t260 126.5t170.5 131.5t97 130.5t29 123.5q0 85 -47.5 134.5t-139.5 54.5t-228 -49l-178 -72l36 171l271 106q109 43 193 102t132 122t72 125.5t24 122.5q0 50 -21 86.5t-56.5 55t-73.5 27t-80 8.5q-185 0 -466 -184l40 190 q274 164 480 164q171 0 278 -86t107 -234q0 -47 -9.5 -93t-25 -83.5t-38.5 -74.5t-46 -65.5t-52.5 -57t-52.5 -47.5t-51.5 -39t-45 -30t-37 -22t-22.5 -14q70 -16 120 -47.5t75 -73t36 -81.5t11 -84q0 -259 -299 -480t-852 -338z" />
<glyph unicode="&#x21d;" horiz-adv-x="1068" d="M-127 -433l28 130q416 112 612.5 238t196.5 281q0 70 -46.5 112t-126.5 42q-59 0 -128 -25l-234 -86l30 139l241 85q178 64 273.5 167.5t95.5 211.5q0 41 -18.5 71.5t-51 46t-67 22.5t-74.5 7q-68 0 -158.5 -29.5t-256.5 -119.5l33 154q294 133 428 133q99 0 178 -29 t126.5 -87t47.5 -137q0 -35 -7.5 -68.5t-18.5 -61.5t-30.5 -57.5t-36 -51t-43 -46.5t-43 -40t-45.5 -35.5t-41 -29t-37.5 -25t-28.5 -18.5q47 -6 85.5 -24.5t63 -44t41 -57t23 -62t6.5 -60.5q0 -97 -70 -193t-199 -180.5t-321.5 -155.5t-426.5 -117z" />
<glyph unicode="&#x21e;" horiz-adv-x="1540" d="M55 0l291 1493h203l-119 -612h733l119 612h203l-291 -1493h-203l139 711h-733l-139 -711h-203zM690 1901h134l139 -178l209 178h151l-262 -266h-213z" />
<glyph unicode="&#x21f;" horiz-adv-x="1298" d="M72 0l303 1556h184l-119 -612q70 94 179 148.5t229 54.5q148 0 229.5 -80t81.5 -225q0 -36 -4.5 -77t-13.5 -89l-131 -676h-185l131 669q9 47 14 83t5 57q0 84 -53 131t-148 47q-148 0 -256.5 -100t-140.5 -266l-121 -621h-184zM211 1901h134l139 -178l209 178h151 l-262 -266h-213z" />
<glyph unicode="&#x220;" horiz-adv-x="1506" d="M55 0l290 1493h202l-47 -241q104 135 222 201q118 67 272 67q227 0 312 -159q51 -94 51 -239q0 -102 -25 -229l-256 -1319h-201l257 1321q17 89 17 160q0 98 -33 161q-55 107 -208 107q-179 0 -313 -129q-131 -126 -174 -348l-164 -846h-202z" />
<glyph unicode="&#x221;" d="M84 559q52 264 210 426q160 162 363 162q124 0 203 -49q79 -48 117 -148l118 606h184l-241 -1242q146 184 282 184q244 0 204 -206q-63 -321 -405 -321q-73 0 -123 15q-48 -72 -83 -130h-196q42 69 138 216q-37 60 -30 96q-77 -100 -174 -148q-99 -49 -223 -49 q-203 0 -299 162t-45 426zM274 559q-39 -203 21 -319q62 -115 208 -115t252 115q107 116 146 319q40 203 -22 319q-61 115 -207 115t-253 -115q-105 -116 -145 -319zM1094 130q16 -5 53 -5q160 0 194 175q9 45 -43 46q-52 0 -204 -216z" />
<glyph unicode="&#x222;" horiz-adv-x="1430" d="M38 322q0 46 10 98q28 143 144 242t293 133q-165 31 -218 101q-54 71 -54 141q0 18 3 36q26 130 172 213q130 74 387 74l-19 -100q-131 -3 -228 -65t-112 -141q-2 -10 -2 -20q0 -59 69 -121q51 -45 255 -45q168 0 275 65q109 65 135 201q10 49 10 87q0 84 -47 114 q-94 77 -222 85l19 100q228 0 358 -104q92 -75 92 -202q0 -38 -8 -81q-25 -128 -127 -217t-261 -121q166 -34 242 -133q56 -73 56 -169q0 -35 -8 -73q-42 -217 -220 -333t-469 -116t-423 116q-102 88 -102 235zM248 363q0 -95 71 -155q91 -77 275 -77t306 77q122 78 148 212 q6 30 6 58q0 94 -70 154q-91 77 -277 77q-184 0 -305 -77q-122 -77 -149 -212q-5 -30 -5 -57z" />
<glyph unicode="&#x223;" horiz-adv-x="1250" d="M69 308q0 52 12 112q28 143 129 242t254 133q-136 35 -180 121q-21 43 -21 109q0 48 11 108q21 106 101 194l155 -32q-56 -65 -78 -181q-6 -32 -6 -59q0 -75 43 -122q60 -65 191 -65q130 0 215 65q87 65 110 181q9 50 9 90q0 55 -18 91l172 32q28 -54 28 -121 q0 -35 -8 -73q-29 -153 -94 -217q-90 -89 -225 -121q139 -34 202 -133q42 -68 42 -157q0 -41 -8 -85q-42 -217 -198 -333q-155 -116 -402 -116t-356 116q-80 84 -80 221zM276 349q0 -86 49 -141q68 -77 212 -77t242 77q98 78 124 212q7 38 7 71q0 85 -49 141q-67 77 -212 77 q-144 0 -242 -77q-97 -77 -123 -212q-8 -38 -8 -71z" />
<glyph unicode="&#x224;" horiz-adv-x="1403" d="M-12 0l30 154l1171 1169h-921l34 170h1173l-30 -154l-1172 -1169h967l-37 -190q-56 -289 -229 -369q-79 -37 -194 -37h-254l31 156h233q105 0 152 48q48 49 77 202l4 20h-1035z" />
<glyph unicode="&#x225;" horiz-adv-x="1075" d="M21 0l32 168l849 805h-667l28 147h874l-32 -168l-849 -805h692l-32 -167q-56 -289 -230 -369q-79 -37 -193 -37h-254l30 156h233q105 0 152 48q48 49 78 202l4 20h-715z" />
<glyph unicode="&#x226;" horiz-adv-x="1401" d="M-109 0l863 1493h229l277 -1493h-211l-62 383h-672l-211 -383h-213zM408 551h548l-129 743zM778 1667l41 205h203l-39 -205h-205z" />
<glyph unicode="&#x227;" horiz-adv-x="1255" d="M84 283q0 196 156.5 310t431.5 114h256l10 49q2 8 3 17.5t1 29.5q0 89 -72.5 138.5t-203.5 49.5q-90 0 -184.5 -23t-194.5 -69l32 170q104 39 203.5 58.5t192.5 19.5q198 0 301.5 -86t103.5 -250q0 -33 -5 -77.5t-15 -94.5l-125 -639h-184l34 170q-81 -100 -184.5 -149.5 t-230.5 -49.5q-143 0 -234.5 87.5t-91.5 224.5zM274 315q0 -88 55.5 -138t153.5 -50q150 0 262 107.5t148 287.5l8 41h-184q-226 0 -334.5 -60.5t-108.5 -187.5zM660 1323l45 233h184l-45 -233h-184z" />
<glyph unicode="&#x228;" horiz-adv-x="1294" d="M55 0l291 1493h944l-33 -170h-743l-86 -442h713l-33 -170h-713l-104 -541h760l-33 -170h-963zM253 -364l23 131q39 -16 78.5 -24t81.5 -8q60 0 95.5 30.5t35.5 83.5q0 29 -12.5 65t-43.5 93h119q36 -51 53 -94.5t17 -85.5q0 -100 -73.5 -157.5t-201.5 -57.5q-43 0 -86 6 t-86 18z" />
<glyph unicode="&#x229;" horiz-adv-x="1260" d="M94 399q0 175 62.5 325.5t183.5 268.5q78 74 185.5 114t228.5 40q190 0 302.5 -114t112.5 -306q0 -46 -6 -98.5t-18 -112.5h-856q-6 -38 -8 -60t-2 -38q0 -139 85.5 -215t241.5 -76q120 0 227 27t199 79l-35 -182q-99 -40 -204.5 -60t-214.5 -20q-233 0 -358.5 111.5 t-125.5 316.5zM169 -371l23 131q39 -16 78.5 -24t81.5 -8q60 0 95.5 30.5t35.5 83.5q0 29 -12.5 65t-43.5 93h119q36 -51 53 -94.5t17 -85.5q0 -100 -73.5 -157.5t-201.5 -57.5q-43 0 -86 6t-86 18zM324 659l661 1q3 16 4.5 33t1.5 34q0 122 -71.5 193t-194.5 71 q-137 0 -242 -86.5t-159 -245.5z" />
<glyph unicode="&#x22a;" horiz-adv-x="1612" d="M82 580q0 162 61.5 331t169.5 301q127 155 283 231.5t344 76.5q274 0 432 -161.5t158 -440.5q0 -172 -60 -338t-172 -301q-128 -156 -282.5 -232t-343.5 -76q-275 0 -432.5 163t-157.5 446zM297 569q0 -208 99.5 -321t281.5 -113q164 0 292.5 81.5t219.5 242.5 q61 108 93 226.5t32 236.5q0 207 -100 320.5t-281 113.5q-166 0 -293 -80.5t-221 -245.5q-60 -105 -91.5 -223t-31.5 -238zM698 1635l39 203h204l-41 -203h-202zM758 1951l29 148h598l-29 -148h-598zM1089 1635l39 203h202l-38 -203h-203z" />
<glyph unicode="&#x22b;" horiz-adv-x="1253" d="M94 424q0 122 39.5 248.5t102.5 212.5q99 134 221 198t276 64q191 0 308.5 -119t117.5 -311q0 -133 -39 -265t-102 -219q-98 -134 -220 -198t-278 -64q-197 0 -311.5 121.5t-114.5 331.5zM285 430q0 -152 63.5 -227.5t192.5 -75.5q185 0 306.5 161.5t121.5 409.5 q0 145 -65 219t-191 74q-104 0 -185 -48.5t-145 -147.5q-47 -74 -72.5 -169t-25.5 -196zM492 1350l39 202h205l-41 -202h-203zM565 1693l29 148h598l-29 -148h-598zM883 1350l39 202h203l-39 -202h-203z" />
<glyph unicode="&#x22c;" horiz-adv-x="1612" d="M82 580q0 162 61.5 331t169.5 301q127 155 283 231.5t344 76.5q274 0 432 -161.5t158 -440.5q0 -172 -60 -338t-172 -301q-128 -156 -282.5 -232t-343.5 -76q-275 0 -432.5 163t-157.5 446zM297 569q0 -208 99.5 -321t281.5 -113q164 0 292.5 81.5t219.5 242.5 q61 108 93 226.5t32 236.5q0 207 -100 320.5t-281 113.5q-166 0 -293 -80.5t-221 -245.5q-60 -105 -91.5 -223t-31.5 -238zM722 1642q35 109 96.5 164t146.5 55q35 0 65.5 -11t66.5 -36l32 -26q18 -14 37 -20.5t39 -6.5q39 0 67.5 27t39.5 73h125q-33 -109 -95.5 -164 t-154.5 -55q-31 0 -58.5 10.5t-58.5 32.5l-35 25l-1 1q-43 32 -81 32q-34 0 -61 -25.5t-45 -75.5h-125zM822 1951l29 148h598l-29 -148h-598z" />
<glyph unicode="&#x22d;" horiz-adv-x="1253" d="M94 424q0 122 39.5 248.5t102.5 212.5q99 134 221 198t276 64q191 0 308.5 -119t117.5 -311q0 -133 -39 -265t-102 -219q-98 -134 -220 -198t-278 -64q-197 0 -311.5 121.5t-114.5 331.5zM285 430q0 -152 63.5 -227.5t192.5 -75.5q185 0 306.5 161.5t121.5 409.5 q0 145 -65 219t-191 74q-104 0 -185 -48.5t-145 -147.5q-47 -74 -72.5 -169t-25.5 -196zM458 1306q35 109 96.5 164t146.5 55q35 0 65.5 -11t66.5 -36l32 -26q18 -14 37 -20.5t39 -6.5q39 0 67.5 27t39.5 73h125q-33 -109 -95.5 -164t-154.5 -55q-31 0 -58.5 10.5 t-58.5 32.5l-35 25l-1 1q-43 32 -81 32q-34 0 -61 -25.5t-45 -75.5h-125zM558 1615l29 148h598l-29 -148h-598z" />
<glyph unicode="&#x22e;" horiz-adv-x="1612" d="M82 580q0 162 61.5 331t169.5 301q127 155 283 231.5t344 76.5q274 0 432 -161.5t158 -440.5q0 -172 -60 -338t-172 -301q-128 -156 -282.5 -232t-343.5 -76q-275 0 -432.5 163t-157.5 446zM297 569q0 -208 99.5 -321t281.5 -113q164 0 292.5 81.5t219.5 242.5 q61 108 93 226.5t32 236.5q0 207 -100 320.5t-281 113.5q-166 0 -293 -80.5t-221 -245.5q-60 -105 -91.5 -223t-31.5 -238zM856 1666l41 205h203l-39 -205h-205z" />
<glyph unicode="&#x22f;" horiz-adv-x="1253" d="M94 424q0 122 39.5 248.5t102.5 212.5q99 134 221 198t276 64q191 0 308.5 -119t117.5 -311q0 -133 -39 -265t-102 -219q-98 -134 -220 -198t-278 -64q-197 0 -311.5 121.5t-114.5 331.5zM285 430q0 -152 63.5 -227.5t192.5 -75.5q185 0 306.5 161.5t121.5 409.5 q0 145 -65 219t-191 74q-104 0 -185 -48.5t-145 -147.5q-47 -74 -72.5 -169t-25.5 -196zM675 1323l45 233h184l-45 -233h-184z" />
<glyph unicode="&#x230;" horiz-adv-x="1612" d="M82 580q0 162 61.5 331t169.5 301q127 155 283 231.5t344 76.5q274 0 432 -161.5t158 -440.5q0 -172 -60 -338t-172 -301q-128 -156 -282.5 -232t-343.5 -76q-275 0 -432.5 163t-157.5 446zM297 569q0 -208 99.5 -321t281.5 -113q164 0 292.5 81.5t219.5 242.5 q61 108 93 226.5t32 236.5q0 207 -100 320.5t-281 113.5q-166 0 -293 -80.5t-221 -245.5q-60 -105 -91.5 -223t-31.5 -238zM762 1959l29 148h598l-29 -148h-598zM893 1638l41 205h203l-39 -205h-205z" />
<glyph unicode="&#x231;" horiz-adv-x="1253" d="M94 424q0 122 39.5 248.5t102.5 212.5q99 134 221 198t276 64q191 0 308.5 -119t117.5 -311q0 -133 -39 -265t-102 -219q-98 -134 -220 -198t-278 -64q-197 0 -311.5 121.5t-114.5 331.5zM285 430q0 -152 63.5 -227.5t192.5 -75.5q185 0 306.5 161.5t121.5 409.5 q0 145 -65 219t-191 74q-104 0 -185 -48.5t-145 -147.5q-47 -74 -72.5 -169t-25.5 -196zM529 1693l29 148h598l-29 -148h-598zM675 1323l45 233h184l-45 -233h-184z" />
<glyph unicode="&#x232;" horiz-adv-x="1251" d="M129 1493h217l279 -614l532 614h227l-677 -782l-138 -711h-202l137 711zM495 1693l29 148h598l-29 -148h-598z" />
<glyph unicode="&#x233;" horiz-adv-x="1212" d="M-51 -426l31 154h106q77 0 131 42t121 164l57 107l-248 1079h195l186 -858l514 858h193l-727 -1224q-128 -215 -208.5 -268.5t-205.5 -53.5h-145zM475 1377l29 148h598l-29 -148h-598z" />
<glyph unicode="&#x234;" horiz-adv-x="972" d="M-27 -144q43 69 138 216q-37 60 -18 150l258 1328h184l-241 -1236q146 184 282 184q244 0 204 -206q-62 -321 -404 -321q-73 0 -123 15q-48 -72 -84 -130h-196zM351 130q16 -5 53 -5q160 0 194 175q8 45 -43 46q-52 0 -204 -216z" />
<glyph unicode="&#x235;" horiz-adv-x="1726" d="M89 0l217 1120h185l-34 -174q86 101 185 151t216 50q193 0 269 -119q76 -120 31 -352l-70 -362q145 184 281 184q244 0 204 -206q-62 -321 -404 -321q-73 0 -123 15q-48 -72 -83 -130h-196q42 69 138 216q-38 60 -19 150l87 448q31 159 -16 238t-171 79q-149 0 -253 -95 q-105 -95 -136 -259l-123 -633h-185zM1144 130q16 -5 53 -5q160 0 194 175q9 45 -43 46q-52 0 -204 -216z" />
<glyph unicode="&#x236;" horiz-adv-x="977" d="M-11 -144q43 69 138 216q-37 60 -20 150l147 755h-135l28 143h135l62 318h185l-62 -318h379l-28 -143h-379l-129 -663q146 184 282 184q244 0 204 -206q-62 -321 -404 -321q-73 0 -124 15q-47 -72 -83 -130h-196zM367 130q16 -5 53 -5q160 0 194 175q8 45 -44 46 q-52 0 -203 -216z" />
<glyph unicode="&#x237;" horiz-adv-x="569" d="M-231 -426l30 156h47q108 0 153.5 45t76.5 205l221 1140h184l-221 -1140l-1 -5q-37 -191 -85 -262q-45 -67 -131.5 -103t-204.5 -36h-69z" />
<glyph unicode="&#x238;" horiz-adv-x="2044" d="M73 559q52 264 211 426t362 162q124 0 203 -49q79 -48 117 -148l118 606h184h1l-118 -606q78 100 176 148q98 49 221 49q204 0 300 -162t44 -426q-51 -264 -210 -426t-363 -162q-123 0 -202 49q-79 48 -118 148l-32 -168h-1h-184l32 168q-77 -100 -175 -148 q-98 -49 -222 -49q-203 0 -299 162t-45 426zM263 559q-39 -203 22 -319q61 -115 207 -115t252 115q107 116 146 319q40 203 -22 319q-61 115 -207 115t-252 -115q-106 -116 -146 -319zM1075 559q-39 -203 22 -319q61 -115 207 -115t252 115q106 116 145 319q40 203 -21 319 q-61 115 -207 115t-252 -115q-106 -116 -146 -319z" />
<glyph unicode="&#x239;" horiz-adv-x="2044" d="M152 559q51 264 210 426t362 162q124 0 203 -49q79 -48 118 -148l33 170h184h1l-33 -170q77 100 175 148q98 49 221 49q204 0 300 -162t45 -426q-52 -264 -211 -426t-363 -162q-123 0 -202 49q-79 48 -117 148l-116 -594h-1h-184l116 594q-78 -100 -176 -148 q-98 -49 -222 -49q-203 0 -299 162t-44 426zM342 559q-40 -203 21 -319q61 -115 207 -115t253 115q106 116 146 319q39 203 -23 319q-61 115 -207 115t-252 -115q-106 -116 -145 -319zM1154 559q-40 -203 21 -319q61 -115 207 -115t252 115q106 116 146 319q39 203 -22 319 q-61 115 -207 115t-252 -115q-106 -116 -145 -319z" />
<glyph unicode="&#x23a;" horiz-adv-x="1401" d="M-144 18l58 56l817 1419h229l66 -351l434 417l85 -89l-492 -473l186 -997h-210l-61 383h-555l-251 -241l-78 -142h-69l-73 -70l-69 70h-2l1 1zM388 551h23l450 433l-54 310zM588 551h349l-50 287z" />
<glyph unicode="&#x23b;" horiz-adv-x="1430" d="M-130 18l272 261q-81 187 -27 466q70 360 305 567q236 208 575 208q134 0 245 -36q58 -18 109 -45l126 120l85 -89l-123 -118l-36 -187q-38 43 -80 76l-960 -922q7 -13 15 -25q106 -157 362 -157q130 0 255 47q124 47 245 142l-41 -211q-120 -72 -246 -108 q-125 -36 -257 -36q-333 0 -488 199l-250 -240zM317 447l895 860h-1q-107 47 -237 47q-256 0 -422 -156q-166 -157 -224 -453q-33 -173 -11 -298z" />
<glyph unicode="&#x23c;" horiz-adv-x="1126" d="M-103 -16l234 230q-58 141 -18 345q53 274 234 431t443 157q85 0 163 -17q44 -10 86 -26l110 108l80 -79l-146 -143l-17 -85q-22 14 -44 25l-687 -674q4 -8 9 -16q77 -113 256 -113q80 0 163 21q82 22 169 65l-33 -170q-84 -36 -170 -54t-179 -18q-241 0 -359 144 l-213 -209zM296 376l610 598q-67 17 -138 17q-179 0 -300 -113q-121 -114 -161 -319q-20 -103 -11 -183z" />
<glyph unicode="&#x23d;" horiz-adv-x="1141" d="M1 700l28 144h191l126 649h202l-126 -649h191l-28 -144h-191l-103 -530h727l-33 -170h-929l136 700h-191z" />
<glyph unicode="&#x23e;" horiz-adv-x="1251" d="M-219 18l740 711l115 594h-530l33 170h1177l69 66l85 -89l-88 -85l-13 -62h-52l-587 -564l-148 -759h-203l101 519l-613 -589zM771 969l368 354h-300z" />
<glyph unicode="&#x23f;" horiz-adv-x="1067" d="M56 41l37 190q84 -49 170 -75q96 -2 154 -29q26 -2 52 -2q130 0 209 45q78 44 94 125q15 75 -28 115t-207 77l-61 15q-164 36 -225 110q-62 75 -36 205q30 158 159 244t335 86q102 0 189 -15t157 -45l-34 -174q-70 40 -150 60t-170 20q-137 0 -214 -42t-93 -126 q-12 -64 30 -101q41 -36 183 -69l60 -14q190 -44 256 -119q67 -76 41 -213q-31 -156 -172 -247q-99 -64 -234 -83l128 -159l122 -126q35 -36 111 -36l-30 -154h-39q-84 0 -186 61q-64 38 -135 129l-190 243q-23 30 -56 46q-16 3 -32 5q-94 18 -195 53z" />
<glyph unicode="&#x240;" horiz-adv-x="1075" d="M27 0l31 156l2 12l848 805h-667l29 147h874l-33 -168l-846 -803q89 -16 129 -65l212 -264l123 -126q35 -36 111 -36h108l-30 -154h-147q-84 0 -186 61q-64 38 -135 129l-190 243q-49 63 -139 63h-94z" />
<glyph unicode="&#x241;" horiz-adv-x="1235" d="M321 1241l36 182q82 35 167 52q84 18 169 18h254q251 0 358 -113q106 -112 64 -332q-43 -220 -194 -333q-150 -113 -401 -113h-39l-117 -602h-202l149 768h241q141 0 232 73q92 73 118 207t-37 206q-62 73 -204 73h-254q-69 0 -163 -22q-90 -21 -177 -64z" />
<glyph unicode="&#x242;" horiz-adv-x="981" d="M142 895l36 182q83 35 167 52q84 18 169 18q249 0 358 -113q107 -112 64 -332q-93 -404 -492 -442l-50 -260h-202l82 422h100q141 0 232 73t117 207q27 141 -36 206q-68 70 -205 73q-66 1 -163 -22q-90 -21 -177 -64z" />
<glyph unicode="&#x243;" horiz-adv-x="1405" d="M-64 368l28 144h191l191 981h516q231 0 337 -96q107 -96 72 -273q-26 -137 -106 -218t-208 -101q143 -32 206 -133q63 -102 33 -254q-39 -200 -196 -309t-408 -109h-536l71 368h-191zM290 166h324q163 0 255 68q91 67 118 206q28 140 -38 206q-66 67 -229 67h-324 l-39 -201h347l-28 -144h-347zM428 877h299q148 0 232 55q83 56 105 170q22 113 -40 169q-61 56 -209 56h-299z" />
<glyph unicode="&#x244;" horiz-adv-x="1499" d="M8 711l32 164h166l120 618h203l-120 -618h737l120 618h203l-120 -618h165l-32 -164h-165l-29 -150q-57 -292 -230 -441q-174 -149 -456 -149q-283 0 -398 149q-116 149 -59 441l29 150h-166zM353 586q-47 -240 19 -346q67 -105 262 -105q194 0 301 105q108 106 155 346 l24 125h-737z" />
<glyph unicode="&#x245;" horiz-adv-x="1401" d="M-129 0l860 1493h229l279 -1493h-210l-223 1294l-722 -1294h-213z" />
<glyph unicode="&#x246;" horiz-adv-x="1294" d="M55 0l290 1493h686l102 190h170l-102 -190h88l-33 -170h-146l-237 -442h266l-33 -170h-324l-290 -541h558l-33 -170h-616l-102 -190h-170l102 190h-176zM290 170h32l290 541h-217zM428 881h275l237 442h-426z" />
<glyph unicode="&#x247;" horiz-adv-x="1260" d="M74 -190l161 265q-141 118 -141 329q0 68 15 145q53 275 233 436.5t432 161.5q56 0 104 -9l104 172h170l-136 -224q157 -102 157 -331q0 -69 -15 -149l-18 -90h-469l-218 -361q69 -28 170 -28q203 0 419 104l-34 -174q-219 -86 -430 -86q-123 0 -217 33l-117 -194h-170z M289 433q0 -114 49 -187l163 270h-207q-5 -44 -5 -83zM328 659h260l199 330q-20 2 -41 2q-154 0 -263.5 -87t-154.5 -245zM758 660h226q9 45 9 84q0 118 -71 186z" />
<glyph unicode="&#x248;" horiz-adv-x="604" d="M-334 -410l33 170h63q134 0 203.5 75t107.5 269l102 527h-191l33 166h191l135 696h202l-135 -696h191l-33 -166h-191l-102 -527q-53 -270 -179 -392t-353 -122h-77z" />
<glyph unicode="&#x249;" horiz-adv-x="569" d="M-234 -426l31 156h49q105 0 152.5 48.5t76.5 201.5l92 472h-181l32 164h181l98 504h184l-98 -504h163l-32 -164h-163l-92 -472q-41 -214 -141.5 -310t-281.5 -96h-70zM336 1323l46 233h184l-46 -233h-184z" />
<glyph unicode="&#x24a;" horiz-adv-x="1600" d="M152 746q68 348 279.5 561.5t481.5 213.5q165 0 270.5 -64t156.5 -196l45 232h196l-270 -1389q-37 -194 3 -269t174 -75h69l-33 -170h-77q-227 0 -305.5 122t-26.5 392l25 127q-103 -132 -233.5 -196t-295.5 -64q-270 0 -398.5 213.5t-60.5 561.5zM361.5 745 q-55.5 -285 30 -447.5t289.5 -162.5q205 0 354 162.5t204.5 447.5t-30.5 447.5t-291 162.5q-204 0 -352.5 -162.5t-204 -447.5z" />
<glyph unicode="&#x24b;" horiz-adv-x="1300" d="M151.5 559q51.5 264 210.5 426t362 162q124 0 203 -48.5t118 -148.5l33 170h184l-222 -1140q-30 -153 -1.5 -201.5t133.5 -48.5h49l-30 -156h-70q-181 0 -244 96t-21 310l37 188q-78 -100 -176 -148.5t-222 -48.5q-203 0 -299 162t-44.5 426zM341.5 559 q-39.5 -203 21.5 -318.5t207 -115.5t252.5 115.5t146 318.5t-22 318.5t-207.5 115.5t-252 -115.5t-145.5 -318.5z" />
<glyph unicode="&#x24c;" horiz-adv-x="1423" d="M-12 631l32 166h190l136 696h455q207 0 317.5 -93.5t110.5 -269.5q0 -156 -94 -270t-248 -143q64 -15 106.5 -74t98.5 -235l127 -408h-213l-117 383q-45 148 -104 198t-181 50h-223l-123 -631h-203l123 631h-190zM414 797h260q153 0 247.5 84.5t94.5 220.5 q0 109 -63.5 167t-182.5 58h-254z" />
<glyph unicode="&#x24d;" horiz-adv-x="842" d="M-10 452l32 164h172l98 504h185l-34 -174q78 102 181 152q102 49 235 49q19 0 42 -3q23 -2 50 -7l-36 -189q-28 18 -63 26q-34 9 -78 9q-156 0 -260 -101q-103 -102 -135 -266h171l-32 -164h-171l-87 -452h-185l87 452h-172z" />
<glyph unicode="&#x24e;" horiz-adv-x="1251" d="M60 1105l32 164h157l-108 224h217l108 -224h524l193 224h217l-194 -224h156l-32 -164h-267l-343 -394l-138 -711h-203l138 711l-189 394h-268zM545 1105l108 -226l195 226h-303z" />
<glyph unicode="&#x24f;" horiz-adv-x="1212" d="M12 -426l30 154h108q76 0 125 36t126 170l49 84l-108 498h-298l28 143h240l-101 461h195l95 -461h332l273 461h195l-274 -461h239l-28 -143h-297l-370 -620q-117 -200 -202 -261q-86 -61 -210 -61h-147zM530 516l56 -272l162 272h-218z" />
<glyph unicode="&#x250;" horiz-adv-x="1255" d="M142 307q0 33 5 77.5t15 94.5l127 641h184l-36 -172q81 100 184.5 149.5t230.5 49.5q143 0 234.5 -87.5t91.5 -224.5q0 -196 -156.5 -310t-431.5 -114h-256l-10 -49q-2 -8 -3 -17.5t-1 -29.5q0 -89 72.5 -138.5t203.5 -49.5q90 0 184.5 23t194.5 69l-32 -170 q-104 -39 -203.5 -58.5t-192.5 -19.5q-198 0 -301.5 86t-103.5 250zM361 555h184q226 0 334.5 60.5t108.5 187.5q0 88 -55.5 138t-153.5 50q-150 0 -262 -107.5t-148 -287.5z" />
<glyph unicode="&#x251;" horiz-adv-x="1300" d="M113 559q51 264 210 426t362 162q124 0 204 -49q78 -48 117 -148l33 170h184l-218 -1120h-184l33 168q-77 -100 -175 -148q-98 -49 -222 -49q-203 0 -300 162q-95 162 -44 426zM303 559q-39 -203 21 -319q62 -115 208 -115t252 115q107 116 146 319t-22 319 q-62 115 -208 115t-252 -115q-106 -116 -145 -319z" />
<glyph unicode="&#x252;" horiz-adv-x="1300" d="M4 -2l218 1120h184l-33 -168q77 100 176 148q97 49 221 49q203 0 299 -162t45 -426t-211 -426q-158 -162 -361 -162q-124 0 -203 49q-79 48 -118 148l-33 -170h-184zM297 559q-39 -203 22 -319q62 -115 208 -115t251 115q107 116 146 319t-22 319q-61 115 -207 115 t-252 -115q-107 -116 -146 -319z" />
<glyph unicode="&#x253;" horiz-adv-x="1300" d="M38 0l194 1002l29 148q42 214 142 310t281 96h254l-30 -156h-233q-109 0 -153 -48q-48 -52 -77 -202l-29 -148l-10 -52q78 100 177 148q98 49 221 49q204 0 299 -162q97 -162 45 -426q-51 -264 -211 -426q-158 -162 -362 -162q-123 0 -202 49q-79 48 -118 148l-32 -168 h-185zM331 559q-39 -203 21 -319q62 -115 208 -115t252 115q106 116 145 319q40 203 -21 319q-61 115 -207 115t-253 -115q-105 -116 -145 -319z" />
<glyph unicode="&#x254;" horiz-adv-x="1126" d="M5 41l37 182q66 -48 140.5 -72t154.5 -24q88 0 167.5 31t133.5 88q86 87 133 204t47 242q0 151 -75.5 225t-229.5 74q-76 0 -161.5 -23t-178.5 -69l35 182q80 33 164.5 49.5t173.5 16.5q223 0 343 -111.5t120 -318.5q0 -174 -62.5 -320.5t-185.5 -263.5 q-84 -80 -197 -121t-247 -41q-78 0 -155 17.5t-157 52.5z" />
<glyph unicode="&#x255;" horiz-adv-x="1126" d="M124 559q53 274 235 431q180 157 442 157q83 0 163 -17q75 -17 147 -53l-34 -172q-66 42 -144 65q-74 21 -154 21q-178 0 -300 -113q-121 -114 -161 -319t37 -319q3 -5 10 -14q119 176 315 176q298 0 252 -246q-35 -189 -370 -189q-80 0 -150 17q-17 -57 -30 -125 l-153 -3q20 104 48 188q-50 35 -87 86q-118 161 -66 429zM480 146q55 -19 131 -19q146 0 157 57q13 75 -117 75q-101 0 -171 -113z" />
<glyph unicode="&#x256;" horiz-adv-x="1300" d="M112 559q51 264 210 426t362 162q124 0 204 -49q78 -48 117 -148l118 606h184l-307 -1576q-29 -153 -1 -202q29 -48 134 -48h49l-31 -156h-70q-181 0 -243 96q-63 96 -22 310l29 148l8 40q-78 -100 -175 -148q-98 -49 -222 -49q-203 0 -300 162q-95 162 -44 426zM302 559 q-40 -203 21 -319q61 -115 207 -115t253 115q106 116 146 319q39 203 -22 319q-62 115 -208 115t-252 -115q-106 -116 -145 -319z" />
<glyph unicode="&#x257;" horiz-adv-x="1489" d="M73 559q52 264 210 426q160 162 363 162q124 0 203 -49q79 -48 117 -148l10 52l29 148q42 214 142 310t281 96h254l-30 -156h-233q-109 0 -153 -48q-48 -52 -77 -202l-29 -148l-194 -1002h-184l32 168q-77 -100 -175 -148q-98 -49 -222 -49q-203 0 -300 162 q-95 162 -44 426zM263 559q-39 -203 21 -319q62 -115 208 -115t252 115q107 116 146 319q40 203 -22 319q-61 115 -207 115t-253 -115q-105 -116 -145 -319z" />
<glyph unicode="&#x258;" horiz-adv-x="1260" d="M58 57l34 174q88 -52 183 -78q94 -26 200 -26q183 0 304 99q123 100 172 290h-846l17 90q49 250 208 396q160 145 386 145q252 0 369 -161q118 -162 64 -437q-52 -266 -239 -422q-186 -156 -454 -156q-107 0 -207 22t-191 64zM317 660l655 -1q17 158 -59 245 q-75 87 -229 87q-136 0 -236 -90t-131 -241z" />
<glyph unicode="&#x259;" horiz-adv-x="1260" d="M104 512l17 90h846q25 190 -58 290q-83 99 -266 99q-106 0 -210 -26q-105 -26 -213 -78l34 174q107 42 215 64t215 22q268 0 394 -156q127 -156 75 -422q-54 -275 -234 -437q-179 -161 -431 -161q-226 0 -330 145q-103 146 -54 396zM277 458q-27 -151 39 -241 q64 -90 200 -90q154 0 263 87q110 87 155 245z" />
<glyph unicode="&#x25a;" horiz-adv-x="1728" d="M83 375l852 443q-12 39 -32 74q-56 100 -265 99q-108 -1 -210 -26q-105 -26 -214 -78l34 174q107 42 216 64q108 22 215 22q268 0 394 -156q28 -35 48 -76l226 117h184l-29 -148q-30 -153 -1 -202q28 -48 133 -48h43l-30 -156h-64q-175 0 -243 96q-65 90 -26 290 l-156 -81q13 -96 -10 -214q-54 -275 -234 -437q-180 -161 -432 -161q-228 0 -329 145q-73 103 -70 259zM268 321q17 -69 42 -104q65 -90 201 -90q167 0 263 87q128 138 167 345q12 62 13 118z" />
<glyph unicode="&#x25b;" horiz-adv-x="1116" d="M80 250q0 159 112 257q83 73 212 97q-108 24 -155 89q-35 46 -35 108q0 170 162 269q128 78 324 78q76 0 159 -12t176 -36l-32 -167q-92 29 -169 42q-79 13 -150 13q-119 0 -197 -46q-94 -55 -94 -135q0 -53 49 -90q58 -44 174 -44h155l-29 -152h-148q-138 0 -219 -51 q-110 -69 -110 -177q0 -68 59 -113q74 -56 225 -56q93 0 182 18q89 19 167 56l-34 -171q-95 -28 -182 -42t-167 -14q-238 0 -350 91q-85 70 -85 188z" />
<glyph unicode="&#x25c;" horiz-adv-x="1116" d="M10 34l34 173q69 -34 157 -51q87 -18 187 -18q173 0 274 52q101 53 120 151q16 81 -59 136q-73 55 -223 55h-158l28 144h165q136 0 217 44q80 43 92 104q14 74 -51 117q-67 43 -205 43q-75 0 -164 -12q-89 -13 -198 -40l32 167q110 24 203 36q95 12 175 12q210 0 316 -79 q107 -79 81 -213q-18 -94 -96 -158q-77 -65 -201 -90q127 -23 187 -97t39 -183q-32 -166 -189 -258q-156 -91 -411 -91q-85 0 -173 14t-179 42z" />
<glyph unicode="&#x25d;" horiz-adv-x="1588" d="M29 27l34 171q64 -37 145 -56q81 -18 174 -18q151 0 247 56q95 56 113 146q17 88 -50 144q-62 51 -199 51h-148l29 152h155q116 0 192 44q76 45 90 115q12 64 -49 110q-60 46 -179 46q-71 0 -154 -13t-185 -42l32 167q103 24 190 36t163 12q196 0 294 -78q82 -66 77 -172 l262 134h184l-29 -148q-30 -153 -1 -202q28 -48 133 -48h43l-30 -156h-64q-174 0 -243 96q-65 90 -26 290l-320 -166q-78 -70 -194 -94q119 -24 174 -97t34 -181q-34 -173 -181 -264q-146 -91 -384 -91q-80 0 -163 14q-81 14 -166 42z" />
<glyph unicode="&#x25e;" horiz-adv-x="1360" d="M113 559q53 274 234 431q182 158 535 158q196 0 294 -78q99 -79 71 -220q-18 -93 -90 -157q-73 -65 -189 -89q119 -24 174 -97t34 -181q-34 -173 -181 -264q-146 -91 -384 -91q-314 0 -432 159q-119 159 -66 429zM307 559q-41 -208 37 -319q81 -116 291 -116 q151 0 247 56q95 56 113 146q17 88 -50 144q-62 51 -199 51h-148l29 152h155q116 0 192 44q76 45 90 115q12 64 -49 110q-60 46 -179 46q-250 0 -368 -110q-121 -114 -161 -319z" />
<glyph unicode="&#x25f;" horiz-adv-x="668" d="M-187 -426l30 156h49q105 0 152 48q48 49 78 202l91 472h-181l32 164h181l98 504h184l-98 -504h163l-32 -164h-163l-91 -472q-42 -214 -142 -310t-281 -96h-70z" />
<glyph unicode="&#x260;" horiz-adv-x="1425" d="M67 -367l35 179q72 -44 147 -65t157 -21q181 0 289 94q109 95 146 286l17 91q-76 -99 -174 -148q-99 -49 -223 -49q-206 0 -301 157q-96 157 -45 416q50 260 207 417q156 157 362 157q124 0 204 -49q79 -49 117 -148l39 200q41 214 141 310q101 96 282 96h190l-31 -156 h-169q-105 0 -152 -48q-48 -49 -77 -202l-197 -1011q-55 -286 -210 -425q-154 -140 -416 -140q-97 0 -180 14q-83 15 -158 45zM305 573q-39 -199 22 -309t209 -110q149 0 253 110t143 309q38 200 -23 310t-210 110q-148 0 -252 -110t-142 -310z" />
<glyph unicode="&#x261;" horiz-adv-x="1300" d="M109 -367l35 179q72 -44 147 -65t157 -21q181 0 290 94q108 95 145 286l18 91q-76 -99 -175 -148q-98 -49 -222 -49q-206 0 -302 157q-95 157 -45 416q45 233 202 390q156 157 362 157h543l-190 -981q-56 -286 -210 -425q-154 -140 -416 -140q-97 0 -181 14 q-83 15 -158 45zM347 573q-39 -199 23 -309q60 -110 208 -110q149 0 254 110q103 110 142 309l82 420h-314q-148 0 -252 -110t-143 -310z" />
<glyph unicode="&#x262;" horiz-adv-x="1289" d="M113 588q53 274 235 431q180 157 442 157q62 0 163 -18q100 -17 213 -92l-34 -172q-105 77 -210 104q-83 22 -154 22q-179 0 -300 -114q-121 -113 -161 -318t37 -318q77 -114 256 -114q173 0 257 22l55 282h-155l27 140h321l-102 -528q-79 -34 -170 -54q-81 -18 -283 -18 q-253 0 -371 159t-66 429z" />
<glyph unicode="&#x263;" horiz-adv-x="1220" d="M210 -171q19 99 103 227q54 83 194 260l-260 804h192l199 -632l445 632h192l-574 -804q72 -177 94 -260q34 -128 15 -227q-25 -129 -113 -194t-238 -65t-212 65t-37 194zM382 -178q-8 -45 15 -69q26 -27 93 -27q66 0 103 27q33 24 41 69q14 69 0 142q-21 100 -59 199 q-78 -99 -137 -199q-42 -73 -56 -142z" />
<glyph unicode="&#x264;" horiz-adv-x="1220" d="M208 1120h217l219 -399l375 399h217l-502 -534q52 -98 81 -174q46 -120 34 -182q-25 -130 -113 -194q-88 -65 -238 -65t-212 65q-62 64 -37 194q12 62 104 182q58 76 149 174zM421 223q-8 -45 15 -69q26 -27 93 -27q66 0 103 27q33 24 41 69q7 33 -20 97q-22 50 -64 120 q-69 -70 -109 -120q-52 -64 -59 -97z" />
<glyph unicode="&#x265;" horiz-adv-x="1298" d="M192 442l132 678h184l-130 -671q-31 -159 15 -239q47 -79 171 -79q149 0 254 95t137 259l123 635h184l-300 -1546h-184l116 598q-87 -102 -186 -152q-97 -49 -214 -49q-193 0 -270 120q-76 120 -32 351z" />
<glyph unicode="&#x266;" horiz-adv-x="1298" d="M35 0l195 1002l28 148q42 214 143 310q99 96 280 96h254l-30 -156h-233q-105 0 -152 -48q-48 -49 -78 -202l-39 -204h1q85 101 184 151q100 50 217 50q193 0 269 -119q75 -120 30 -352l-131 -676h-184l130 670q31 159 -16 238q-46 79 -170 79q-149 0 -254 -95 q-104 -95 -136 -259l-123 -633h-185z" />
<glyph unicode="&#x267;" horiz-adv-x="1298" d="M76 0l195 1002l29 148q41 214 142 310q100 96 281 96h254l-31 -156h-233q-105 0 -152 -48q-48 -49 -77 -202l-40 -204h1q86 101 184 151q100 50 217 50q193 0 269 -119q76 -120 31 -352l-136 -696q-41 -214 -142 -310q-100 -96 -281 -96h-254l31 156h233q105 0 152 48 q48 49 77 202l134 690q31 159 -15 238q-47 79 -171 79q-149 0 -253 -95q-105 -95 -137 -259l-123 -633h-185z" />
<glyph unicode="&#x268;" horiz-adv-x="761" d="M53 452l32 164h180l98 504h184l-98 -504h164l-32 -164h-164l-88 -452h-184l88 452h-180zM402 1323l46 233h184l-46 -233h-184z" />
<glyph unicode="&#x269;" horiz-adv-x="793" d="M163 406l139 714h184l-139 -714q-30 -153 -1 -202q28 -48 133 -48h49l-30 -156h-70q-181 0 -244 96t-21 310z" />
<glyph unicode="&#x26a;" horiz-adv-x="761" d="M8 0l32 164h175l153 792h-175l32 164h528l-32 -164h-169l-153 -792h169l-32 -164h-528z" />
<glyph unicode="&#x26b;" horiz-adv-x="810" d="M46 631q29 135 94 208q65 74 156 74q25 0 46 -6l126 649h184l-153 -787q2 -1 3 -2q15 -9 28 -9q38 0 63 37q25 36 43 118h125q-28 -135 -93 -208q-66 -74 -157 -74q-20 0 -38 4l-123 -635h-184l149 770q-5 4 -9 7q-15 9 -28 9q-38 0 -64 -37q-25 -36 -43 -118h-125z" />
<glyph unicode="&#x26c;" horiz-adv-x="998" d="M84 815q49 246 294 246q53 0 90 -25l101 520h184l-149 -770h250l-32 -160h-250l-121 -626h-184l116 596l4 30h-61q-280 0 -242 189zM259 843q-11 -57 81 -57h63q3 132 -52 132q-77 0 -92 -75z" />
<glyph unicode="&#x26d;" horiz-adv-x="570" d="M79 -20l307 1576h184l-307 -1576q-29 -153 -1 -202q29 -48 134 -48h49l-31 -156h-70q-181 0 -243 96q-63 96 -22 310z" />
<glyph unicode="&#x26e;" horiz-adv-x="1446" d="M84 0l303 1556h184l-85 -436h869l-33 -168l-503 -476q104 0 223 -56q90 -43 154 -151q61 -104 34 -242q-43 -221 -218 -342q-176 -121 -456 -121q-94 0 -189 18q-96 19 -195 56l38 195q74 -49 169 -74t204 -25q190 0 304 75q115 75 142 218q26 132 -51 207 q-77 74 -244 74h-174l32 166l527 499h-662l-189 -973h-184z" />
<glyph unicode="&#x26f;" horiz-adv-x="1995" d="M166 446l132 676h185l-131 -670q-31 -162 11 -240t159 -78q143 0 244 96q101 94 133 258l124 634h185l-131 -670q-31 -162 11 -240t161 -78q141 0 242 96q102 96 133 258l124 634h185l-218 -1120h-185l34 174q-84 -104 -181 -152q-98 -50 -219 -50q-122 0 -196 62 q-72 62 -91 180q-93 -124 -200 -182q-108 -60 -238 -60q-175 0 -246 123t-27 349z" />
<glyph unicode="&#x270;" horiz-adv-x="1995" d="M205 445l131 676h185l-130 -670q-31 -161 11 -239t158 -78q144 0 245 95t133 259l123 633h185l-130 -670q-31 -162 11 -239q41 -78 161 -78q140 0 242 96q102 95 133 258l123 633h185l-300 -1547h-185l116 601q-83 -103 -180 -152q-98 -49 -219 -49q-122 0 -196 62 q-72 62 -91 180q-93 -124 -200 -183q-108 -59 -238 -59q-175 0 -246 122q-71 123 -27 349z" />
<glyph unicode="&#x271;" horiz-adv-x="1995" d="M116 0l218 1120h185l-34 -174q83 103 180 152q98 49 219 49q122 0 195 -62q74 -62 92 -180q93 124 200 183q108 59 238 59q175 0 246 -123q71 -122 27 -348l-135 -696q-42 -214 -142 -310t-281 -96h-254l30 156h233q105 0 153 48q47 49 77 202q14 86 97 500 q22 110 36 190q31 161 -10 239q-42 78 -159 78q-143 0 -245 -95q-101 -95 -133 -259l-123 -633h-185l130 670q32 162 -10 240q-42 77 -161 77q-141 0 -243 -95q-101 -96 -133 -259l-123 -633h-185z" />
<glyph unicode="&#x272;" horiz-adv-x="1323" d="M-190 -426l30 156h49q105 0 153 48q47 49 77 202l222 1140h185l-34 -174q85 101 185 151q99 50 216 50q193 0 269 -119q75 -120 30 -352l-131 -676h-184l130 670q31 159 -16 238q-46 79 -170 79q-149 0 -254 -95q-104 -95 -136 -259l-128 -653q-42 -214 -141 -310 q-101 -96 -282 -96h-70z" />
<glyph unicode="&#x273;" horiz-adv-x="1315" d="M116 0l218 1120h185l-34 -174q85 101 184 151q100 50 217 50q193 0 269 -119q75 -120 30 -352l-135 -696q-30 -153 -1 -202q28 -48 133 -48h49l-30 -156h-70q-181 0 -243 96q-64 96 -22 310l134 690q31 159 -16 238q-46 79 -170 79q-149 0 -254 -95q-104 -95 -136 -259 l-123 -633h-185z" />
<glyph unicode="&#x274;" horiz-adv-x="1298" d="M70 0l218 1120h272l301 -903l176 903h196l-218 -1120h-272l-307 876l-170 -876h-196z" />
<glyph unicode="&#x275;" horiz-adv-x="1253" d="M113 559q54 276 221 432q166 156 407 156q240 0 347 -156t53 -432q-53 -275 -221 -431q-167 -157 -407 -157q-241 0 -347 157q-106 156 -53 431zM293 507q-21 -163 34 -263q63 -117 210 -117q148 0 256 115q94 101 136 265h-636zM331 671h624q7 126 -37 205 q-64 115 -213 115q-147 0 -256 -116q-76 -81 -118 -204z" />
<glyph unicode="&#x276;" horiz-adv-x="1757" d="M113 561q53 274 249 416q195 143 520 143h785l-30 -154h-556l-57 -291h533l-30 -155h-533l-71 -364h570l-30 -156h-799q-325 0 -464 142q-140 143 -87 419zM298 559q-42 -217 57 -325q98 -109 338 -109h37l169 865h-37q-240 0 -381 -108q-141 -107 -183 -323z" />
<glyph unicode="&#x277;" horiz-adv-x="1491" d="M136 468q7 19 51 190q35 66 61 122q167 368 614 367q420 -2 467 -367q15 -120 18 -122q-5 -101 -23 -190q-44 -230 -157 -364t-260 -134q-103 0 -161 71q-57 71 -59 202q-54 -131 -139 -202q-84 -71 -187 -71q-147 0 -208 134q-68 149 -17 364zM302 486q-24 -167 9 -230 q44 -85 122 -85q77 0 147 79q38 43 74 228l36 182h156l-36 -182q-36 -185 -14 -228q40 -79 117 -79q75 0 154 85q46 48 99 230q9 75 15 178q1 23 -41 116q-74 160 -328 160q-242 0 -371 -160q-78 -96 -84 -116q-46 -112 -55 -178z" />
<glyph unicode="&#x278;" horiz-adv-x="1351" d="M111 559q53 275 220 431q163 153 362 153l81 413h183l-81 -413q200 0 303 -153q106 -156 53 -431q-54 -275 -221 -431q-162 -153 -362 -153l-78 -401h-183l78 401q-199 0 -303 153q-106 156 -52 431zM305 559q-38 -202 24 -317q56 -103 169 -103l163 840 q-112 0 -209 -103q-109 -117 -147 -317zM681 139q113 0 210 103q106 115 147 317q40 200 -24 317q-57 103 -170 103z" />
<glyph unicode="&#x279;" horiz-adv-x="961" d="M4 -17l36 189q28 -18 62 -26q35 -9 79 -9q156 0 259 101q104 102 141 292l114 590h185l-217 -1120h-185l34 174q-78 -102 -181 -152q-102 -49 -235 -49q-19 0 -42 3q-23 2 -50 7z" />
<glyph unicode="&#x27a;" horiz-adv-x="961" d="M-37 -17l36 189q27 -18 62 -26q35 -9 79 -9q159 0 259 101q104 105 140 292l198 1016h185l-301 -1546h-185l34 174q-78 -102 -180 -152q-103 -49 -236 -49q-19 0 -41 3q-23 2 -50 7z" />
<glyph unicode="&#x27b;" horiz-adv-x="960" d="M43 -17l36 189q27 -18 62 -26q35 -9 79 -9q156 0 259 101q104 102 141 292l114 590h185l-221 -1140q-30 -153 -2 -202q29 -48 134 -48h49l-30 -156h-70q-181 0 -244 96t-21 310l36 194q-77 -102 -180 -152q-103 -49 -236 -49q-19 0 -41 3q-23 2 -50 7z" />
<glyph unicode="&#x27c;" horiz-adv-x="961" d="M-40 -426l301 1546h185l-34 -174q78 102 180 152q103 49 236 49q19 0 41 -3q23 -2 50 -7l-36 -189q-27 18 -62 26q-35 9 -79 9q-156 0 -259 -101q-103 -102 -140 -292l-198 -1016h-185z" />
<glyph unicode="&#x27d;" horiz-adv-x="961" d="M38 -20l222 1140h186l-34 -174q78 102 180 152q103 49 236 49q19 0 41 -3q23 -2 50 -7l-36 -189q-27 18 -62 26q-35 9 -79 9q-156 0 -259 -101t-140 -292l-115 -590h-2l-4 -20q-30 -153 -1 -202q28 -48 133 -48h233l-30 -156h-254q-181 0 -243 96q-64 96 -22 310z" />
<glyph unicode="&#x27e;" horiz-adv-x="1086" d="M5 0l31 164h180l113 577q56 289 229 369q79 37 193 37h254l-30 -156h-233q-105 0 -152 -48q-49 -50 -77 -202l-29 -151l-83 -426h163l-31 -164h-528z" />
<glyph unicode="&#x27f;" horiz-adv-x="1086" d="M197 991l30 156h254q115 0 179 -37q143 -80 87 -369l-113 -577h180l-31 -164h-528l31 164h163l83 426l31 151q30 152 1 202q-29 48 -134 48h-233z" />
<glyph unicode="&#x280;" horiz-adv-x="1232" d="M-59 0l218 1120h388q217 0 309 -80q92 -81 60 -243q-20 -105 -90 -175t-181 -97q52 -17 94 -71t77 -148l114 -306h-195l-106 287q-41 113 -93 149q-52 37 -149 37h-169l-92 -473h-185zM248 628h198q119 0 191 43t88 126q16 84 -39 126t-174 42h-198z" />
<glyph unicode="&#x281;" horiz-adv-x="1232" d="M-59 0l218 1120h185l-92 -473h169q97 0 163 37q66 36 151 149l218 287h195l-234 -306q-71 -94 -133 -148q-64 -54 -122 -71q101 -27 143 -97t22 -175q-32 -162 -154 -243q-124 -80 -341 -80h-388zM156 155h198q119 0 190 42q73 42 89 126q16 83 -40 126q-54 43 -173 43 h-198z" />
<glyph unicode="&#x282;" horiz-adv-x="1067" d="M37 -20l12 61l37 190q92 -53 185 -79q94 -27 191 -27q130 0 209 45q79 44 94 125q15 75 -27 115q-44 40 -207 77l-61 15q-164 36 -226 110q-62 75 -36 205q30 158 159 244t335 86q102 0 189 -15t157 -45l-34 -174q-70 40 -150 60t-170 20q-137 0 -213 -42 q-77 -42 -94 -126q-12 -64 30 -101q42 -36 183 -69l61 -14q187 -42 254 -119q69 -76 42 -213q-30 -156 -171 -247q-142 -91 -358 -91q-90 0 -184 17l-21 4l-2 -12q-30 -153 -1 -202q28 -48 133 -48h233l-30 -156h-254q-181 0 -243 96q-64 96 -22 310z" />
<glyph unicode="&#x283;" horiz-adv-x="688" d="M-230 -426l31 156h49q105 0 152 48q48 49 77 202q121 624 234 1218q35 181 140 272q98 86 293 86h174l-30 -153h-176q-99 0 -145 -40q-47 -40 -67 -144l-239 -1239q-41 -214 -141 -310q-101 -96 -282 -96h-70z" />
<glyph unicode="&#x284;" horiz-adv-x="688" d="M-232 -426l31 156h49q105 0 152 48q47 49 76 202l92 472h-180l32 164h180l70 361h-175l28 143h175l15 78q36 187 140 272q104 86 293 86h174l-30 -153h-176q-99 0 -145 -40q-47 -40 -67 -144l-117 -600l1 -3h162l-32 -164h-163l-92 -472q-41 -214 -141 -310 q-101 -96 -282 -96h-70z" />
<glyph unicode="&#x285;" horiz-adv-x="945" d="M176 972l30 153h174q195 0 259 -86q74 -97 34 -272q-20 -89 -156 -787q-30 -153 -1 -202q29 -48 134 -48h49l-31 -156h-70q-181 0 -244 96q-63 97 -21 310l159 808q20 104 -11 144q-30 40 -129 40h-176z" />
<glyph unicode="&#x286;" horiz-adv-x="688" d="M-421 -210q41 210 311 210h190l233 1198q35 180 140 272q98 86 293 86h174l-30 -153h-176q-100 0 -145 -40q-47 -41 -67 -144l-235 -1219h181l-30 -155h-191q-39 -111 -105 -175q-101 -96 -282 -96q-303 0 -261 216zM-265 -205q-9 -65 115 -65q110 0 152 48q22 23 38 68 h-179q-119 0 -126 -51z" />
<glyph unicode="&#x287;" horiz-adv-x="803" d="M-23 0l28 143h379l118 608q27 137 -4 176q-29 39 -144 39h-189l30 154h189q213 0 278 -80q66 -79 25 -289l-118 -608h135l-28 -143h-135l-62 -318h-185l62 318h-379z" />
<glyph unicode="&#x288;" horiz-adv-x="803" d="M81 -56l200 1033h-135l28 143h135l62 318h185l-62 -318h379l-28 -143h-379l-200 -1033q-27 -137 2 -176q31 -39 146 -39h189l-30 -154h-189q-213 0 -279 79q-65 79 -24 290z" />
<glyph unicode="&#x289;" horiz-adv-x="1298" d="M-18 452l32 164h174l98 504h184l-98 -504h570l98 504h184l-98 -504h186l-32 -164h-186l-88 -452h-184l33 172q-86 -102 -185 -152q-98 -49 -215 -49q-193 0 -269 120q-77 120 -32 351l2 10h-174zM339 449q-31 -159 16 -239q46 -79 170 -79q149 0 255 95q94 85 129 226 h-569z" />
<glyph unicode="&#x28a;" horiz-adv-x="1265" d="M115 489q29 147 101 254q75 109 214 213h-237l32 164h442l-43 -220q-122 -69 -206 -174q-87 -111 -114 -246q-31 -159 39 -256q69 -97 213 -97t251 97q107 98 137 256q29 146 -18 246q-49 111 -137 174l43 220h436l-32 -164h-236q94 -100 128 -213q33 -110 7 -246 q-46 -235 -216 -381q-171 -146 -396 -146t-339 145q-113 146 -69 374z" />
<glyph unicode="&#x28b;" horiz-adv-x="1225" d="M163 406l139 714h184l-139 -714q-30 -153 -1 -202q30 -50 133 -48l51 1q144 0 251 97q107 98 138 256q45 232 -9 333q-54 99 -158 129l29 150q102 -8 181 -56q147 -89 167 -262q14 -115 -20 -277q-49 -238 -216 -381q-170 -146 -395 -146h-70q-181 0 -244 96t-21 310z " />
<glyph unicode="&#x28c;" horiz-adv-x="1212" d="M-48 0l638 1120h250l202 -1120h-195l-167 940l-533 -940h-195z" />
<glyph unicode="&#x28d;" horiz-adv-x="1675" d="M-23 0l511 1120h217l62 -918l421 918h217l75 -1120h-184l-60 874l-399 -874h-217l-60 874l-399 -874h-184z" />
<glyph unicode="&#x28e;" horiz-adv-x="1212" d="M-89 0l730 1224q117 200 202 261q86 61 210 61h147l-30 -154h-108q-76 0 -125 -36t-126 -170l-49 -84l239 -1102h-195l-180 876l-520 -876h-195z" />
<glyph unicode="&#x28f;" horiz-adv-x="1251" d="M211 1120h217l204 -456l391 456h217l-540 -624l-97 -496h-203l97 496z" />
<glyph unicode="&#x290;" horiz-adv-x="1075" d="M21 0l32 168l849 805h-667l28 147h874l-32 -168l-849 -805h692l-28 -147h-2l-4 -20q-30 -153 -2 -202q29 -48 134 -48h49l-30 -156h-70q-181 0 -244 96t-21 310l4 20h-713z" />
<glyph unicode="&#x291;" horiz-adv-x="1075" d="M-10 0l33 168l848 805h-667l29 147h874l-33 -168l-848 -805h174q116 288 335 288q227 0 181 -246q-36 -189 -370 -189h-41q-13 -51 -25 -111h-153q12 59 25 111h-362zM555 147h20q174 0 184 54q18 91 -52 91q-89 -2 -152 -145z" />
<glyph unicode="&#x292;" horiz-adv-x="1183" d="M-49 -362l38 195q75 -49 170 -74t204 -25q190 0 303 75q115 75 143 218q25 132 -52 207q-79 74 -244 74h-174l33 166l527 499h-667l28 147h874l-32 -168l-504 -476q106 0 223 -56q90 -42 155 -151q61 -104 34 -242q-43 -221 -219 -342q-175 -121 -455 -121q-94 0 -190 18 q-96 19 -195 56z" />
<glyph unicode="&#x293;" horiz-adv-x="1183" d="M40 -247q50 251 347 246q246 -4 392 -63q20 42 30 91q26 133 -52 207q-79 74 -244 74h-174l33 166l527 499h-667l28 147h874l-32 -168l-504 -476q105 0 223 -56q91 -43 155 -151q61 -103 34 -242q-22 -113 -78 -198q81 -101 49 -265h-153q16 82 -13 138l-24 -17 q-174 -121 -455 -121q-335 0 -296 189zM214 -219q-9 -47 149 -47q190 0 303 75l8 5q-116 42 -313 42q-131 0 -147 -75z" />
<glyph unicode="&#x294;" horiz-adv-x="1045" d="M190 0l154 798h63q192 0 300 114q73 76 92 174q25 133 -19 198q-77 114 -256 114q-80 0 -164 -22q-82 -21 -168 -64l33 172q83 35 168 52q84 18 169 18q275 0 383 -157q84 -125 48 -311q-33 -170 -163 -285q-135 -119 -311 -149l-127 -652h-202z" />
<glyph unicode="&#x295;" horiz-adv-x="1045" d="M148 1086q36 186 171 311q167 157 442 157q85 0 163 -18q77 -17 146 -52l-33 -172q-70 43 -145 64q-73 22 -153 22q-179 0 -300 -114q-70 -65 -97 -198q-19 -98 24 -174q64 -114 256 -114h62l-155 -798h-202l127 652q-164 30 -253 149q-86 115 -53 285z" />
<glyph unicode="&#x296;" horiz-adv-x="1045" d="M-49 70l33 172q70 -43 144 -64q74 -22 154 -22q179 0 300 114q70 65 97 198q19 98 -24 174q-64 114 -256 114h-63l156 798h202l-127 -652q164 -30 253 -149q86 -115 53 -285q-36 -186 -170 -311q-168 -157 -443 -157q-85 0 -163 18q-77 17 -146 52z" />
<glyph unicode="&#x297;" horiz-adv-x="1045" d="M-15 32l206 1056q36 186 170 311q168 157 443 157q85 0 162 -18q78 -17 147 -52l-33 -172q-70 43 -145 64q-74 22 -154 22q-179 0 -300 -114q-70 -65 -96 -198l-206 -1056q-24 -133 20 -198q77 -114 256 -114q80 0 162 22q83 21 169 64l-33 -172q-83 -35 -167 -52 q-85 -18 -170 -18q-275 0 -381 157q-86 125 -50 311z" />
<glyph unicode="&#x298;" horiz-adv-x="1612" d="M115 745q69 354 298.5 564.5t544.5 210.5q314 0 461 -210.5t78 -564.5q-69 -353 -298 -563.5t-543 -210.5q-315 0 -462.5 210t-78.5 564zM328 745q-55 -282 42.5 -446t317.5 -164t380.5 164t215.5 446q55 283 -41.5 447t-316.5 164t-381.5 -164t-216.5 -447zM693 745 q9 46 49 80q39 34 87 34q46 0 73 -34q26 -34 17 -80q-9 -47 -48.5 -80t-86.5 -33t-73 33q-27 33 -18 80z" />
<glyph unicode="&#x299;" horiz-adv-x="1187" d="M77 0l218 1120h438q197 0 279 -64t82 -157q0 -27 -6 -56q-40 -209 -260 -239q122 -24 177 -100q39 -54 39 -128q0 -29 -6 -62q-29 -150 -160.5 -232t-345.5 -82h-455zM290 147h262q257 0 294 185q4 21 4 39q0 145 -227 145h-262zM390 663h242q104 0 187 46.5t83 137.5 q0 55 -53 90.5t-157 35.5h-242z" />
<glyph unicode="&#x29a;" horiz-adv-x="1360" d="M68 326q21 108 104 181t212 97q-108 24 -155 89q-48 64 -30 157q28 141 157 220q128 78 324 78q353 0 474 -158q120 -157 67 -431q-53 -270 -232 -429q-180 -159 -494 -159q-238 0 -350 91q-111 91 -77 264zM249 326q-18 -90 55 -146q74 -56 225 -56q210 0 337 116 q120 111 161 319q40 205 -37 319q-75 110 -326 110q-119 0 -197 -46q-79 -46 -91 -110q-14 -70 46 -115q58 -44 174 -44h155l-29 -152h-148q-138 0 -219 -51q-89 -56 -106 -144z" />
<glyph unicode="&#x29b;" horiz-adv-x="1450" d="M76 588q54 274 235 431q180 157 443 157q62 0 162 -18q31 -6 47 -11v1q42 215 142 310q100 96 281 96h254l-30 -156h-233q-106 0 -153 -48q-47 -50 -77 -202l-29 -148h-2l-20 -106q-106 77 -211 104q-81 22 -154 22q-179 0 -300 -114q-121 -112 -161 -318t37 -318 q77 -114 256 -114q176 0 258 22l54 282h-155l28 140h321l-103 -528q-79 -34 -170 -54q-81 -18 -283 -18q-254 0 -371 159q-118 160 -66 429z" />
<glyph unicode="&#x29c;" horiz-adv-x="1339" d="M77 0l218 1120h185l-89 -457h597l89 457h185l-218 -1120h-185l100 516h-597l-100 -516h-185z" />
<glyph unicode="&#x29d;" horiz-adv-x="598" d="M-420 -205q40 205 310 205h193l218 1120h184l-218 -1120h181l-27 -139h-189q-42 -120 -110 -191q-93 -96 -282 -96q-303 0 -260 221zM-265 -205q-12 -65 115 -65q95 0 147 48q35 32 51 83h-184q-117 0 -129 -66zM340 1323l46 233h184l-46 -233h-184z" />
<glyph unicode="&#x29e;" horiz-adv-x="1366" d="M145 0l695 524l-503 596h240l463 -547l106 547h185l-302 -1556h-185l178 919l-642 -483h-235z" />
<glyph unicode="&#x29f;" horiz-adv-x="1038" d="M77 0l218 1120h184l-189 -973h639l-29 -147h-823z" />
<glyph unicode="&#x2a0;" horiz-adv-x="1489" d="M112 559q51 264 210 426t362 162q124 0 204 -49q78 -48 117 -148l10 50l23 120l6 28q41 214 142 310q99 96 280 96h254l-30 -156h-233q-105 0 -152 -48q-48 -49 -77 -202l-6 -28l-23 -120l-277 -1426h-184l115 594q-77 -100 -175 -148q-98 -49 -222 -49q-203 0 -300 162 q-95 162 -44 426zM302 559q-39 -203 21 -319q62 -115 208 -115t252 115q107 116 146 319t-22 319q-62 115 -208 115t-252 -115q-106 -116 -145 -319z" />
<glyph unicode="&#x2a1;" horiz-adv-x="1045" d="M15 276l31 164h229l69 358h63q192 0 300 114q73 76 92 174q25 133 -19 198q-77 114 -256 114q-80 0 -164 -22q-82 -21 -168 -64l33 172q83 35 168 52q84 18 169 18q275 0 383 -157q84 -125 48 -311q-33 -170 -163 -285q-135 -119 -311 -149l-42 -212h231l-31 -164h-231 l-54 -276h-202l53 276h-228z" />
<glyph unicode="&#x2a2;" horiz-adv-x="1045" d="M148 1086q36 186 171 311q167 157 442 157q85 0 163 -18q77 -17 146 -52l-33 -172q-70 43 -145 64q-73 22 -153 22q-179 0 -300 -114q-70 -65 -97 -198q-19 -98 24 -174q64 -114 256 -114h62l-70 -358h229l-31 -164h-229l-54 -276h-202l54 276h-231l31 164h231l42 212 q-164 30 -253 149q-86 115 -53 285z" />
<glyph unicode="&#x2a3;" horiz-adv-x="2077" d="M73 559q52 264 210 426q160 162 363 162q124 0 203 -49q79 -48 117 -148l118 606h184l-85 -436h873l-32 -168l-849 -805h692l-28 -147h-873h-26h-158l32 168q-77 -100 -175 -148q-98 -49 -222 -49q-203 0 -300 162q-95 162 -44 426zM263 559q-39 -203 21 -319 q62 -115 208 -115t252 115q107 116 146 319q40 203 -22 319q-61 115 -207 115t-253 -115q-105 -116 -145 -319zM1004 198l817 775h-666z" />
<glyph unicode="&#x2a4;" horiz-adv-x="2166" d="M113 559q51 264 210 426t362 162q124 0 203 -49q79 -48 118 -148l118 606h184l-85 -436h874l-33 -168l-503 -476q106 0 223 -56q90 -42 154 -151q61 -104 34 -242q-43 -221 -218 -342q-176 -121 -456 -121q-94 0 -189 18q-96 19 -195 56l38 195q74 -49 169 -74t204 -25 q190 0 304 75q115 75 142 218q26 132 -51 207q-79 74 -244 74h-174l32 166l527 499h-667l-189 -973h-184l33 168q-78 -100 -176 -148q-97 -49 -221 -49q-203 0 -299 162q-97 162 -45 426zM303 559q-40 -203 21 -319q61 -115 207 -115t253 115q106 116 146 319 q39 203 -22 319q-62 115 -208 115t-252 -115q-106 -116 -145 -319z" />
<glyph unicode="&#x2a5;" horiz-adv-x="2074" d="M81 559q52 264 211 426t362 162q124 0 203 -49q79 -48 117 -148l118 606h184l-85 -436h872l-32 -168l-849 -805h175q116 288 335 288q227 0 180 -246q-35 -189 -369 -189h-41q-13 -51 -25 -111h-153q11 59 25 111h-362h-157l32 168q-77 -100 -175 -148q-98 -49 -222 -49 q-203 0 -299 162t-45 426zM271 559q-39 -203 22 -319q61 -115 207 -115t252 115q107 116 146 319q40 203 -22 319q-61 115 -207 115t-252 -115q-106 -116 -146 -319zM1012 199l816 774h-665zM1511 147h20q174 0 185 54q17 91 -53 91q-88 -2 -152 -145z" />
<glyph unicode="&#x2a6;" horiz-adv-x="1700" d="M105 977l28 143h135l62 318h185l-62 -318h379l-28 -143h-379l-118 -608q-27 -137 3 -176t145 -39h576q130 0 209 45q79 44 89 96q14 73 -26 111.5t-209 80.5l-61 15q-164 36 -225.5 110.5t-36.5 204.5q31 158 159.5 244t334.5 86q102 0 189 -15t158 -45l-34 -174 q-70 40 -150.5 60t-170.5 20q-137 0 -213.5 -42t-92.5 -126q-12 -64 29.5 -100.5t183.5 -69.5l60 -14q189 -44 256 -119.5t40 -212.5q-28 -146 -172 -247q-88 -62 -351 -62h-572q-213 0 -278 80q-66 79 -25 289l118 608h-135z" />
<glyph unicode="&#x2a7;" horiz-adv-x="1249" d="M135 977l28 143h135l62 318h185l-62 -318h376q7 39 15 78q35 181 140 272q98 86 293 86h174l-30 -153h-176q-99 0 -145 -40q-47 -40 -67 -144l-239 -1239q-41 -214 -141 -310q-101 -96 -282 -96h-70l31 156h49q105 0 152 48q48 49 77 202l4 20h-189q-213 0 -278 80 q-66 79 -25 289l118 608h-135zM337 369q-27 -137 3 -176t145 -39h188q80 418 158 823h-376z" />
<glyph unicode="&#x2a8;" horiz-adv-x="1594" d="M119 977l28 143h135l62 318h185l-62 -318h379l-24 -122q178 149 433 149q85 0 163 -17q77 -18 147 -53l-34 -172q-69 43 -144 65q-74 21 -154 21q-179 0 -300 -113q-121 -114 -161 -319t37 -319l6 -9q113 171 318 171q299 0 253 -246q-23 -118 -133 -159 q-80 -30 -237 -30q-84 0 -153 18q-12 -50 -27 -126l-154 -3q16 79 34 144h-277q-213 0 -278 80q-66 79 -25 289l118 608h-135zM321 369q-27 -137 3 -176t145 -39h158q-97 157 -49 405q51 263 220 418h-359zM921 151q61 -24 144 -24q95 0 117 7q33 11 40 50q14 75 -117 75 q-114 0 -172 -86q-6 -10 -12 -22z" />
<glyph unicode="&#x2a9;" horiz-adv-x="1737" d="M113 0l190 977h-176l28 143h176l15 78q36 187 140 272q104 86 293 86h174l-30 -153h-176q-99 0 -145 -40q-47 -40 -67 -144l-19 -99h301h2h183l-34 -174q86 101 184 151q100 50 217 50q193 0 269 -119q76 -120 31 -352l-136 -696q-41 -214 -142 -310q-100 -96 -281 -96 h-254l31 156h233q105 0 152 48q48 49 77 202l134 690q31 159 -15 238q-47 79 -171 79q-149 0 -253 -95q-105 -95 -137 -259l-123 -633h-185l190 977h-301l-190 -977h-185z" />
</font>
</defs>
</svg>
